SplineFontDB: 3.0
FontName: RoutedGothicNarrow
FullName: Routed Gothic Narrow
FamilyName: Routed Gothic Narrow
Weight: Regular

StartChar: exclam
Encoding: 33 33 0
Width: 230
VWidth: 32
Flags: HW
HStem: 48 48<97.5248 132.875>
VStem: 96 38<49.9059 94.0941>
LayerCount: 2
Fore
SplineSet
182 80 m 0
 182 47.0220157093 160.658103102 0 109 0 c 0
 66.116278251 0 48 35.1241599403 48 64 c 0
 48 99.412768916 72.0005421191 144 122 144 c 0
 168.256509748 144 182 104.005199221 182 80 c 0
115 736 m 0
 141.144471708 736 163 714.146366075 163 688 c 2
 163 288 l 2
 163 261.855528292 141.146366075 240 115 240 c 0
 88.8536339246 240 67 261.855528292 67 288 c 2
 67 688 l 2
 67 714.146366075 88.8555282921 736 115 736 c 0
EndSplineSet
EndChar

StartChar: quotedbl
Encoding: 34 34 1
Width: 307
VWidth: 32
Flags: HW
LayerCount: 2
Fore
SplineSet
218 736 m 0
 244.144471708 736 266 714.146366075 266 688 c 2
 266 480 l 2
 266 453.855528292 244.146366075 432 218 432 c 0
 191.853633925 432 170 453.855528292 170 480 c 2
 170 688 l 2
 170 714.146366075 191.855528292 736 218 736 c 0
90 736 m 0
 116.144471708 736 138 714.146366075 138 688 c 2
 138 480 l 2
 138 453.855528292 116.146366075 432 90 432 c 0
 63.8536339246 432 42 453.855528292 42 480 c 2
 42 688 l 2
 42 714.146366075 63.8555282921 736 90 736 c 0
EndSplineSet
EndChar

StartChar: numbersign
Encoding: 35 35 2
Width: 537
VWidth: 32
Flags: HW
LayerCount: 2
Fore
SplineSet
258.67266245 1.12414161715 m 0
 236.498270298 6.00943738821 221.029631077 26.2962424825 221.029631077 48.2743877181 c 0
 221.029631077 51.6024568155 221.384325779 54.9693082117 222.124141617 58.32733755 c 2
 262.148900063 240 l 1
 219.451099937 240 l 1
 174.875858383 37.67266245 l 2
 169.990232815 15.4967733463 149.702469827 0.0296689997832 127.725369687 0.0296689997832 c 0
 124.397333605 0.0296689997832 121.030558236 0.384355201734 117.67266245 1.12414161715 c 0
 95.4982702977 6.00943738821 80.0296310765 26.2962424825 80.0296310765 48.2743877181 c 0
 80.0296310765 51.6024568155 80.3843257786 54.9693082117 81.1241416172 58.32733755 c 2
 121.148900063 240 l 1
 90 240 l 2
 63.8536339246 240 42 261.855528292 42 288 c 0
 42 314.144471708 63.8536339246 336 90 336 c 2
 142.298900063 336 l 1
 156.398900063 400 l 1
 90 400 l 2
 63.8536339246 400 42 421.855528292 42 448 c 0
 42 474.144471708 63.8536339246 496 90 496 c 2
 177.548900063 496 l 1
 222.124141617 698.32733755 l 2
 227.009437388 720.501729702 247.296242482 735.970368923 269.274387718 735.970368923 c 0
 272.602456816 735.970368923 275.969308212 735.615674221 279.32733755 734.875858383 c 0
 301.503226654 729.990232815 316.970331 709.702469827 316.970331 687.725369687 c 0
 316.970331 684.397333605 316.615644798 681.030558236 315.875858383 677.67266245 c 2
 275.851099937 496 l 1
 318.548900063 496 l 1
 363.124141617 698.32733755 l 2
 368.009437388 720.501729702 388.296242482 735.970368923 410.274387718 735.970368923 c 0
 413.602456816 735.970368923 416.969308212 735.615674221 420.32733755 734.875858383 c 0
 442.503226654 729.990232815 457.970331 709.702469827 457.970331 687.725369687 c 0
 457.970331 684.397333605 457.615644798 681.030558236 456.875858383 677.67266245 c 2
 416.851099937 496 l 1
 448 496 l 2
 474.144471708 496 496 474.146366075 496 448 c 0
 496 421.853633925 474.144471708 400 448 400 c 2
 395.701099937 400 l 1
 381.601099937 336 l 1
 448 336 l 2
 474.144471708 336 496 314.146366075 496 288 c 0
 496 261.853633925 474.144471708 240 448 240 c 2
 360.451099937 240 l 1
 315.875858383 37.67266245 l 2
 310.990232815 15.4967733463 290.702469827 0.0296689997832 268.725369687 0.0296689997832 c 0
 265.397333605 0.0296689997832 262.030558236 0.384355201734 258.67266245 1.12414161715 c 0
254.701099937 400 m 1
 240.601099937 336 l 1
 283.298900063 336 l 1
 297.398900063 400 l 1
 254.701099937 400 l 1
EndSplineSet
EndChar

StartChar: dollar
Encoding: 36 36 3
Width: 403
VWidth: 32
Flags: HW
LayerCount: 2
Fore
SplineSet
332.581299555 495.384767475 m 0
 324.507568797 490.299568838 315.805209696 487.75379795 307.155042061 487.75379795 c 0
 291.524012549 487.75379795 276.063405016 496.066561625 264.790400087 512.729516701 c 1
 264.790400087 512.729516701 260.63667469 518.13163503 253 524.445225509 c 1
 253 418.034872869 l 1
 336.815084784 390.814197986 362 321.08633382 362 264 c 0
 362 195.676591497 324.118828881 126.224567948 253 103.612980402 c 1
 253 48 l 2
 253 21.8555282921 231.146366075 0 205 0 c 0
 178.853633925 0 157 21.8555282921 157 48 c 2
 157 102.620791714 l 1
 86.0076613086 124.084268739 49.393948777 190.40400614 48.9371168387 191.131203736 c 0
 44.2890251117 199.097455904 42.1035485561 207.680544612 42.1035485561 216.071292225 c 0
 42.1035485561 232.240146053 50.2188247593 247.694784438 64.4663312318 256.645193556 c 0
 72.2518767572 261.536141864 81.0256942035 263.886901631 89.7469741379 263.886901631 c 0
 105.263058896 263.886901631 120.612850897 256.446230964 129.935279311 242.631612723 c 0
 132.273178333 239.026143363 142.864988078 225.602712425 157 213.483388401 c 1
 157 340.720219083 l 1
 73.7472924151 367.58621054 48 442.188003913 48 492 c 0
 48 558.205478475 93.8482211789 614.921629694 157 633.542477198 c 1
 157 688 l 2
 157 714.146366075 178.855528292 736 205 736 c 0
 231.144471708 736 253 714.146366075 253 688 c 2
 253 632.650522507 l 1
 315.168937608 613.900663849 345.182676053 565.443476243 348.033633263 560.917033411 c 0
 352.432480522 553.398218716 354.622448091 544.80781611 354.622448091 536.211217257 c 0
 354.622448091 520.423646812 347.236351831 504.615178307 332.581299555 495.384767475 c 0
157 524.244551491 m 1
 148.681163427 514.821256263 144 503.183487017 144 492 c 0
 144 477.1960251 145.898532008 461.317137848 157 448.886136598 c 1
 157 524.244551491 l 1
253 215.269809168 m 1
 261.618080348 227.405915833 266 243.932968996 266 264 c 0
 266 285.540210271 253 302.153302779 253 313.93589271 c 2
 253 215.269809168 l 1
EndSplineSet
EndChar

StartChar: percent
Encoding: 37 37 5
Width: 691
VWidth: 32
Flags: HW
HStem: 48 240<439.922 558.478> 448 240<132.722 251.278>
VStem: 90 205<500.907 635.093> 397 205<100.907 235.093>
LayerCount: 2
Fore
SplineSet
650 168 m 0
 650 81.8487205715 588.829598267 0 499 0 c 0
 408.748099101 0 349 82.5292938636 349 168 c 0
 349 253.531614889 408.6864773 336 499 336 c 0
 588.829657118 336 650 254.151331778 650 168 c 0
554 168 m 0
 554 213.848668222 523.170342882 240 499 240 c 0
 475.3135227 240 445 214.468385111 445 168 c 0
 445 121.470706136 475.251900899 96 499 96 c 0
 523.170401733 96 554 122.151279429 554 168 c 0
342 568 m 0
 342 482.468385111 282.3135227 400 192 400 c 0
 101.748099101 400 42 482.529293864 42 568 c 0
 42 653.531614889 101.6864773 736 192 736 c 0
 282.251900899 736 342 653.470706136 342 568 c 0
246 568 m 0
 246 614.529293864 215.748099101 640 192 640 c 0
 168.3135227 640 138 614.468385111 138 568 c 0
 138 521.470706136 168.251900899 496 192 496 c 0
 215.6864773 496 246 521.531614889 246 568 c 0
185.70307276 4.04970308303 m 0
 167.876209733 11.8768101307 157.099293666 29.8444063316 157.099293666 48.395672526 c 0
 157.099293666 54.7558603118 158.36603302 61.1846537865 161.049703083 67.2969272401 c 2
 442.049703083 707.29692724 l 2
 449.876810131 725.123790267 467.844406332 735.900706334 486.395672526 735.900706334 c 0
 492.755860312 735.900706334 499.184653787 734.63396698 505.29692724 731.950296917 c 0
 523.124827081 724.122734643 533.900635451 706.154855931 533.900635451 687.604275443 c 0
 533.900635451 681.243966611 532.633884442 674.815158225 529.950296917 668.70307276 c 2
 248.950296917 28.7030727599 l 2
 241.122734643 10.8751729194 223.154855931 0.0993645493323 204.604275443 0.0993645493323 c 0
 198.243966611 0.0993645493323 191.815158225 1.36611555844 185.70307276 4.04970308303 c 0
EndSplineSet
EndChar

StartChar: ampersand
Encoding: 38 38 6
Width: 627
VWidth: 32
Flags: HW
LayerCount: 2
Fore
SplineSet
310.843856249 455.413181134 m 1
 364.808641859 463.116319846 394 503.255127446 394 552 c 0
 394 596.939474651 363.82466101 648 272 648 c 0
 176.850915966 648 154 593.324224205 154 552 c 0
 154 487.255780201 181.530074641 462 240 462 c 0
 264.18357993 462 287.89290153 459.822484167 310.843856249 455.413181134 c 1
571.184070712 402.353663457 m 0
 578.378728837 393.540009815 581.674153406 383.019368791 581.674153406 372.605778341 c 0
 581.674153406 358.529206331 575.652660199 344.648240165 565.101055494 335.443474003 c 0
 563.598459391 334.138587914 549.199788946 321.576400836 531.911390039 294.543861265 c 1
 568.921101748 228.442588635 589 145.041684734 589 48 c 0
 589 21.8536339246 567.144471708 0 541 0 c 0
 514.855528292 0 493 21.8536339246 493 48 c 0
 493 91.993770535 488.541438078 130.890532166 480.383995369 165.009781036 c 1
 439.481071349 26.8138474346 337.975335582 -8 253 -8 c 1
 111.549598863 -8 38 110.114221907 38 224 c 0
 38 305.630027715 72.4321152168 368.028136286 118.068305238 408.46088298 c 1
 80.2818819195 441.211189661 58 491.143347664 58 552 c 1
 58 638.675775795 123.149084034 744 272 744 c 0
 410.17533899 744 490 651.060525349 490 552 c 0
 490 498.236402719 468.835330797 445.380714608 428.266334384 408.092176615 c 1
 443.408549644 398.013563009 457.600011699 386.646696631 470.788885066 374.051823089 c 1
 487.842284522 395.831195143 501.14339483 407.140904285 504.25470976 409.680696312 c 0
 512.843390606 416.235381068 523.483633429 419.619069553 534.153402351 419.619069553 c 0
 547.884645299 419.619069553 561.664789022 414.015044759 571.184070712 402.353663457 c 0
420.294782667 288.511082962 m 1
 396.513226058 315.942507769 368.105144476 335.571821332 336.932220927 348.181984901 c 0
 308.70684537 359.599797607 276.983565092 365.75311307 242.120378487 365.992724383 c 0
 203.264692791 361.780226855 134 316.28731824 134 224 c 1
 134 145.885778093 176.450401137 88 253 88 c 0
 314.962014006 88 365.18059093 98.6314337496 391.433159993 203.641710002 c 0
 399.555161816 236.129717295 409.585819707 264.311221839 420.294782667 288.511082962 c 1
EndSplineSet
EndChar

StartChar: quotesingle
Encoding: 39 39 7
Width: 179
VWidth: 0
Flags: HW
LayerCount: 2
Fore
SplineSet
90 736 m 0
 116.144471708 736 138 714.146366075 138 688 c 2
 138 480 l 2
 138 453.855528292 116.146366075 432 90 432 c 0
 63.8536339246 432 42 453.855528292 42 480 c 2
 42 688 l 2
 42 714.146366075 63.8555282921 736 90 736 c 0
EndSplineSet
EndChar

StartChar: parenleft
Encoding: 40 40 8
Width: 275
VWidth: 32
Flags: HW
LayerCount: 2
Fore
SplineSet
209.785115424 809.692544708 m 0
 225.549403691 800.699200248 233.630917618 784.094803679 233.630917618 767.590450771 c 0
 233.630917618 759.769777989 231.816304888 751.971568882 228.144654002 745.016274998 c 0
 225.841449519 740.931627565 138 583.120326312 138 368 c 0
 138 152.366329423 226.2869163 -5.72164632162 228.144654002 -9.01627499792 c 0
 232.05271476 -16.4194056157 233.890459633 -24.2834507435 233.890459633 -31.982956118 c 0
 233.890459633 -48.8841136235 225.035380124 -64.9924447582 209.785115424 -73.6925447082 c 0
 202.379281763 -77.9174873135 194.244014747 -79.9659221019 186.165355527 -79.9659221019 c 0
 170.028403126 -79.9659221019 154.117311441 -71.7928260806 144.696660621 -56.4673487305 c 0
 141.760523268 -51.3206409817 42 122.58478281 42 368 c 0
 42 612.855880603 141.259596151 786.442573928 144.696660621 792.467348731 c 0
 153.539346665 806.852595277 169.843098097 815.81177769 186.69641247 815.81177769 c 0
 194.503744974 815.81177769 202.42901504 813.889115053 209.785115424 809.692544708 c 0
EndSplineSet
EndChar

StartChar: parenright
Encoding: 41 41 9
Width: 275
VWidth: 32
Flags: HW
LayerCount: 2
Fore
SplineSet
40.2148845756 809.692544708 m 0
 47.5709849596 813.889115053 55.4962550259 815.81177769 63.3035875301 815.81177769 c 0
 80.156901903 815.81177769 96.4606533349 806.852595277 105.303339379 792.467348731 c 0
 108.740403849 786.442573928 208 612.855880603 208 368 c 0
 208 122.58478281 108.239476732 -51.3206409817 105.303339379 -56.4673487305 c 0
 95.8826885586 -71.7928260806 79.9715968744 -79.9659221019 63.8346444728 -79.9659221019 c 0
 55.755985253 -79.9659221019 47.6207182374 -77.9174873135 40.2148845756 -73.6925447082 c 0
 24.964619876 -64.9924447582 16.1095403667 -48.8841136235 16.1095403667 -31.982956118 c 0
 16.1095403667 -24.2834507435 17.9472852399 -16.4194056157 21.855345998 -9.01627499792 c 0
 23.7130837005 -5.72164632162 112 152.366329423 112 368 c 0
 112 583.120326312 24.1585504811 740.931627565 21.855345998 745.016274998 c 0
 18.1836951122 751.971568882 16.3690823816 759.769777989 16.3690823816 767.590450771 c 0
 16.3690823816 784.094803679 24.450596309 800.699200248 40.2148845756 809.692544708 c 0
EndSplineSet
EndChar

StartChar: asterisk
Encoding: 42 42 10
Width: 409
VWidth: 32
Flags: HW
LayerCount: 2
Fore
SplineSet
282.059469195 728.607541729 m 0
 299.481708672 720.593311569 309.893820769 702.861460413 309.893820769 684.605375193 c 0
 309.893820769 677.972662946 308.519443895 671.270752905 305.607541729 664.940530805 c 2
 279.414897558 608 l 1
 320 608 l 2
 346.144471708 608 368 586.146366075 368 560 c 0
 368 533.853633925 346.144471708 512 320 512 c 2
 279.414897558 512 l 1
 305.607541729 455.059469195 l 2
 308.51935549 448.729439279 309.893749202 442.027501887 309.893749202 435.394651207 c 0
 309.893749202 417.139232649 299.482704572 399.407146545 282.059469195 391.392458271 c 0
 275.729247095 388.480556105 269.027337054 387.106179231 262.394624807 387.106179231 c 0
 244.138539587 387.106179231 226.406688431 397.518291328 218.392458271 414.940530805 c 2
 204.5 445.141527047 l 1
 190.607541729 414.940530805 l 2
 182.593311569 397.518291328 164.861460413 387.106179231 146.605375193 387.106179231 c 0
 139.972662946 387.106179231 133.270752905 388.480556105 126.940530805 391.392458271 c 0
 109.517295428 399.407146545 99.106250798 417.139232649 99.106250798 435.394651207 c 0
 99.106250798 442.027501887 100.48064451 448.729439279 103.392458271 455.059469195 c 2
 129.585102442 512 l 1
 90 512 l 2
 63.8536339246 512 42 533.855528292 42 560 c 0
 42 586.144471708 63.8536339246 608 90 608 c 2
 129.585102442 608 l 1
 103.392458271 664.940530805 l 2
 100.480556105 671.270752905 99.1061792307 677.972662946 99.1061792307 684.605375193 c 0
 99.1061792307 702.861460413 109.518291328 720.593311569 126.940530805 728.607541729 c 0
 133.270560721 731.51935549 139.972498113 732.893749202 146.605348793 732.893749202 c 0
 164.860767351 732.893749202 182.592853455 722.482704572 190.607541729 705.059469195 c 2
 204.5 674.858472953 l 1
 218.392458271 705.059469195 l 2
 226.407146545 722.482704572 244.139232649 732.893749202 262.394651207 732.893749202 c 0
 269.027501887 732.893749202 275.729439279 731.51935549 282.059469195 728.607541729 c 0
EndSplineSet
EndChar

StartChar: plus
Encoding: 43 43 11
Width: 512
VWidth: 192
Flags: HW
LayerCount: 2
Fore
SplineSet
477 368 m 0
 477 341.855528292 455.146366075 320 429 320 c 2
 304 320 l 1
 304 152 l 2
 304 125.855528292 282.146366075 104 256 104 c 0
 229.853633925 104 208 125.855528292 208 152 c 2
 208 320 l 1
 83 320 l 2
 56.8555282921 320 35 341.853633925 35 368 c 0
 35 394.146366075 56.8555282921 416 83 416 c 2
 208 416 l 1
 208 584 l 2
 208 610.146366075 229.855528292 632 256 632 c 0
 282.144471708 632 304 610.146366075 304 584 c 2
 304 416 l 1
 429 416 l 2
 455.146366075 416 477 394.144471708 477 368 c 0
EndSplineSet
EndChar

StartChar: comma
Encoding: 44 44 12
Width: 236
VWidth: 32
Flags: HW
LayerCount: 2
Fore
SplineSet
82.5216114893 6.62978612676 m 1
 62.1319888339 18.0765918281 48 37.9762871488 48 64 c 0
 48 99.412768916 72.0005421191 144 122 144 c 0
 164.595277718 144 189 104.142543267 189 64 c 0
 189 7.73830803211 160.409974084 -68.5871890424 159.238455521 -72.0654682018 c 0
 151.747819284 -92.1117840785 133.297094607 -103.992241602 113.904618433 -103.992241602 c 0
 108.834038839 -103.992241602 103.699074201 -103.180006337 98.6788134109 -101.489133224 c 0
 78.8276610236 -94.8030702424 66.0649901344 -75.7028043381 66.0649901344 -55.6305970991 c 0
 66.0649901344 -50.648221809 66.8513551423 -45.6059608834 68.5108667756 -40.6788134109 c 2
 68.5108667756 -40.6788134109 75.5913890703 -19.657264428 82.5216114893 6.62978612676 c 1
EndSplineSet
EndChar

StartChar: hyphen
Encoding: 45 45 13
Width: 332
VWidth: 32
Flags: HW
LayerCount: 2
Fore
SplineSet
16 264 m 0
 16 290.144471708 37.8536339246 312 64 312 c 2
 269 312 l 2
 295.144471708 312 317 290.146366075 317 264 c 0
 317 237.853633925 295.144471708 216 269 216 c 2
 64 216 l 2
 37.8536339246 216 16 237.855528292 16 264 c 0
EndSplineSet
EndChar

StartChar: period
Encoding: 46 46 14
Width: 230
VWidth: 32
Flags: HW
HStem: 48 48<97.5248 132.875>
VStem: 96 38<49.9059 94.0941>
AnchorPoint: "above" 115 -48 mark 0
LayerCount: 2
Fore
SplineSet
182 80 m 0
 182 47.0220157093 160.658103102 0 109 0 c 0
 66.116278251 0 48 35.1241599403 48 64 c 0
 48 99.412768916 72.0005421191 144 122 144 c 0
 168.256509748 144 182 104.005199221 182 80 c 0
EndSplineSet
EndChar

StartChar: slash
Encoding: 47 47 15
Width: 460
VWidth: 32
Flags: HW
LayerCount: 2
Fore
SplineSet
70.7030727599 4.04970308303 m 0
 52.8762097332 11.8768101307 42.0992936659 29.8444063316 42.0992936659 48.395672526 c 0
 42.0992936659 54.7558603118 43.3660330198 61.1846537865 46.049703083 67.2969272401 c 2
 327.049703083 707.29692724 l 2
 334.876810131 725.123790267 352.844406332 735.900706334 371.395672526 735.900706334 c 0
 377.755860312 735.900706334 384.184653787 734.63396698 390.29692724 731.950296917 c 0
 408.124827081 724.122734643 418.900635451 706.154855931 418.900635451 687.604275443 c 0
 418.900635451 681.243966611 417.633884442 674.815158225 414.950296917 668.70307276 c 2
 133.950296917 28.7030727599 l 2
 126.122734643 10.8751729194 108.154855931 0.0993645493323 89.6042754433 0.0993645493323 c 0
 83.2439666109 0.0993645493323 76.8151582251 1.36611555844 70.7030727599 4.04970308303 c 0
EndSplineSet
EndChar

StartChar: zero
Encoding: 48 48 16
Width: 537
VWidth: 32
Flags: HW
HStem: 40 656<200.583 337.017>
VStem: 70 397<233.016 502.984>
LayerCount: 2
Fore
SplineSet
515 368 m 0
 515 181.075844199 425.331649041 -8 269 -8 c 0
 112.854196789 -8 22 180.804803195 22 368 c 0
 22 555.213888848 112.849310668 744 269 744 c 0
 425.327086921 744 515 554.907923652 515 368 c 0
419 368 m 0
 419 543.092076348 332.672913079 648 269 648 c 0
 205.150689332 648 118 542.786111152 118 368 c 0
 118 193.195196805 205.145803211 88 269 88 c 0
 332.668350959 88 419 192.924155801 419 368 c 0
EndSplineSet
EndChar

StartChar: one
Encoding: 49 49 17
Width: 281
VWidth: 0
Flags: HW
LayerCount: 2
Fore
SplineSet
141 736 m 0
 167.144471708 736 189 714.146366075 189 688 c 2
 189 48 l 2
 189 21.8555282921 167.146366075 0 141 0 c 0
 114.853633925 0 93 21.8555282921 93 48 c 2
 93 688 l 2
 93 714.146366075 114.855528292 736 141 736 c 0
EndSplineSet
EndChar

StartChar: two
Encoding: 50 50 18
Width: 537
VWidth: 32
Flags: HW
LayerCount: 2
Fore
SplineSet
102 488 m 0
 75.8555282921 488 54 509.853633925 54 536 c 0
 54 669.605547939 149.711959493 744 258 744 c 0
 377.163955095 744 461 646.200394354 461 528 c 0
 461 448.530969553 422.470081545 398.593006855 348.735708801 343.55185537 c 0
 213.169335638 242.107630554 169.263959735 216.522649389 158.846898494 96 c 1
 435 96 l 2
 461.144471708 96 483 74.1463660754 483 48 c 0
 483 21.8536339246 461.144471708 0 435 0 c 2
 109 0 l 2
 88.3985836813 0 61 18.9455273174 61 48 c 0
 61 250.467277994 146.604748156 312.199506979 291.241847128 420.431349747 c 0
 359.548808709 471.421053462 365 483.464018507 365 528 c 0
 365 601.799605646 318.836044905 648 258 648 c 0
 194.288040507 648 150 616.394452061 150 536 c 0
 150 509.853633925 128.144471708 488 102 488 c 0
EndSplineSet
EndChar

StartChar: three
Encoding: 51 51 19
Width: 537
VWidth: 32
Flags: HW
LayerCount: 2
Fore
SplineSet
89.4915358085 198.288110744 m 0
 95.3747489086 200.746766965 101.52380201 201.907701076 107.605340077 201.907701076 c 0
 126.459678466 201.907701076 144.665089275 190.749265564 152.288110744 172.508464192 c 0
 174.091746014 120.335479796 219.496210424 88 267 88 c 0
 332.687189348 88 397 151.986510615 397 240 c 0
 397 334.058110038 346.144545122 396 275 396 c 0
 261.593395221 396 233.704956737 387.686846909 216.466252584 379.067494832 c 0
 209.743885223 375.706311151 202.53087134 374.118976725 195.387057336 374.118976725 c 0
 190.28981095 374.118976725 185.227794861 374.927103342 180.404378349 376.475603372 c 0
 168.818008025 380.185375661 158.594864033 388.169191754 152.572181366 399.552723862 c 0
 152.485686883 399.716207941 152.40025951 399.880013758 152.315895948 400.044132545 c 0
 152.232235607 400.20666735 152.14943277 400.36987333 152.067494832 400.533747416 c 0
 148.706210963 407.256315153 147.118905078 414.469277545 147.118905078 421.612920192 c 0
 147.118905078 426.710297644 147.927097494 431.772380265 149.475661882 436.59581641 c 0
 153.18528208 448.181819468 161.168743761 458.404898883 172.552723862 464.427818634 c 0
 264.05560981 512.839229222 305.834264426 588.207357104 324.965248543 640 c 1
 93 640 l 2
 66.8555282921 640 45 661.853633925 45 688 c 0
 45 714.146366075 66.8555282921 736 93 736 c 2
 387 736 l 2
 410.72476311 736 434.992440883 715.077092257 434.992440883 687.837538704 c 0
 434.992440883 686.079614458 434.891369418 684.295382271 434.682557842 682.488768046 c 0
 434.30163646 679.193079173 422.722012457 576.602314769 343.21328613 481.029911899 c 1
 440.561586208 447.748330688 493 343.834665491 493 240 c 0
 493 108.013489385 395.312810652 -8 267 -8 c 0
 174.503789576 -8 97.9082539864 53.6645202037 63.711889256 135.491535808 c 0
 61.2531562431 141.374932661 60.0922291997 147.52398313 60.0922291997 153.605417674 c 0
 60.0922291997 172.460463033 71.2518135123 190.665540232 89.4915358085 198.288110744 c 0
EndSplineSet
EndChar

StartChar: four
Encoding: 52 52 20
Width: 537
VWidth: 32
Flags: HW
LayerCount: 2
Fore
SplineSet
336 318 m 1
 336 604.322455917 l 1
 138.647798747 318 l 1
 336 318 l 1
522 270 m 0
 522 243.855528292 500.146366075 222 474 222 c 2
 432 222 l 1
 432 46 l 2
 432 19.8555282921 410.146366075 -2 384 -2 c 0
 357.853633925 -2 336 19.8555282921 336 46 c 2
 336 222 l 1
 90 222 l 2
 60.9455273174 222 42 249.398583681 42 270 c 2
 42 285 l 1
 42 332 l 2
 42 341.768749814 45.9205335033 352.627826297 50.4785907226 359.240745378 c 2
 294.478590723 713.240745378 l 2
 303.580504412 726.445980812 319.83316753 734 334 734 c 2
 365 734 l 1
 384 734 l 2
 413.054472683 734 432 706.601416319 432 686 c 2
 432 318 l 1
 474 318 l 2
 500.146366075 318 522 296.144471708 522 270 c 0
EndSplineSet
EndChar

StartChar: five
Encoding: 53 53 21
Width: 537
VWidth: 0
Flags: HW
LayerCount: 2
Fore
SplineSet
82.8611466521 200.0193627 m 0
 88.9276244959 202.656961763 95.3001354542 203.902057573 101.604313808 203.902057573 c 0
 120.215902378 203.902057573 138.231914004 193.049985349 146.0193627 175.138853348 c 0
 170.460403494 118.924459522 214.854390042 88 258 88 c 0
 320.022126191 88 387 156.797232413 387 264 c 0
 387 371.202095338 320.022537846 440 258 440 c 0
 218.789131605 440 179.97473111 419.109249304 148.718837171 373.04793192 c 0
 139.492785105 359.451644665 124.176145114 352.202136792 108.744728886 352.202136792 c 0
 98.2635478921 352.202136792 87.7294175219 355.546530487 79.0147876852 362.518177173 c 0
 66.0209092424 372.913194664 60.0361105782 390.975417325 61.1798292555 404.151056488 c 2
 86.1798292555 692.151056488 l 2
 88.3378521328 717.011480035 110.170636973 736 134 736 c 2
 390 736 l 2
 416.144471708 736 438 714.146366075 438 688 c 0
 438 661.853633925 416.144471708 640 390 640 c 2
 178.013838842 640 l 1
 167.140557064 514.739793911 l 1
 193.942116371 527.818392825 226.167499524 536 258 536 c 0
 391.977462154 536 483 404.797904662 483 264 c 0
 483 123.202767587 391.977873809 -8 258 -8 c 0
 167.145609958 -8 93.539596506 55.0755404779 57.9806372998 136.861146652 c 0
 55.3429568754 142.927811628 54.0978717404 149.300310187 54.0978717404 155.604371047 c 0
 54.0978717404 174.216649455 64.9510599439 192.232368479 82.8611466521 200.0193627 c 0
EndSplineSet
EndChar

StartChar: six
Encoding: 54 54 22
Width: 537
VWidth: 0
Flags: HW
LayerCount: 2
Fore
SplineSet
166.696207043 198.557449556 m 0
 200.91740386 104.332493357 257.872733981 88 286 88 c 0
 357.239154804 88 402 149.845476304 402 222 c 0
 402 295.060004424 345.547396221 356 280 356 c 0
 213.499644666 356 167 322.467993268 167 204 c 0
 167 202.431737457 166.874949317 200.372250317 166.696207043 198.557449556 c 0
142.864966395 402.56105294 m 1
 180.301426206 436.688383159 229.096595189 452 280 452 c 0
 406.452603779 452 498 340.939995576 498 222 c 0
 498 114.154523696 424.760845196 -8 286 -8 c 0
 197.817093538 -8 77.4700924627 64.5338091425 51.4405462361 274.350597127 c 0
 47.8935867428 302.941631389 46 334.070971257 46 368 c 0
 46 640.697907509 187.048333959 744 286 744 c 0
 404.174281354 744 453.413138309 652.118323536 456.751774177 645.83811348 c 0
 460.034813019 639.14270751 461.645893104 631.782913772 461.645893104 624.424418853 c 0
 461.645893104 607.400734395 453.023133827 590.384001421 436.531420047 581.616806271 c 0
 429.52360655 577.891367586 422.069923526 576.189687288 414.735163029 576.189687288 c 0
 397.342445607 576.189687288 380.618421736 585.758123769 372.093752258 600.600565106 c 0
 369.100526532 605.787053761 342.888865103 648 286 648 c 0
 257.984907133 648 153.889484369 612.921189233 142.864966395 402.56105294 c 1
EndSplineSet
EndChar

StartChar: seven
Encoding: 55 55 23
Width: 537
VWidth: 0
Flags: HW
LayerCount: 2
Fore
SplineSet
35 688 m 0
 35 714.144471708 56.8536339246 736 83 736 c 2
 442 736 l 2
 471.054472683 736 490 708.601416319 490 688 c 2
 490 630 l 2
 490 614.095063271 479.621373124 597.936480464 470.544704232 591.404773655 c 0
 465.340433648 587.693568581 272 450.656127929 272 80 c 2
 272 48 l 2
 272 21.8555282921 250.146366075 0 224 0 c 0
 197.853633925 0 176 21.8555282921 176 48 c 2
 176 80 l 2
 176 402.66848971 312.477674853 575.186430411 379.877515956 640 c 1
 83 640 l 2
 56.8536339246 640 35 661.855528292 35 688 c 0
EndSplineSet
EndChar

StartChar: eight
Encoding: 56 56 24
Width: 537
VWidth: 0
Flags: HW
LayerCount: 2
Fore
SplineSet
203.356608862 349.014186934 m 1
 180.302839915 332.715825227 141 296.202329035 141 228 c 0
 141 157.050878422 195.190931909 88 269 88 c 0
 354.204307483 88 397 146.946594819 397 216 c 0
 397 262.259385088 373.794799568 308.002603606 331.162409081 327.275253637 c 0
 316.708785888 333.809243833 299.096116954 338 277 338 c 0
 251.132479352 338 226.332041131 341.794273585 203.356608862 349.014186934 c 1
413.744352264 388.304507813 m 1
 468.277131663 343.981202538 493 277.348209061 493 216 c 0
 493 103.053405181 411.795692517 -8 269 -8 c 0
 130.809068091 -8 45 114.949121578 45 228 c 0
 45 309.810142679 82.7415746201 367.555176676 116.539284938 401.117381964 c 1
 79.6052728138 438.384352421 58 489.364485745 58 544 c 0
 58 656.020741405 150.081241863 744 269 744 c 0
 380.221355425 744 480 658.944659971 480 544 c 0
 480 475.925368206 442.9601671 422.071585096 413.744352264 388.304507813 c 1
320.840694742 430.162745229 m 1
 346.154768514 453.707099079 384 501.075061853 384 544 c 0
 384 599.055340029 333.778644575 648 269 648 c 0
 197.918758137 648 154 599.979258595 154 544 c 0
 154 504.895942715 172.894671234 472.338978229 205.239559802 452.69807482 c 0
 224.102844092 441.243654627 248.113809766 434 277 434 c 0
 291.794313197 434 306.827271897 432.632079269 320.840694742 430.162745229 c 1
EndSplineSet
EndChar

StartChar: nine
Encoding: 57 57 25
Width: 537
VWidth: 0
Flags: HW
LayerCount: 2
Fore
SplineSet
371.106431911 535.195194467 m 0
 337.082301571 631.580828119 279.331132319 648 251 648 c 0
 180.026457847 648 136 586.576485924 136 514 c 0
 136 440.939995576 192.452603779 380 258 380 c 0
 324.500355334 380 371 413.532006732 371 532 c 0
 371 533.046448523 371.036622691 534.130111594 371.106431911 535.195194467 c 0
394.086065702 332.488286691 m 1
 356.690086771 299.150786093 308.213395507 284 258 284 c 0
 131.547396221 284 40 395.060004424 40 514 c 0
 40 621.423514076 111.973542153 744 251 744 c 0
 339.655146449 744 460.616203682 670.747363094 485.920462501 458.682664929 c 0
 489.234615228 430.908099281 491 400.759130117 491 368 c 0
 491 95.3020924911 349.951666041 -8 251 -8 c 0
 132.825718646 -8 83.5868616907 83.8816764639 80.2482258232 90.1618865201 c 0
 76.9651869807 96.8572924899 75.3541068964 104.217086228 75.3541068964 111.575581147 c 0
 75.3541068964 128.599265605 83.9768661727 145.615998579 100.468579953 154.383193729 c 0
 107.47639345 158.108632414 114.930076474 159.810312712 122.264836971 159.810312712 c 0
 139.657554393 159.810312712 156.381578264 150.241876231 164.906247742 135.399434894 c 0
 167.899473468 130.212946239 194.111134897 88 251 88 c 0
 278.970308871 88 382.636425582 123.079725092 394.086065702 332.488286691 c 1
EndSplineSet
EndChar

StartChar: colon
Encoding: 58 58 26
Width: 230
VWidth: 0
Flags: HW
HStem: 48 48<97.5248 132.875> 432 48<97.5248 132.875>
VStem: 96 38<49.9059 94.0941 433.906 478.094>
LayerCount: 2
Fore
SplineSet
182 464 m 0
 182 431.022015709 160.658103102 384 109 384 c 0
 66.116278251 384 48 419.12415994 48 448 c 0
 48 483.412768916 72.0005421191 528 122 528 c 0
 168.256509748 528 182 488.005199221 182 464 c 0
182 80 m 0
 182 47.0220157093 160.658103102 0 109 0 c 0
 66.116278251 0 48 35.1241599403 48 64 c 0
 48 99.412768916 72.0005421191 144 122 144 c 0
 168.256509748 144 182 104.005199221 182 80 c 0
EndSplineSet
EndChar

StartChar: semicolon
Encoding: 59 59 27
Width: 236
VWidth: 0
Flags: HW
HStem: 432 48<97.5248 132.875>
VStem: 96 38<433.906 478.094>
LayerCount: 2
Fore
SplineSet
82.5216114893 6.62978612676 m 1
 62.1319888339 18.0765918281 48 37.9762871488 48 64 c 0
 48 99.412768916 72.0005421191 144 122 144 c 0
 164.595277718 144 189 104.142543267 189 64 c 0
 189 7.73830803211 160.409974084 -68.5871890424 159.238455521 -72.0654682018 c 0
 151.747819284 -92.1117840785 133.297094607 -103.992241602 113.904618433 -103.992241602 c 0
 108.834038839 -103.992241602 103.699074201 -103.180006337 98.6788134109 -101.489133224 c 0
 78.8276610236 -94.8030702424 66.0649901344 -75.7028043381 66.0649901344 -55.6305970991 c 0
 66.0649901344 -50.648221809 66.8513551423 -45.6059608834 68.5108667756 -40.6788134109 c 2
 68.5108667756 -40.6788134109 75.5913890703 -19.657264428 82.5216114893 6.62978612676 c 1
182 464 m 0
 182 431.022015709 160.658103102 384 109 384 c 0
 66.116278251 384 48 419.12415994 48 448 c 0
 48 483.412768916 72.0005421191 528 122 528 c 0
 168.256509748 528 182 488.005199221 182 464 c 0
EndSplineSet
EndChar

StartChar: less
Encoding: 60 60 28
Width: 512
VWidth: 0
Flags: HW
LayerCount: 2
Fore
SplineSet
469.717135519 126.581210196 m 0
 460.704411394 112.144161366 444.79846322 104.152988946 428.674805589 104.152988946 c 0
 420.029889823 104.152988946 411.32238885 106.450221159 403.581210196 111.282864481 c 2
 57.581210196 327.282864481 l 2
 54.438184013 329.244984872 51.6006647989 331.533814598 49.0845951827 334.080471356 c 0
 46.5363232882 336.597531689 44.2460851519 339.436427331 42.2828644807 342.581210196 c 0
 37.3895008896 350.419653726 35.095661565 359.248855051 35.1540722395 368.000633816 c 0
 35.0958872907 376.751997539 37.389741368 385.580724749 42.2828644807 393.418789804 c 0
 44.2460840758 396.563576748 46.5363237369 399.402473867 49.0845996365 401.919533097 c 0
 51.6006659276 404.466190297 54.4381836477 406.755018478 57.581210196 408.717135519 c 2
 403.581210196 624.717135519 l 2
 411.32238885 629.549778841 420.029889823 631.847011054 428.674805589 631.847011054 c 0
 444.79846322 631.847011054 460.704411394 623.855838634 469.717135519 609.418789804 c 0
 474.549636199 601.677839642 476.846948239 592.97021484 476.846948239 584.325032497 c 0
 476.846948239 568.201941199 468.856552309 552.296034137 454.418789804 543.282864481 c 2
 173.641608738 368 l 1
 454.418789804 192.717135519 l 2
 468.856552309 183.703965863 476.846948239 167.798058801 476.846948239 151.674967503 c 0
 476.846948239 143.02978516 474.549636199 134.322160358 469.717135519 126.581210196 c 0
EndSplineSet
EndChar

StartChar: equal
Encoding: 61 61 29
Width: 512
VWidth: 0
Flags: HW
AnchorPoint: "middle" 256 368 basechar 0
LayerCount: 2
Fore
SplineSet
35 248 m 0
 35 274.144471708 56.8536339246 296 83 296 c 2
 429 296 l 2
 455.144471708 296 477 274.146366075 477 248 c 0
 477 221.853633925 455.144471708 200 429 200 c 2
 83 200 l 2
 56.8536339246 200 35 221.855528292 35 248 c 0
35 488 m 0
 35 514.144471708 56.8536339246 536 83 536 c 2
 429 536 l 2
 455.144471708 536 477 514.146366075 477 488 c 0
 477 461.853633925 455.144471708 440 429 440 c 2
 83 440 l 2
 56.8536339246 440 35 461.855528292 35 488 c 0
EndSplineSet
EndChar

StartChar: greater
Encoding: 62 62 30
Width: 512
VWidth: 0
Flags: HW
LayerCount: 2
Fore
SplineSet
42.2828644807 126.581210196 m 0
 37.4503638013 134.322160358 35.1530517614 143.02978516 35.1530517614 151.674967503 c 0
 35.1530517614 167.798058801 43.1434476906 183.703965863 57.581210196 192.717135519 c 2
 338.358391262 368 l 1
 57.581210196 543.282864481 l 2
 43.1434476906 552.296034137 35.1530517614 568.201941199 35.1530517614 584.325032497 c 0
 35.1530517614 592.97021484 37.4503638013 601.677839642 42.2828644807 609.418789804 c 0
 51.2955886059 623.855838634 67.2015367797 631.847011054 83.3251944112 631.847011054 c 0
 91.9701101773 631.847011054 100.67761115 629.549778841 108.418789804 624.717135519 c 2
 454.418789804 408.717135519 l 2
 457.561815987 406.755015128 460.399335201 404.466185402 462.915404817 401.919528644 c 0
 465.463676712 399.402468311 467.753914848 396.563572669 469.717135519 393.418789804 c 0
 474.610380977 385.580535506 476.90422768 376.75157125 476.845927765 368 c 0
 476.90422768 359.24842875 474.610380977 350.419464494 469.717135519 342.581210196 c 0
 467.753915924 339.436423252 465.463676263 336.597526133 462.915400364 334.080466903 c 0
 460.399334072 331.533809703 457.561816352 329.244981522 454.418789804 327.282864481 c 2
 108.418789804 111.282864481 l 2
 100.67761115 106.450221159 91.9701101773 104.152988946 83.3251944112 104.152988946 c 0
 67.2015367797 104.152988946 51.2955886059 112.144161366 42.2828644807 126.581210196 c 0
EndSplineSet
EndChar

StartChar: question
Encoding: 63 63 31
Width: 512
VWidth: 0
Flags: HW
HStem: 48 48<225.525 260.875>
VStem: 224 38<49.9059 94.0941>
LayerCount: 2
Fore
SplineSet
310 80 m 0
 310 47.0220157093 288.658103102 0 237 0 c 0
 194.116278251 0 176 35.1241599403 176 64 c 0
 176 99.412768916 200.000542119 144 250 144 c 0
 296.256509748 144 310 104.005199221 310 80 c 0
90 488 m 0
 63.8555282921 488 42 509.853633925 42 536 c 0
 42 668.407161856 133.851141827 744 243 744 c 0
 350.772404693 744 445 678.829511402 445 560 c 0
 445 472.811234525 401.295773698 423.218440604 348.09622092 385.08069146 c 0
 299.147323677 349.012161098 291 337.805863195 291 240 c 0
 291 213.855528292 269.146366075 192 243 192 c 0
 216.853633925 192 195 213.855528292 195 240 c 0
 195 350.008440972 220.265195964 410.384584467 291.856456195 462.884841971 c 0
 336.708736763 494.922185233 349 507.094774829 349 560 c 0
 349 617.170488598 315.227595307 648 243 648 c 0
 180.148858173 648 138 617.592838144 138 536 c 0
 138 509.853633925 116.144471708 488 90 488 c 0
EndSplineSet
EndChar

StartChar: at
Encoding: 64 64 32
Width: 704
VWidth: 0
Flags: HW
LayerCount: 2
Fore
SplineSet
504.372842328 94.336966075 m 0
 508.77066316 86.8606706594 510.85582745 78.5716869985 510.85582745 70.3480699458 c 0
 510.85582745 53.7843189021 502.396576467 37.4857520205 487.336966075 28.6271576724 c 0
 446.13143043 4.38860729296 400.117785595 -8 352 -8 c 0
 171.373048859 -8 42 169.778636661 42 368 c 0
 42 566.221191604 171.373193463 744 352 744 c 0
 532.626951141 744 662 566.221363339 662 368 c 0
 662 364.691909694 662.005480548 361.366584731 662.005480548 358.023186703 c 0
 662.005480548 316.608695679 661.164564846 272.421137958 638.649978555 223.867026536 c 0
 617.188147527 177.815769883 568.710616835 152 525 152 c 0
 494.625229275 152 463.000337841 163.709847537 438.906940051 184.461420872 c 1
 414.461025779 158.983348054 382.859568985 142 344 142 c 0
 237.136448516 142 184 262.406001564 184 368 c 0
 184 473.594540712 237.136244282 594 344 594 c 0
 369.957782966 594 392.676714339 586.422238478 412.187541382 573.796603706 c 1
 420.919879429 582.532958607 432.923037928 588 446 588 c 0
 472.146366075 588 494 566.144471708 494 540 c 2
 494 272 l 2
 494 264.803480962 507.980695386 248 525 248 c 0
 532.815120932 248 547.937669553 256.127406225 552.393552093 266.067451891 c 0
 563.86060062 290.350613476 566 324.955016944 566 368 c 0
 566 531.778636661 461.373048859 648 352 648 c 0
 242.626806537 648 138 531.778808396 138 368 c 0
 138 204.221363339 242.626951141 88 352 88 c 0
 383.882214405 88 411.86856957 95.611392707 438.663033925 111.372842328 c 0
 446.139549134 115.77079245 454.428428903 117.855894045 462.651805437 117.855894045 c 0
 479.21613929 117.855894045 495.514700454 109.39580726 504.372842328 94.336966075 c 0
398 433.518042059 m 1
 382.273584944 482.819650877 355.896874975 498 344 498 c 0
 326.863755718 498 280 458.405459288 280 368 c 0
 280 277.593998436 326.863551484 238 344 238 c 0
 355.89805177 238 382.27328854 253.179123501 398 302.481948041 c 1
 398 433.518042059 l 1
EndSplineSet
EndChar

StartChar: A
Encoding: 65 65 33
Width: 550
VWidth: 0
Flags: HW
AnchorPoint: "above" 275 784 basechar 0
LayerCount: 2
Fore
SplineSet
64.272488815 1.71814114542 m 0
 43.184237825 7.51741016765 29.0451727028 27.2668653655 29.0451727028 48.326995716 c 0
 29.0451727028 52.4418909055 29.5849518968 56.6068230083 30.7181411454 60.727511185 c 2
 206.718141145 700.727511185 l 2
 212.751243084 722.666063689 234.939826696 736 253 736 c 2
 275 736 l 1
 298 736 l 2
 320.752986726 736 339.493086819 718.14122768 344.281858855 700.727511185 c 2
 520.281858855 60.727511185 l 2
 521.415006588 56.6069739734 521.954777399 52.4421054816 521.954777399 48.327214031 c 0
 521.954777399 27.2680045301 507.817142581 7.51778977932 486.727511185 1.71814114542 c 0
 482.606823008 0.584951896835 478.441890905 0.0451727028165 474.326995716 0.0451727028165 c 0
 453.266865365 0.0451727028165 433.517410168 14.184237825 427.718141145 35.272488815 c 2
 397.81807557 144 l 1
 153.18192443 144 l 1
 123.281858855 35.272488815 l 2
 117.482210221 14.182857419 97.7319954699 0.0452226012618 76.672785969 0.0452226012618 c 0
 72.5578945184 0.0452226012618 68.3930260266 0.584993412235 64.272488815 1.71814114542 c 0
179.58192443 240 m 1
 371.41807557 240 l 1
 275.5 588.793002071 l 1
 179.58192443 240 l 1
EndSplineSet
EndChar

StartChar: B
Encoding: 66 66 34
Width: 556
VWidth: 0
Flags: HW
AnchorPoint: "above" 278 784 basechar 0
LayerCount: 2
Fore
SplineSet
163 436 m 1
 320 436 l 2
 331.326955756 436 340.903326821 438.330193408 349.592144905 442.426841297 c 0
 377.061287569 455.378131589 400 491.368298072 400 538 c 0
 400 600.255234158 362.94300454 640 320 640 c 2
 163 640 l 1
 163 436 l 1
440.879984502 392.207512011 m 1
 488.347818392 346.772358742 509 279.313879784 509 218 c 0
 509 127.998975898 457.670293583 0 333 0 c 2
 115 0 l 2
 94.3985836813 0 67 18.9455273174 67 48 c 2
 67 389 l 1
 67 688 l 2
 67 708.601416319 85.9455273174 736 115 736 c 2
 320 736 l 2
 431.05699546 736 496 635.744765842 496 538 c 0
 496 483.488124746 476.929770651 430.53204461 440.879984502 392.207512011 c 1
328.378670212 340.199905758 m 0
 325.598715483 340.079301815 322.515988873 340 320 340 c 2
 163 340 l 1
 163 96 l 1
 333 96 l 2
 374.329706417 96 413 148.001024102 413 218 c 0
 413 287.978762997 374.313588511 340 333 340 c 0
 331.953551477 340 329.919725453 340.098899661 328.378670212 340.199905758 c 0
EndSplineSet
EndChar

StartChar: C
Encoding: 67 67 35
Width: 547
VWidth: 0
Flags: HW
AnchorPoint: "bottom" 294 40 basechar 0
AnchorPoint: "above" 294 784 basechar 0
LayerCount: 2
Fore
SplineSet
451 248 m 0
 477.144471708 248 499 226.146366075 499 200 c 0
 499 159.484660548 445.489535017 -8 294 -8 c 0
 138.668629747 -8 48 180.920924977 48 368 c 0
 48 554.924155801 137.668350959 744 294 744 c 0
 443.778033218 744 484.275576654 588.77451379 484.275576654 588.77451379 c 1
 485.3758536 584.518418832 485.899647604 580.279481113 485.899647604 576.133870173 c 0
 485.899647604 554.821500526 472.056115281 535.975696475 451.527995864 529.945756679 c 0
 447.136296786 528.655736852 442.679243058 528.040176643 438.274588738 528.040176643 c 0
 418.091372706 528.040176643 399.008386608 540.96508925 392.355150037 561.148001457 c 0
 388.921194258 572.188285925 359.87756819 648 294 648 c 0
 230.331649041 648 144 543.075844199 144 368 c 0
 144 193.079075023 231.331370253 88 294 88 c 0
 354.517292489 88 397.890084063 172.82398524 403.005645352 201.657488729 c 0
 404.666854434 227.002641551 424.854679332 248 451 248 c 0
EndSplineSet
EndChar

StartChar: D
Encoding: 68 68 36
Width: 556
VWidth: 0
Flags: HW
HStem: 48 21G<115.2 307.2> 668 20G<115.2 307.2>
VStem: 115 346<226.215 509.777>
AnchorPoint: "above" 278 784 basechar 0
LayerCount: 2
Fore
SplineSet
67 48 m 2
 67 688 l 2
 67 717.054472683 94.3985836813 736 115 736 c 2
 282 736 l 2
 368.652938509 736 509 639.590936298 509 368 c 0
 509 96.4090817445 368.653156099 0 282 0 c 2
 115 0 l 2
 85.9455273174 0 67 27.3985836813 67 48 c 2
163 96 m 1
 282 96 l 2
 297.346843901 96 413 127.590918255 413 368 c 0
 413 608.409063702 297.347061491 640 282 640 c 2
 163 640 l 1
 163 96 l 1
EndSplineSet
EndChar

StartChar: E
Encoding: 69 69 37
Width: 556
VWidth: 0
Flags: HW
AnchorPoint: "bottom" 278 48 basechar 0
AnchorPoint: "above" 278 784 basechar 0
LayerCount: 2
Fore
SplineSet
496 688 m 0
 496 661.855528292 474.146366075 640 448 640 c 2
 163 640 l 1
 163 436 l 1
 346 436 l 2
 372.144471708 436 394 414.146366075 394 388 c 0
 394 361.853633925 372.144471708 340 346 340 c 2
 163 340 l 1
 163 96 l 1
 461 96 l 2
 487.144471708 96 509 74.1463660754 509 48 c 0
 509 21.8536339246 487.144471708 0 461 0 c 2
 115 0 l 2
 94.3985836813 0 67 18.9455273174 67 48 c 2
 67 688 l 2
 67 708.601416319 85.9455273174 736 115 736 c 2
 448 736 l 2
 474.146366075 736 496 714.144471708 496 688 c 0
EndSplineSet
EndChar

StartChar: F
Encoding: 70 70 38
Width: 531
VWidth: 0
Flags: HW
AnchorPoint: "above" 266 784 basechar 0
LayerCount: 2
Fore
SplineSet
115 0 m 0
 88.8555282921 0 67 21.8536339246 67 48 c 2
 67 688 l 2
 67 717.054472683 94.3985836813 736 115 736 c 2
 435 736 l 2
 461.144471708 736 483 714.146366075 483 688 c 0
 483 661.853633925 461.144471708 640 435 640 c 2
 163 640 l 1
 163 436 l 1
 352 436 l 2
 378.144471708 436 400 414.146366075 400 388 c 0
 400 361.853633925 378.144471708 340 352 340 c 2
 163 340 l 1
 163 48 l 2
 163 21.8536339246 141.144471708 0 115 0 c 0
EndSplineSet
EndChar

StartChar: G
Encoding: 71 71 39
Width: 537
VWidth: 0
Flags: HW
AnchorPoint: "above" 294 784 basechar 0
LayerCount: 2
Fore
SplineSet
451.527995864 529.945756679 m 0
 447.201937451 528.675018173 442.862856049 528.082139801 438.602671702 528.082139801 c 0
 417.592790085 528.082139801 398.501803485 542.501833447 392.355150037 561.148001457 c 0
 388.647040105 573.069700839 359.543390621 648 294 648 c 0
 230.327086921 648 144 543.092076348 144 368 c 0
 144 193.092873734 231.33476602 88 294 88 c 0
 345.211848242 88 380.895383255 137.806908323 394 162.853274799 c 1
 394 296 l 1
 307 296 l 2
 280.855528292 296 259 317.853633925 259 344 c 0
 259 370.146366075 280.855528292 392 307 392 c 2
 442 392 l 2
 462.601416319 392 490 373.054472683 490 344 c 2
 490 152 l 2
 490 146.523729382 488.741594695 139.432850218 486.367226563 133.681997733 c 2
 486.367226563 133.681997733 434.059110016 -8 294 -8 c 0
 138.66523398 -8 48 180.907126266 48 368 c 0
 48 554.907923652 137.672913079 744 294 744 c 0
 443.034721761 744 484.006000427 589.692249817 484.275576654 588.77451379 c 0
 485.288823279 584.855069812 485.779943764 580.843124922 485.779943764 576.841046821 c 0
 485.779943764 556.416884066 472.988915603 536.249697696 451.527995864 529.945756679 c 0
EndSplineSet
EndChar

StartChar: H
Encoding: 72 72 40
Width: 569
VWidth: 0
Flags: HW
AnchorPoint: "above" 285 784 basechar 0
LayerCount: 2
Fore
SplineSet
454 736 m 0
 480.144471708 736 502 714.146366075 502 688 c 2
 502 48 l 2
 502 21.8555282921 480.146366075 0 454 0 c 0
 427.853633925 0 406 21.8555282921 406 48 c 2
 406 340 l 1
 163 340 l 1
 163 48 l 2
 163 21.8536339246 141.144471708 0 115 0 c 0
 88.8555282921 0 67 21.8536339246 67 48 c 2
 67 688 l 2
 67 714.144471708 88.8536339246 736 115 736 c 0
 141.146366075 736 163 714.144471708 163 688 c 2
 163 436 l 1
 406 436 l 1
 406 688 l 2
 406 714.146366075 427.855528292 736 454 736 c 0
EndSplineSet
EndChar

StartChar: I
Encoding: 73 73 41
Width: 268
VWidth: 0
Flags: HW
AnchorPoint: "above" 134 784 basechar 0
LayerCount: 2
Fore
SplineSet
134 736 m 0
 160.144471708 736 182 714.146366075 182 688 c 2
 182 48 l 2
 182 21.8555282921 160.146366075 0 134 0 c 0
 107.853633925 0 86 21.8555282921 86 48 c 2
 86 688 l 2
 86 714.146366075 107.855528292 736 134 736 c 0
EndSplineSet
EndChar

StartChar: J
Encoding: 74 74 42
Width: 435
VWidth: 0
Flags: HW
AnchorPoint: "above" 218 784 basechar 0
LayerCount: 2
Fore
SplineSet
77 328 m 0
 103.144471708 328 125 306.146366075 125 280 c 2
 125 216 l 2
 125 130.118218166 172.511795788 88 198 88 c 0
 218.967948068 88 272 136.518057425 272 240 c 2
 272 688 l 2
 272 714.144471708 293.853633925 736 320 736 c 0
 346.146366075 736 368 714.144471708 368 688 c 2
 368 240 l 2
 368 123.481942575 311.032051932 -8 198 -8 c 0
 89.4882042118 -8 29 107.881781834 29 216 c 2
 29 280 l 2
 29 306.146366075 50.8555282921 328 77 328 c 0
EndSplineSet
EndChar

StartChar: K
Encoding: 75 75 43
Width: 537
VWidth: 0
Flags: HW
AnchorPoint: "above" 269 784 basechar 0
LayerCount: 2
Fore
SplineSet
484.686431789 6.25131200719 m 0
 477.374791772 2.10299811181 469.333891251 0.138631278424 461.359717545 0.138631278424 c 0
 444.533852703 0.138631278424 428.005074963 8.88456135753 419.251312007 24.3135682113 c 2
 234.428934916 350.073557057 l 1
 163 262.459818157 l 1
 163 48 l 2
 163 21.8555282921 141.146366075 0 115 0 c 0
 88.8536339246 0 67 21.8555282921 67 48 c 2
 67 688 l 2
 67 714.146366075 88.8555282921 736 115 736 c 0
 141.144471708 736 163 714.146366075 163 688 c 2
 163 414.386103293 l 1
 410.797031756 718.330498741 l 2
 420.175478213 729.83397083 434.138212769 735.815327782 448.165158821 735.815327782 c 0
 458.848732231 735.815327782 469.569555069 732.345510991 478.330498741 725.202968244 c 0
 489.833491098 715.824912898 495.815360706 701.861989167 495.815360706 687.834541816 c 0
 495.815360706 677.151346482 492.345740122 666.43072598 485.202968244 657.669501259 c 2
 299.51171712 429.903193235 l 1
 502.748687993 71.6864317887 l 2
 506.89712385 64.3745768071 508.861437088 56.3337681397 508.861437088 48.3598192153 c 0
 508.861437088 31.5333609128 500.11463557 15.004619334 484.686431789 6.25131200719 c 0
EndSplineSet
EndChar

StartChar: L
Encoding: 76 76 44
Width: 524
VWidth: 0
Flags: HW
AnchorPoint: "above" 262 784 basechar 0
LayerCount: 2
Fore
SplineSet
115 736 m 0
 141.144471708 736 163 714.146366075 163 688 c 2
 163 96 l 1
 448 96 l 2
 474.144471708 96 496 74.1463660754 496 48 c 0
 496 21.8536339246 474.144471708 0 448 0 c 2
 115 0 l 2
 94.3985836813 0 67 18.9455273174 67 48 c 2
 67 688 l 2
 67 714.146366075 88.8555282921 736 115 736 c 0
EndSplineSet
EndChar

StartChar: M
Encoding: 77 77 45
Width: 664
VWidth: 0
Flags: HW
AnchorPoint: "above" 332 784 basechar 0
LayerCount: 2
Fore
SplineSet
115 0 m 0
 88.8555282921 0 67 21.8536339246 67 48 c 2
 67 688 l 2
 67 717.054472683 94.3985836813 736 115 736 c 2
 131 736 l 1
 147 736 l 2
 168.36400984 736 187.372377501 721.079210478 193.092884762 701.395744634 c 2
 332.875734396 220.422498583 l 1
 471.887854394 701.329292089 l 2
 477.820323301 721.852427768 497.415611747 736 518 736 c 2
 533 736 l 1
 550 736 l 2
 579.054472683 736 598 708.601416319 598 688 c 2
 598 48 l 2
 598 21.8555282921 576.146366075 0 550 0 c 0
 523.853633925 0 502 21.8555282921 502 48 c 2
 502 459.796258246 l 1
 379.112145606 34.6707079107 l 2
 375.10466651 20.8069964414 364.124293725 8.44979188647 349.970765541 3.10018800774 c 0
 344.538462573 1.0469424385 338.940236868 0.0799438435466 333.414795322 0.0799438435466 c 0
 312.688593651 0.0799438435466 292.986491894 13.685970099 286.907115238 34.604255366 c 2
 163 460.95131855 l 1
 163 48 l 2
 163 21.8536339246 141.144471708 0 115 0 c 0
EndSplineSet
EndChar

StartChar: N
Encoding: 78 78 46
Width: 576
VWidth: 0
Flags: HW
AnchorPoint: "above" 288 784 basechar 0
LayerCount: 2
Fore
SplineSet
115 0 m 0
 88.8555282921 0 67 21.8536339246 67 48 c 2
 67 688 l 2
 67 717.054472683 94.3985836813 736 115 736 c 2
 130 736 l 1
 147 736 l 2
 166.619180648 736 184.175379371 722.357177573 190.772232248 707.697504512 c 2
 413 213.858020619 l 1
 413 688 l 2
 413 714.144471708 434.853633925 736 461 736 c 0
 487.146366075 736 509 714.144471708 509 688 c 2
 509 48 l 2
 509 27.3985836813 490.054472683 0 461 0 c 2
 448 0 l 1
 435 0 l 2
 418.924413474 0 399.278786488 10.4113427412 391.227767752 28.3024954882 c 2
 163 535.475312714 l 1
 163 48 l 2
 163 21.8536339246 141.144471708 0 115 0 c 0
EndSplineSet
EndChar

StartChar: O
Encoding: 79 79 47
Width: 588
VWidth: 0
Flags: HW
HStem: 40 656<226.183 362.617>
VStem: 96 397<233.016 502.984>
AnchorPoint: "middle" 294 368 basechar 0
AnchorPoint: "above" 294 784 basechar 0
LayerCount: 2
Fore
SplineSet
541 368 m 0
 541 180.786111152 450.150689332 -8 294 -8 c 0
 137.672913079 -8 48 181.092076348 48 368 c 0
 48 554.924155801 137.668350959 744 294 744 c 0
 450.145803211 744 541 555.195196805 541 368 c 0
445 368 m 0
 445 542.804803195 357.854196789 648 294 648 c 0
 230.331649041 648 144 543.075844199 144 368 c 0
 144 192.907923652 230.327086921 88 294 88 c 0
 357.849310668 88 445 193.213888848 445 368 c 0
EndSplineSet
EndChar

StartChar: P
Encoding: 80 80 48
Width: 544
VWidth: 0
Flags: HW
AnchorPoint: "above" 272 784 basechar 0
LayerCount: 2
Fore
SplineSet
163 400 m 1
 307 400 l 2
 355.776087655 400 400 428.927538094 400 520 c 0
 400 611.072157549 355.776706881 640 307 640 c 2
 163 640 l 1
 163 400 l 1
163 304 m 1
 163 48 l 2
 163 21.8536339246 141.144471708 0 115 0 c 0
 88.8555282921 0 67 21.8536339246 67 48 c 2
 67 351 l 1
 67 688 l 2
 67 717.054472683 94.3985836813 736 115 736 c 2
 307 736 l 2
 412.223293119 736 496 652.927842451 496 520 c 0
 496 387.072461906 412.223912345 304 307 304 c 2
 163 304 l 1
EndSplineSet
EndChar

StartChar: Q
Encoding: 81 81 49
Width: 588
VWidth: 0
Flags: HW
HStem: 40 656<226.183 362.617>
VStem: 96 397<233.016 502.984>
AnchorPoint: "above" 294 784 basechar 0
LayerCount: 2
Fore
SplineSet
297.307527901 196.990881028 m 0
 306.499202779 210.508049967 321.81240094 217.83508091 337.283683517 217.83508091 c 0
 346.557395242 217.83508091 355.887906349 215.202494881 363.990881028 209.692472099 c 0
 380.012139737 198.798016177 392.291216445 187.777735925 401.764344876 176.886388891 c 1
 427.185565815 224.173768168 445 288.976270359 445 368 c 0
 445 542.804803195 357.854196789 648 294 648 c 0
 230.331649041 648 144 543.075844199 144 368 c 0
 144 192.907923652 230.327086921 88 294 88 c 0
 301.608572252 88 309.548028324 89.4940563768 317.631465883 92.4218578051 c 1
 311.55265968 114.53747664 310.009118972 130.307527901 310.009118972 130.307527901 c 0
 296.491314891 139.499634676 289.164974558 154.812732493 289.164974558 170.283470578 c 0
 289.164974558 179.557486127 291.79767024 188.888149174 297.307527901 196.990881028 c 0
442.7468839 63.817916236 m 1
 446.416461141 56.7873168858 452.423744794 52.1050957695 463.256795198 50.4482762959 c 0
 486.733752132 46.8576828826 503.985683563 25.9755782456 503.985683563 2.80571863825 c 0
 503.985683563 0.469677095052 503.810314879 -1.88961984883 503.448276296 -4.2567951982 c 0
 499.857432853 -27.7353869406 478.974103204 -44.9856614338 455.805483706 -44.9856614338 c 0
 453.469495198 -44.9856614338 451.110274915 -44.8102987838 448.743204802 -44.4482762959 c 0
 409.968989575 -38.5181022024 381.866184794 -19.0801088337 361.556180854 4.79755377859 c 1
 340.656437889 -3.5006874842 318.106378176 -8 294 -8 c 0
 137.672913079 -8 48 181.092076348 48 368 c 0
 48 554.924155801 137.668350959 744 294 744 c 0
 450.145803211 744 541 555.195196805 541 368 c 0
 541 252.185879928 506.232894868 135.770086406 442.7468839 63.817916236 c 1
EndSplineSet
EndChar

StartChar: R
Encoding: 82 82 50
Width: 563
VWidth: 0
Flags: HW
AnchorPoint: "above" 282 784 basechar 0
LayerCount: 2
Fore
SplineSet
163 432 m 1
 326 432 l 2
 382.117627467 432 419 449.619280771 419 536 c 0
 419 622.293360041 382.171622052 640 326 640 c 2
 163 640 l 1
 163 432 l 1
163 336 m 1
 163 48 l 2
 163 21.8536339246 141.144471708 0 115 0 c 0
 88.8555282921 0 67 21.8536339246 67 48 c 2
 67 383 l 1
 67 688 l 2
 67 717.054472683 94.3985836813 736 115 736 c 2
 326 736 l 2
 423.828377948 736 515 673.706639959 515 536 c 0
 515 436.507585381 467.376229408 376.339548427 404.002352148 350.637412073 c 1
 503.357721557 63.7059573152 l 2
 505.104657569 58.6609265909 505.931922752 53.4868552411 505.931922752 48.3739614995 c 0
 505.931922752 28.4474342323 493.366576865 9.45013476505 473.705957315 2.64227844331 c 0
 468.661095344 0.895400865208 463.48705924 0.0681395255325 458.374119389 0.0681395255325 c 0
 438.448389077 0.0681395255325 419.450559906 12.6321953582 412.642278443 32.2940426848 c 2
 307.478424567 336 l 1
 163 336 l 1
EndSplineSet
EndChar

StartChar: S
Encoding: 83 83 51
Width: 537
VWidth: 0
Flags: HW
AnchorPoint: "bottom" 269 40 basechar 0
AnchorPoint: "above" 269 784 basechar 0
LayerCount: 2
Fore
SplineSet
441.465577946 529.646905535 m 0
 437.568464687 528.598868297 433.667712638 528.11162685 429.831339084 528.11162685 c 0
 408.251489353 528.11162685 388.70866236 543.528605801 383.308891827 561.271018443 c 0
 379.840496288 573.023864773 355.484261414 648 269 648 c 0
 200.07572041 648 157 611.207251563 157 544 c 0
 157 506.167012263 167.799648616 453.867454897 290.775103257 431.191129928 c 0
 440.674545079 403.084984586 490 302.403666906 490 216 c 0
 490 97.6713272065 406.145675078 -8 269 -8 c 0
 104.067539842 -8 51.1079128473 150.974058417 50.4837218518 152.73941114 c 0
 48.8695025832 157.828843654 48.1058325168 162.939038446 48.1058325168 167.928608514 c 0
 48.1058325168 188.166483524 60.6692946522 206.419909714 79.9989847575 213.254475041 c 0
 85.1480840464 215.075086508 90.4428592764 215.94000253 95.6774662879 215.94000253 c 0
 114.932226214 215.94000253 133.372890922 204.237412432 140.754727847 185.350266211 c 0
 144.28644964 175.868701219 181.069006991 88 269 88 c 0
 349.854324922 88 394 142.328672794 394 216 c 0
 394 265.596333094 379.325454921 316.915015414 273.224896743 336.808870072 c 0
 114.200351384 366.132545103 61 461.832987737 61 544 c 0
 61 668.792748437 157.92427959 744 269 744 c 0
 433.629202261 744 474.401918985 592.002529933 475.557047727 587.707198264 c 0
 476.393673445 584.133840548 476.79956243 580.494347384 476.79956243 576.864435411 c 0
 476.79956243 556.055856516 463.46127961 535.562133779 441.465577946 529.646905535 c 0
EndSplineSet
EndChar

StartChar: T
Encoding: 84 84 52
Width: 550
VWidth: 0
Flags: HW
AnchorPoint: "bottom" 275 48 basechar 0
AnchorPoint: "above" 275 784 basechar 0
LayerCount: 2
Fore
SplineSet
29 688 m 0
 29 714.144471708 50.8536339246 736 77 736 c 2
 474 736 l 2
 500.144471708 736 522 714.146366075 522 688 c 0
 522 661.853633925 500.144471708 640 474 640 c 2
 323 640 l 1
 323 48 l 2
 323 21.8555282921 301.146366075 0 275 0 c 0
 248.853633925 0 227 21.8555282921 227 48 c 2
 227 640 l 1
 77 640 l 2
 50.8536339246 640 29 661.855528292 29 688 c 0
EndSplineSet
EndChar

StartChar: U
Encoding: 85 85 53
Width: 569
VWidth: 0
Flags: HW
AnchorPoint: "above" 285 784 basechar 0
LayerCount: 2
Fore
SplineSet
454 736 m 0
 480.144471708 736 502 714.146366075 502 688 c 2
 502 216 l 2
 502 94.3401922003 407.247885602 -8 285 -8 c 0
 163.021609626 -8 67 93.9599601327 67 216 c 2
 67 688 l 2
 67 714.144471708 88.8536339246 736 115 736 c 0
 141.146366075 736 163 714.144471708 163 688 c 2
 163 216 l 2
 163 144.040039867 218.978390374 88 285 88 c 0
 350.752114398 88 406 143.6598078 406 216 c 2
 406 688 l 2
 406 714.146366075 427.855528292 736 454 736 c 0
EndSplineSet
EndChar

StartChar: V
Encoding: 86 86 54
Width: 550
VWidth: 0
Flags: HW
AnchorPoint: "above" 275 784 basechar 0
LayerCount: 2
Fore
SplineSet
63.2073014928 733.975661691 m 0
 67.6616542324 735.311967512 72.1847141883 735.946992415 76.6533867698 735.946992415 c 0
 97.3070809185 735.946992415 116.798961331 722.381699706 122.975661691 701.792698507 c 2
 275.5 193.378237476 l 1
 428.024338309 701.792698507 l 2
 434.200640663 722.380373019 453.691845987 735.947047153 474.346413036 735.947047153 c 0
 478.815073084 735.947047153 483.338188063 735.312014824 487.792698507 733.975661691 c 0
 508.381699706 727.798961331 521.946992415 708.307080919 521.946992415 687.65338677 c 0
 521.946992415 683.184714188 521.311967512 678.661654232 519.975661691 674.207301493 c 2
 327.975661691 34.2073014928 l 2
 322.233330093 15.0661961665 303.364320249 0 282 0 c 2
 269 0 l 2
 249.016099347 0 229.16333056 13.7439939924 223.024338309 34.2073014928 c 2
 31.0243383094 674.207301493 l 2
 29.6879851763 678.661811937 29.0529528465 683.184926916 29.0529528465 687.653586964 c 0
 29.0529528465 708.308154013 42.6196269815 727.799359337 63.2073014928 733.975661691 c 0
EndSplineSet
EndChar

StartChar: W
Encoding: 87 87 55
Width: 697
VWidth: 0
Flags: HW
AnchorPoint: "above" 349 784 basechar 0
LayerCount: 2
Fore
SplineSet
67.1632975858 734.981265262 m 0
 70.3638297057 735.651376675 73.5687508709 735.973139774 76.7373807938 735.973139774 c 0
 98.9032703254 735.973139774 119.293216431 720.227383396 123.981265262 697.836702414 c 2
 215.598284168 260.262880773 l 1
 298.849038985 696.988151943 l 2
 303.362696963 720.66635773 326.164679101 736 346 736 c 2
 352 736 l 2
 376.104575035 736 395.436734388 716.472619494 399.150961015 696.988151943 c 2
 482.077127464 261.965639424 l 1
 574.033507072 697.906994602 l 2
 578.749762593 720.265539295 599.124237592 735.972781225 621.264118125 735.972781225 c 0
 624.455597538 735.972781225 627.683761065 735.646393752 630.906994602 734.966492928 c 0
 653.267055923 730.249917493 668.972745483 709.874448843 668.972745483 687.735637613 c 0
 668.972745483 684.544195184 668.646366305 681.316108817 667.966492928 678.093005398 c 2
 532.966492928 38.093005398 l 2
 528.44550299 16.6601642107 508.652452934 0 486 0 c 2
 474 0 l 2
 454.164679101 0 431.362696963 15.3336422703 426.849038985 39.0118480565 c 2
 349 447.400249289 l 1
 271.150961015 39.0118480565 l 2
 267.436734388 19.5273805055 248.104575035 0 224 0 c 2
 211 0 l 2
 188.996313101 0 168.659552369 15.9981984511 164.018734738 38.1632975858 c 2
 30.018734738 678.163297586 l 2
 29.3485962048 681.363959237 29.0268248496 684.56895772 29.0268248496 687.737625254 c 0
 29.0268248496 709.904588212 44.774136499 730.293534659 67.1632975858 734.981265262 c 0
EndSplineSet
EndChar

StartChar: X
Encoding: 88 88 56
Width: 505
VWidth: 0
Flags: HW
AnchorPoint: "above" 253 784 basechar 0
LayerCount: 2
Fore
SplineSet
53.8679000109 5.94163638352 m 0
 38.1277001289 14.5987463186 29.1337448915 31.3201530381 29.1337448915 48.3684176865 c 0
 29.1337448915 56.1321054802 30.9989495425 63.96357846 34.9416363835 71.1320999891 c 2
 198.21898139 368 l 1
 34.9416363835 664.867900011 l 2
 30.9989495425 672.03642154 29.1337448915 679.86789452 29.1337448915 687.631582313 c 0
 29.1337448915 704.679846962 38.1277001289 721.401253681 53.8679000109 730.058363616 c 0
 61.0362104757 734.000934372 68.8677650873 735.866185527 76.6316642559 735.866185527 c 0
 93.6793258594 735.866185527 110.400795991 726.873132035 119.058363616 711.132099989 c 2
 253 467.601852019 l 1
 386.941636384 711.132099989 l 2
 395.598746319 726.872299871 412.320153038 735.866255108 429.368417687 735.866255108 c 0
 437.13210548 735.866255108 444.96357846 734.001050457 452.132099989 730.058363616 c 0
 467.873132035 721.400795991 476.866185527 704.679325859 476.866185527 687.631664256 c 0
 476.866185527 679.867765087 475.000934372 672.036210476 471.058363616 664.867900011 c 2
 307.78101861 368 l 1
 471.058363616 71.1320999891 l 2
 475.000934372 63.9637895243 476.866185527 56.1322349127 476.866185527 48.3683357441 c 0
 476.866185527 31.3206741406 467.873132035 14.5992040086 452.132099989 5.94163638352 c 0
 444.96357846 1.99894954251 437.13210548 0.133744891537 429.368417687 0.133744891537 c 0
 412.320153038 0.133744891537 395.598746319 9.12770012889 386.941636384 24.8679000109 c 2
 253 268.398147981 l 1
 119.058363616 24.8679000109 l 2
 110.400795991 9.1268679654 93.6793258594 0.13381447299 76.6316642559 0.13381447299 c 0
 68.8677650873 0.13381447299 61.0362104757 1.99906562792 53.8679000109 5.94163638352 c 0
EndSplineSet
EndChar

StartChar: Y
Encoding: 89 89 57
Width: 524
VWidth: 0
Flags: HW
AnchorPoint: "middle" 262 368 basechar 0
AnchorPoint: "above" 262 784 basechar 0
LayerCount: 2
Fore
SplineSet
52.0468257008 729.004135065 m 0
 59.6753319216 733.6464826 68.2018137397 735.850712431 76.6644916423 735.850712431 c 0
 92.9780078833 735.850712431 109.054426683 727.659722126 118.004135065 712.953174299 c 2
 262.110442666 476.151458025 l 1
 407.055794939 713.051388623 l 2
 416.018830319 727.70065075 432.059498752 735.849974997 448.333518419 735.849974997 c 0
 456.834299094 735.849974997 465.398750239 733.62641144 473.051388623 728.944205061 c 0
 487.701383163 719.980721559 495.849910782 703.940078876 495.849910782 687.666630982 c 0
 495.849910782 679.165592554 493.626273508 670.601024323 488.944205061 662.948611377 c 2
 310 370.480663321 l 1
 310 48 l 2
 310 21.8555282921 288.146366075 0 262 0 c 0
 235.853633925 0 214 21.8555282921 214 48 c 2
 214 370.542733487 l 1
 35.9958649354 663.046825701 l 2
 31.3533806947 670.675556561 29.1492229986 679.201923102 29.1492229986 687.664345616 c 0
 29.1492229986 703.978435109 37.3410153183 720.054875457 52.0468257008 729.004135065 c 0
EndSplineSet
EndChar

StartChar: Z
Encoding: 90 90 58
Width: 505
VWidth: 0
Flags: HW
AnchorPoint: "above" 253 784 basechar 0
LayerCount: 2
Fore
SplineSet
35 688 m 0
 35 714.144471708 56.8536339246 736 83 736 c 2
 422 736 l 2
 448.354847908 736 469.996663789 713.865582227 469.996663789 687.910164833 c 0
 469.996663789 679.876215157 465.825532566 668.14252695 464.252008869 665.223526469 c 2
 157.404951632 96 l 1
 429 96 l 2
 455.144471708 96 477 74.1463660754 477 48 c 0
 477 21.8536339246 455.144471708 0 429 0 c 2
 77 0 l 2
 72.3819409166 0 63.636040003 1.42942224459 57.6087046021 4.09125755855 c 0
 39.7277605567 11.9879689809 29.137434223 29.97557728 29.137434223 48.4287581027 c 0
 29.137434223 56.0227600464 30.930962697 63.6956091901 34.7479911307 70.7764735311 c 2
 341.595048368 640 l 1
 83 640 l 2
 56.8536339246 640 35 661.855528292 35 688 c 0
EndSplineSet
EndChar

StartChar: bracketleft
Encoding: 91 91 59
Width: 249
VWidth: 0
Flags: HW
LayerCount: 2
Fore
SplineSet
234 768 m 0
 234 741.855528292 212.146366075 720 186 720 c 2
 138 720 l 1
 138 16 l 1
 186 16 l 2
 212.144471708 16 234 -5.85363392464 234 -32 c 0
 234 -58.1463660754 212.144471708 -80 186 -80 c 2
 90 -80 l 2
 69.3985836813 -80 42 -61.0544726826 42 -32 c 2
 42 768 l 2
 42 788.601416319 60.9455273174 816 90 816 c 2
 186 816 l 2
 212.146366075 816 234 794.144471708 234 768 c 0
EndSplineSet
EndChar

StartChar: backslash
Encoding: 92 92 60
Width: 460
VWidth: 0
Flags: HW
LayerCount: 2
Fore
SplineSet
390.29692724 4.04970308303 m 0
 384.184841775 1.36611555844 377.756033389 0.0993645493322 371.395724557 0.0993645493322 c 0
 352.845144069 0.0993645493322 334.877265357 10.8751729194 327.049703083 28.7030727599 c 2
 46.049703083 668.70307276 l 2
 43.3661155584 674.815158225 42.0993645493 681.243966611 42.0993645493 687.604275443 c 0
 42.0993645493 706.154855931 52.8751729194 724.122734643 70.7030727599 731.950296917 c 0
 76.8153462135 734.63396698 83.2441396882 735.900706334 89.604327474 735.900706334 c 0
 108.155593668 735.900706334 126.123189869 725.123790267 133.950296917 707.29692724 c 2
 414.950296917 67.2969272401 l 2
 417.63396698 61.1846537865 418.900706334 54.7558603118 418.900706334 48.395672526 c 0
 418.900706334 29.8444063316 408.123790267 11.8768101307 390.29692724 4.04970308303 c 0
EndSplineSet
EndChar

StartChar: bracketright
Encoding: 93 93 61
Width: 249
VWidth: 0
Flags: HW
LayerCount: 2
Fore
SplineSet
16 768 m 0
 16 794.144471708 37.8536339246 816 64 816 c 2
 160 816 l 2
 189.054472683 816 208 788.601416319 208 768 c 2
 208 -32 l 2
 208 -61.0544726826 180.601416319 -80 160 -80 c 2
 64 -80 l 2
 37.8555282921 -80 16 -58.1463660754 16 -32 c 0
 16 -5.85363392464 37.8555282921 16 64 16 c 2
 112 16 l 1
 112 720 l 1
 64 720 l 2
 37.8536339246 720 16 741.855528292 16 768 c 0
EndSplineSet
EndChar

StartChar: asciicircum
Encoding: 94 94 62
Width: 409
VWidth: 0
Flags: HW
LayerCount: 2
Fore
SplineSet
69.2582313393 404.712830621 m 0
 52.2024245325 412.885404716 42.1123570448 430.40126101 42.1123570448 448.391887784 c 0
 42.1123570448 455.271035464 43.5876244557 462.219599272 46.7128306212 468.741768661 c 2
 161.712830621 708.741768661 l 2
 169.930926384 725.89257721 187.482879779 735.849497711 205.413941364 735.849497711 c 0
 213.497024728 735.849497711 221.657146142 733.826165707 229.074017138 729.526397614 c 0
 237.526501841 724.626255216 245.119863222 715.3517989 248.287169379 708.741768661 c 2
 363.287169379 468.741768661 l 2
 366.412281598 462.219795333 367.887571158 455.271192627 367.887571158 448.391890652 c 0
 367.887571158 430.401914686 357.798534785 412.885864389 340.741768661 404.712830621 c 0
 334.219599272 401.587624456 327.271035464 400.112357045 320.391887784 400.112357045 c 0
 302.40126101 400.112357045 284.885404716 410.202424533 276.712830621 427.258231339 c 2
 205 576.919790897 l 1
 133.287169379 427.258231339 l 2
 125.114135611 410.201465215 107.598085314 400.112428842 89.6081093481 400.112428842 c 0
 82.7288073731 400.112428842 75.7802046672 401.587718402 69.2582313393 404.712830621 c 0
EndSplineSet
EndChar

StartChar: underscore
Encoding: 95 95 63
Width: 460
VWidth: 0
Flags: HW
LayerCount: 2
Fore
SplineSet
-10 -96 m 0
 -10 -69.8555282921 11.8536339246 -48 38 -48 c 2
 422 -48 l 2
 448.144471708 -48 470 -69.8536339246 470 -96 c 0
 470 -122.146366075 448.144471708 -144 422 -144 c 2
 38 -144 l 2
 11.8536339246 -144 -10 -122.144471708 -10 -96 c 0
EndSplineSet
EndChar

StartChar: grave
Encoding: 96 96 64
Width: 307
VWidth: 0
Flags: HW
LayerCount: 2
Fore
SplineSet
64.8433235681 728.879599202 m 0
 72.5212541188 733.604479541 81.1267242801 735.849055845 89.6689662239 735.849055845 c 0
 105.899401891 735.849055845 121.901578744 727.745959676 130.879599202 713.156676432 c 2
 258.879599202 505.156676432 l 2
 263.604479541 497.478745881 265.849055845 488.87327572 265.849055845 480.331033776 c 0
 265.849055845 464.100598109 257.745959676 448.098421256 243.156676432 439.120400798 c 0
 235.478519579 434.395381196 226.87316844 432.150880328 218.331186781 432.150880328 c 0
 202.100180915 432.150880328 186.097973853 440.254767354 177.120400798 454.843323568 c 2
 49.1204007982 662.843323568 l 2
 44.3953811963 670.521480421 42.1508803283 679.12683156 42.1508803283 687.668813219 c 0
 42.1508803283 703.899819085 50.2547673542 719.902026147 64.8433235681 728.879599202 c 0
EndSplineSet
EndChar

StartChar: a
Encoding: 97 97 65
Width: 470
VWidth: 0
Flags: HW
AnchorPoint: "above" 235 576 basechar 0
LayerCount: 2
Fore
SplineSet
355 528 m 1
 381.144471708 528 403 506.146366075 403 480 c 2
 403 48 l 2
 403 21.8555282921 381.146366075 0 355 0 c 0
 338.442322104 0 323.606155897 8.76470883731 314.9512573 21.8329273134 c 1
 290.068014734 3.25525025657 260.68542191 -8 227 -8 c 1
 104.286114244 -8 38 132.33091792 38 264 c 0
 38 395.670305103 104.285688876 536 227 536 c 0
 260.685194384 536 290.067765391 524.74464322 314.951056105 506.166873894 c 1
 323.606252728 519.235588296 338.443084826 528 355 528 c 1
307 178.491196309 m 1
 307 349.508806971 l 1
 286.280897559 414.782290147 249.981543252 440 227 440 c 0
 193.714311124 440 134 380.329694897 134 264 c 0
 134 147.66908208 193.713885756 88 227 88 c 0
 249.980946641 88 286.28107875 113.218406491 307 178.491196309 c 1
EndSplineSet
EndChar

StartChar: b
Encoding: 98 98 66
Width: 470
VWidth: 0
Flags: HW
LayerCount: 2
Fore
SplineSet
115 736 m 0
 141.144471708 736 163 714.146366075 163 688 c 2
 163 511.748583919 l 1
 186.122464502 526.974874092 212.83619952 536 243 536 c 0
 365.714311124 536 432 395.670305103 432 264 c 0
 432 132.33091792 365.713885756 -8 243 -8 c 0
 207.464594569 -8 176.717613841 4.52546110929 150.98976823 24.9593575218 c 1
 142.457065689 9.47975198394 126.311411653 -0.000459536787957 108.978215868 -0.000459536787957 c 0
 106.089616173 -0.000459536787957 103.168035289 0.262831129813 100.243212257 0.80552290329 c 0
 77.519270577 5.02187926978 61.055105449 25.1121171843 61.055105449 48.2691078026 c 0
 61.055105449 50.7164437938 61.2389973778 53.1980330293 61.6188266407 55.698757792 c 0
 62.0852242854 58.3520421705 67 85.5636481345 67 144 c 2
 67 688 l 2
 67 714.146366075 88.8555282921 736 115 736 c 0
163 349.508806971 m 1
 163 178.491196309 l 1
 183.71892125 113.218406491 220.019053359 88 243 88 c 0
 276.286114244 88 336 147.66908208 336 264 c 0
 336 380.329694897 276.285688876 440 243 440 c 0
 220.018456748 440 183.719102441 414.782290147 163 349.508806971 c 1
EndSplineSet
EndChar

StartChar: c
Encoding: 99 99 67
Width: 422
VWidth: 0
Flags: HW
AnchorPoint: "middle" 224 264 basechar 0
AnchorPoint: "bottom" 224 40 basechar 0
AnchorPoint: "above" 224 576 basechar 0
LayerCount: 2
Fore
SplineSet
355.279751764 177.957834022 m 0
 373.115668368 170.135063582 383.900860947 152.162226186 383.900860947 133.604327914 c 0
 383.900860947 127.250244567 382.636485251 120.827573037 379.957834022 114.720248236 c 0
 351.269411185 49.3106441674 297.922653649 -8 224 -8 c 0
 102.492087697 -8 38 133.092178857 38 264 c 0
 38 394.908793714 102.491582229 536 224 536 c 0
 291.15226192 536 343.094252291 487.952718613 372.756569746 429.814576401 c 0
 376.234827231 422.997191729 377.87788856 415.656093981 377.87788856 408.384025644 c 0
 377.87788856 390.814375239 368.286883689 373.647668666 351.814576401 365.243430254 c 0
 344.996989253 361.765069464 337.65594922 360.122040042 330.384060575 360.122040042 c 0
 312.813782199 360.122040042 295.64720847 369.714018295 287.243430254 386.185423599 c 0
 266.905747709 426.047281387 240.84773808 440 224 440 c 0
 193.508417771 440 134 381.091206286 134 264 c 0
 134 146.907821143 193.507912303 88 224 88 c 0
 242.077346351 88 270.730588815 104.689355833 292.042165978 153.279751764 c 0
 299.865391565 171.116706104 317.838512566 181.900790084 336.395724684 181.900790084 c 0
 342.749928691 181.900790084 349.172614858 180.636402841 355.279751764 177.957834022 c 0
EndSplineSet
EndChar

StartChar: d
Encoding: 100 100 68
Width: 473
VWidth: 0
Flags: HW
AnchorPoint: "above" 237 784 basechar 0
LayerCount: 2
Fore
SplineSet
358 736 m 0
 384.144471708 736 406 714.146366075 406 688 c 2
 406 144 l 2
 406 86.6179760923 411.531262145 60.0470809178 412.160330827 56.9451563737 c 0
 412.693722971 54.0215283357 412.950767313 51.1112007907 412.950767313 48.2409451254 c 0
 412.950767313 25.8394153263 397.293273931 5.87880754102 375.155408559 1.08659384564 c 0
 371.773365816 0.354478473261 368.384473124 0.00039889765051 365.036274349 0.00039889765051 c 0
 347.64285398 0.00039889765051 331.347622416 9.55578843001 322.815819354 25.3081120287 c 1
 296.772859202 4.64673680115 265.702092069 -8 230 -8 c 0
 107.023034108 -8 42 132.745772414 42 264 c 0
 42 395.253285004 107.023590072 536 230 536 c 0
 260.019557226 536 286.764804026 527.058631214 310 511.929611911 c 1
 310 688 l 2
 310 714.146366075 331.855528292 736 358 736 c 0
310 175.41865167 m 1
 310 352.581353399 l 1
 289.208873478 415.131086436 252.891611105 440 230 440 c 0
 196.976409928 440 138 380.746714996 138 264 c 0
 138 147.254227586 196.976965892 88 230 88 c 0
 252.891372471 88 289.208943873 112.869223583 310 175.41865167 c 1
EndSplineSet
EndChar

StartChar: e
Encoding: 101 101 69
Width: 435
VWidth: 0
Flags: HW
AnchorPoint: "bottom" 218 40 basechar 0
AnchorPoint: "above" 218 576 basechar 0
LayerCount: 2
Fore
SplineSet
141.944532214 336 m 1
 297.974992691 336 l 1
 294.886449492 356.704575311 289.956860646 374.054323053 280.045729241 394.573069455 c 0
 261.078820952 431.243679427 241.624393687 440 221 440 c 0
 199.240388455 440 159.785607903 412.285913051 141.944532214 336 c 1
134.828942938 240 m 1
 142.47489655 132.889705494 194.723530646 88 221 88 c 0
 273.308807635 88 301.146423068 138.862648245 305.889515218 149.115251104 c 0
 313.094056862 164.307461926 331.066453024 175.759844991 350.025444725 175.759844991 c 0
 356.068064908 175.759844991 362.210906215 174.596480009 368.137285509 172.020044336 c 0
 386.588158646 163.998706956 396.687318429 145.718252189 396.687318429 127.375677003 c 0
 396.687318429 121.32976147 395.590110902 115.277096961 393.33311965 109.582838762 c 0
 391.819431431 106.101016719 345.108129817 -8 221 -8 c 0
 101.495541304 -8 38 129.580627872 38 264 c 0
 38 275.053255283 38.4063167553 285.925568052 39.199793821 296.590164805 c 0
 48.1430577871 416.790619197 110.602548694 536 221 536 c 0
 282.549622185 536 334.690098451 498.70486014 365.952180947 437.431178447 c 0
 390.168299198 387.788136032 397 340.07185765 397 288 c 0
 397 258.945527317 369.601416319 240 349 240 c 2
 134.828942938 240 l 1
EndSplineSet
EndChar

StartChar: f
Encoding: 102 102 70
Width: 300
VWidth: 0
Flags: HW
AnchorPoint: "above" 150 784 basechar 0
LayerCount: 2
Fore
SplineSet
19 480 m 0
 19 506.144471708 40.8536339246 528 67 528 c 2
 96 528 l 1
 96 624 l 2
 96 709.378701398 164.281973742 752 214 752 c 0
 236.556548813 752 251.305810897 746.726028082 254.611413049 745.728863028 c 0
 275.417707246 738.701933962 287.995226243 719.87180514 287.995226243 699.922404919 c 0
 287.995226243 695.343294798 287.332555996 690.705213757 285.954623761 686.137368398 c 0
 279.763027841 665.612227922 260.194078185 652.029878947 239.645532746 652.029878947 c 0
 235.706950078 652.029878947 231.732378833 652.52886987 227.809120127 653.573605393 c 0
 223.715464462 654.728226222 219.297395883 655.883670683 214.147416134 656.001049139 c 0
 208.930150348 655.46038776 192 649.188704447 192 624 c 2
 192 528 l 1
 234 528 l 2
 260.144471708 528 282 506.146366075 282 480 c 0
 282 453.853633925 260.144471708 432 234 432 c 2
 192 432 l 1
 192 48 l 2
 192 21.8536339246 170.144471708 0 144 0 c 0
 117.855528292 0 96 21.8536339246 96 48 c 2
 96 432 l 1
 67 432 l 2
 40.8536339246 432 19 453.855528292 19 480 c 0
EndSplineSet
EndChar

StartChar: g
Encoding: 103 103 71
Width: 470
VWidth: 0
Flags: HW
LayerCount: 2
Fore
SplineSet
372.155408559 526.913406154 m 0
 395.340831668 521.894426217 409.88134011 500.32379433 409.88134011 479.113382259 c 0
 409.88134011 476.409673333 409.645074098 473.711817552 409.160330827 471.054843626 c 0
 408.386975577 467.24144503 403 440.795079917 403 384 c 2
 403 0 l 2
 403 -78.5262951273 365.844357339 -192 253 -192 c 0
 188.082599076 -192 148.00917309 -155.263200486 143.948478355 -151.739587124 c 0
 133.322536434 -141.891457914 128.067292174 -128.819830367 128.067292174 -115.837360832 c 0
 128.067292174 -104.628090104 131.985008615 -93.4852855176 139.746128143 -84.5411892246 c 0
 149.083919643 -73.7800991477 162.383277461 -68.1076137959 175.916050523 -68.1076137959 c 0
 186.664594277 -68.1076137959 197.560387886 -71.6860974893 206.735409327 -79.1356232645 c 0
 209.385220351 -81.2759906426 230.02438939 -96 253 -96 c 0
 280.155642661 -96 307 -65.4737048727 307 0 c 2
 307 16.2511057375 l 1
 283.877613324 1.02498484724 257.163911232 -8 227 -8 c 0
 104.286114244 -8 38 132.33091792 38 264 c 0
 38 395.670305103 104.285688876 536 227 536 c 0
 262.899343188 536 293.911845225 523.216371064 319.79946522 502.409695995 c 1
 328.133452987 517.464011171 344.316002855 527.975106276 362.287879512 527.975106276 c 0
 365.530665135 527.975106276 368.831706573 527.632892424 372.155408559 526.913406154 c 0
307 178.491196309 m 1
 307 349.508806971 l 1
 286.280897559 414.782290147 249.981543252 440 227 440 c 0
 193.714311124 440 134 380.329694897 134 264 c 0
 134 147.66908208 193.713885756 88 227 88 c 0
 249.980946641 88 286.28107875 113.218406491 307 178.491196309 c 1
EndSplineSet
EndChar

StartChar: h
Encoding: 104 104 72
Width: 467
VWidth: 0
Flags: HW
AnchorPoint: "above" 234 784 basechar 0
LayerCount: 2
Fore
SplineSet
115 736 m 0
 141.144471708 736 163 714.146366075 163 688 c 2
 163 508.457377537 l 1
 188.195590032 524.669726246 219.029213956 536 256 536 c 0
 345.742836101 536 400 445.525895835 400 352 c 2
 400 48 l 2
 400 21.8536339246 378.144471708 0 352 0 c 0
 325.855528292 0 304 21.8536339246 304 48 c 2
 304 352 l 2
 304 418.474104165 268.257163899 440 256 440 c 0
 213.38421632 440 175.315802873 384.323569865 163 363.122366501 c 1
 163 48 l 2
 163 21.8555282921 141.146366075 0 115 0 c 0
 88.8536339246 0 67 21.8555282921 67 48 c 2
 67 688 l 2
 67 714.146366075 88.8555282921 736 115 736 c 0
EndSplineSet
EndChar

StartChar: i
Encoding: 105 105 73
Width: 230
VWidth: 0
Flags: HW
LayerCount: 2
Fore
SplineSet
115 0 m 0
 88.8555282921 0 67 21.8536339246 67 48 c 2
 67 480 l 2
 67 506.144471708 88.8536339246 528 115 528 c 0
 141.146366075 528 163 506.144471708 163 480 c 2
 163 48 l 2
 163 21.8536339246 141.144471708 0 115 0 c 0
115 608 m 0
 88.8555282921 608 67 629.853633925 67 656 c 2
 67 704 l 2
 67 730.144471708 88.8536339246 752 115 752 c 0
 141.146366075 752 163 730.144471708 163 704 c 2
 163 656 l 2
 163 629.853633925 141.144471708 608 115 608 c 0
EndSplineSet
EndChar

StartChar: j
Encoding: 106 106 74
Width: 230
VWidth: 0
Flags: HW
LayerCount: 2
Fore
SplineSet
115 528 m 0
 141.144471708 528 163 506.146366075 163 480 c 2
 163 -64 l 2
 163 -114.465637702 134.435433087 -192 51 -192 c 0
 35.1276278754 -192 27.1237285199 -188.792969735 24.4897018823 -188.066341697 c 0
 3.11497713054 -181.410018011 -9.99739528689 -162.30712755 -9.99739528689 -141.938002581 c 0
 -9.99739528689 -137.724998165 -9.4364501868 -133.457824449 -8.27164567389 -129.23540809 c 0
 -2.46191854464 -108.175147246 17.2208499733 -94.0509091163 38.3111965825 -94.0509091163 c 0
 42.4617604839 -94.0509091163 46.6668397942 -94.5979399493 50.8314224856 -95.7467903469 c 0
 50.9490140152 -95.7750123141 51.3070488922 -95.8649794047 51.9320145035 -95.9840204735 c 0
 57.1929960604 -95.7714903964 67 -93.2027939635 67 -64 c 2
 67 480 l 2
 67 506.146366075 88.8555282921 528 115 528 c 0
115 608 m 0
 88.8555282921 608 67 629.853633925 67 656 c 2
 67 704 l 2
 67 730.144471708 88.8536339246 752 115 752 c 0
 141.146366075 752 163 730.144471708 163 704 c 2
 163 656 l 2
 163 629.853633925 141.144471708 608 115 608 c 0
EndSplineSet
EndChar

StartChar: k
Encoding: 107 107 75
Width: 422
VWidth: 0
Flags: HW
AnchorPoint: "above" 211 784 basechar 0
LayerCount: 2
Fore
SplineSet
355.034670623 3.93548690512 m 0
 348.998329185 1.32795165822 342.662863784 0.0970064980383 336.395612558 0.0970064980383 c 0
 317.743846247 0.0970064980383 299.696251602 10.9994646462 291.935486905 28.9653293774 c 2
 197.677299398 247.169322505 l 1
 163 199.914764259 l 1
 163 48 l 2
 163 21.8536339246 141.144471708 0 115 0 c 0
 88.8555282921 0 67 21.8536339246 67 48 c 2
 67 688 l 2
 67 714.144471708 88.8536339246 736 115 736 c 0
 141.146366075 736 163 714.144471708 163 688 c 2
 163 362.17849999 l 1
 270.301918087 508.398212202 l 2
 279.605954525 521.076769627 294.365491578 527.825639463 309.238379337 527.825639463 c 0
 319.093264168 527.825639463 328.997915457 524.862558231 337.398212202 518.698081913 c 0
 350.076202102 509.394461949 356.825686533 494.63478081 356.825686533 479.761366857 c 0
 356.825686533 469.906818129 353.862747249 460.002342116 347.698081913 451.601787798 c 2
 263.50309649 336.86976103 l 1
 380.064513095 67.0346706226 l 2
 382.672128935 60.9981426145 383.90306405 54.6626879713 383.90306405 48.3955519081 c 0
 383.90306405 29.7430930001 372.999484474 11.6957976505 355.034670623 3.93548690512 c 0
EndSplineSet
EndChar

StartChar: l
Encoding: 108 108 76
Width: 230
VWidth: 0
Flags: HW
AnchorPoint: "above" 115 784 basechar 0
LayerCount: 2
Fore
SplineSet
115 736 m 0
 141.144471708 736 163 714.146366075 163 688 c 2
 163 144 l 2
 163 86.6179760923 168.531262145 60.0470809178 169.160330827 56.9451563737 c 0
 169.693722971 54.0215283357 169.950767313 51.1112007907 169.950767313 48.2409451254 c 0
 169.950767313 25.8394153263 154.293273931 5.87880754102 132.155408559 1.08659384564 c 0
 128.773365816 0.354478473261 125.384473124 0.00039889765043 122.036274349 0.00039889765043 c 0
 100.65579813 0.00039889765043 80.9346863326 14.4386023785 75.2527186266 37.0771333469 c 0
 74.221320951 41.8417253162 67 76.0919199889 67 144 c 2
 67 688 l 2
 67 714.146366075 88.8555282921 736 115 736 c 0
EndSplineSet
EndChar

StartChar: m
Encoding: 109 109 77
Width: 691
VWidth: 0
Flags: HW
AnchorPoint: "above" 346 576 basechar 0
LayerCount: 2
Fore
SplineSet
115 0 m 0
 88.8555282921 0 67 21.8536339246 67 48 c 2
 67 480 l 2
 67 506.144471708 88.8536339246 528 115 528 c 0
 131.483031723 528 146.260038783 519.314140046 154.931310845 506.343554319 c 1
 179.991597889 523.701189802 211.375937235 536 250 536 c 0
 294.31099685 536 329.970790823 513.942933538 354.71976938 480.352234587 c 1
 383.078797998 510.057369004 423.903803761 536 480 536 c 0
 569.742836101 536 624 445.525895835 624 352 c 2
 624 48 l 2
 624 21.8536339246 602.144471708 0 576 0 c 0
 549.855528292 0 528 21.8536339246 528 48 c 2
 528 352 l 2
 528 418.474104165 492.257163899 440 480 440 c 0
 438.600098119 440 404.754445073 386.493262639 393.631934531 365.348706447 c 0
 393.876632887 360.91239553 393.999999673 356.45966725 394 352 c 2
 394 48 l 2
 394 21.8536339246 372.144471708 0 346 0 c 0
 319.855528292 0 298 21.8536339246 298 48 c 2
 298 352 l 2
 298 418.474104165 262.257163899 440 250 440 c 0
 207.782946148 440 173.42129597 384.360183191 163 364.135135781 c 1
 163 48 l 2
 163 21.8536339246 141.144471708 0 115 0 c 0
EndSplineSet
EndChar

StartChar: n
Encoding: 110 110 78
Width: 464
VWidth: 0
Flags: HW
AnchorPoint: "above" 232 576 basechar 0
LayerCount: 2
Fore
SplineSet
115 0 m 0
 88.8555282921 0 67 21.8536339246 67 48 c 2
 67 480 l 2
 67 506.144471708 88.8536339246 528 115 528 c 0
 131.969331395 528 147.130487299 518.794060932 155.682740879 505.184463252 c 1
 181.380010889 523.137631403 213.554852009 536 253 536 c 0
 342.742836101 536 397 445.525895835 397 352 c 2
 397 48 l 2
 397 21.8536339246 375.144471708 0 349 0 c 0
 322.855528292 0 301 21.8536339246 301 48 c 2
 301 352 l 2
 301 418.474104165 265.257163899 440 253 440 c 0
 210.584919432 440 174.367471726 384.358247277 163 363.628269617 c 1
 163 48 l 2
 163 21.8536339246 141.144471708 0 115 0 c 0
EndSplineSet
EndChar

StartChar: o
Encoding: 111 111 79
Width: 454
VWidth: 0
Flags: HW
HStem: 40 448<166.158 288.242>
VStem: 86 282<157.228 370.772>
AnchorPoint: "middle" 227 264 basechar 0
AnchorPoint: "above" 227 576 basechar 0
LayerCount: 2
Fore
SplineSet
416 264 m 0
 416 132.33091792 349.713885756 -8 227 -8 c 0
 104.285688876 -8 38 132.329694897 38 264 c 0
 38 395.66908208 104.286114244 536 227 536 c 0
 349.714311124 536 416 395.670305103 416 264 c 0
320 264 m 0
 320 380.329694897 260.285688876 440 227 440 c 0
 193.713885756 440 134 380.33091792 134 264 c 0
 134 147.670305103 193.714311124 88 227 88 c 0
 260.286114244 88 320 147.66908208 320 264 c 0
EndSplineSet
EndChar

StartChar: p
Encoding: 112 112 80
Width: 470
VWidth: 0
Flags: HW
AnchorPoint: "above" 235 576 basechar 0
LayerCount: 2
Fore
SplineSet
163 16.2511057375 m 1
 163 -144 l 2
 163 -170.144471708 141.146366075 -192 115 -192 c 0
 88.8536339246 -192 67 -170.144471708 67 -144 c 2
 67 480 l 2
 67 506.146366075 88.8555282921 528 115 528 c 0
 131.556915174 528 146.393747272 519.235588296 155.048943895 506.166873894 c 1
 179.932234609 524.74464322 209.314805616 536 243 536 c 0
 365.714311124 536 432 395.670305103 432 264 c 0
 432 132.33091792 365.713885756 -8 243 -8 c 0
 212.836088768 -8 186.122386676 1.02498484724 163 16.2511057375 c 1
163 178.491196309 m 1
 183.71892125 113.218406491 220.019053359 88 243 88 c 0
 276.286114244 88 336 147.66908208 336 264 c 0
 336 380.329694897 276.285688876 440 243 440 c 0
 220.018456748 440 183.719102441 414.782290147 163 349.508806971 c 1
 163 178.491196309 l 1
EndSplineSet
EndChar

StartChar: q
Encoding: 113 113 81
Width: 470
VWidth: 0
Flags: HW
AnchorPoint: "above" 235 576 basechar 0
LayerCount: 2
Fore
SplineSet
355 -192 m 0
 328.855528292 -192 307 -170.146366075 307 -144 c 2
 307 16.2511057375 l 1
 283.877613324 1.02498484724 257.163911232 -8 227 -8 c 0
 104.286114244 -8 38 132.33091792 38 264 c 0
 38 395.670305103 104.285688876 536 227 536 c 0
 262.85559232 536 293.836247508 523.247511136 319.704793925 502.485732112 c 1
 328.205712165 518.360803128 344.567105842 527.999601102 362.036274349 527.999601102 c 0
 365.384473124 527.999601102 368.773365816 527.645521527 372.155408559 526.913406154 c 0
 394.293273931 522.121192459 409.950767313 502.160584674 409.950767313 479.759054875 c 0
 409.950767313 476.888799209 409.693722971 473.978471664 409.160330827 471.054843626 c 0
 408.531262145 467.952919082 403 441.382023908 403 384 c 2
 403 -144 l 2
 403 -170.146366075 381.144471708 -192 355 -192 c 0
307 178.491196309 m 1
 307 349.508806971 l 1
 286.280897559 414.782290147 249.981543252 440 227 440 c 0
 193.714311124 440 134 380.329694897 134 264 c 0
 134 147.66908208 193.713885756 88 227 88 c 0
 249.980946641 88 286.28107875 113.218406491 307 178.491196309 c 1
EndSplineSet
EndChar

StartChar: r
Encoding: 114 114 82
Width: 339
VWidth: 0
Flags: HW
AnchorPoint: "above" 170 576 basechar 0
LayerCount: 2
Fore
SplineSet
310 480 m 0
 310 453.855528292 288.146366075 432 262 432 c 0
 246.635674886 432 196.216404028 370.893368486 163 261.610860837 c 1
 163 48 l 2
 163 21.8555282921 141.146366075 0 115 0 c 0
 88.8536339246 0 67 21.8555282921 67 48 c 2
 67 480 l 2
 67 506.146366075 88.8555282921 528 115 528 c 0
 140.878406609 528 162.554720411 506.588899633 162.993228063 480.796900883 c 1
 189.279524946 509.274349586 221.669377648 528 262 528 c 0
 288.146366075 528 310 506.144471708 310 480 c 0
EndSplineSet
EndChar

StartChar: s
Encoding: 115 115 83
Width: 396
VWidth: 0
Flags: HW
AnchorPoint: "bottom" 198 40 basechar 0
LayerCount: 2
Fore
SplineSet
330.093268667 391.711771815 m 0
 322.180007754 386.586630991 313.395222374 384.25137864 304.727262264 384.25137864 c 0
 288.795670782 384.25137864 273.258737665 392.140312833 264.253198703 405.095312295 c 0
 260.899777953 409.884895172 237.030944434 440 198 440 c 0
 163.601710407 440 141 413.503394491 141 388 c 0
 141 360.209574829 146.752188084 330.282452466 203.521007334 323.681426971 c 0
 323.996741144 309.731605162 358 226.331860239 358 160 c 0
 358 76.8360778508 301.875268677 -8 198 -8 c 0
 97.5103192929 -8 45.482237621 86.263465539 44.9371168387 87.1312037363 c 0
 40.2890251117 95.097455904 38.1035485561 103.680544612 38.1035485561 112.071292225 c 0
 38.1035485561 128.240146053 46.2188247593 143.694784438 60.4663312318 152.645193556 c 0
 68.2518767572 157.536141864 77.0256942035 159.886901631 85.7469741379 159.886901631 c 0
 101.263058896 159.886901631 116.612850897 152.446230964 125.935279311 138.631612723 c 0
 130.454860616 131.661588885 165.820855379 88 198 88 c 0
 240.124731323 88 262 115.163922149 262 160 c 0
 262 197.668139761 262 220.26877218 192.478992666 228.318573029 c 0
 77.2478119164 241.717547534 45 331.790425171 45 388 c 0
 45 468.496605509 112.398289593 536 198 536 c 0
 294.822069073 536 341.150234005 462.938382525 344.715008793 457.434340011 c 0
 349.320292921 449.786411698 351.620014587 440.983715638 351.620014587 432.173203451 c 0
 351.620014587 416.598589221 344.433677892 400.999550592 330.093268667 391.711771815 c 0
EndSplineSet
EndChar

StartChar: t
Encoding: 116 116 84
Width: 275
VWidth: 0
Flags: HW
AnchorPoint: "bottom" 138 48 basechar 0
AnchorPoint: "above" 138 736 basechar 0
LayerCount: 2
Fore
SplineSet
19 480 m 0
 19 506.144471708 40.8536339246 528 67 528 c 2
 90 528 l 1
 90 640 l 2
 90 666.146366075 111.855528292 688 138 688 c 0
 164.144471708 688 186 666.146366075 186 640 c 2
 186 528 l 1
 208 528 l 2
 234.144471708 528 256 506.146366075 256 480 c 0
 256 453.853633925 234.144471708 432 208 432 c 2
 186 432 l 1
 186 48 l 2
 186 21.8555282921 164.146366075 0 138 0 c 0
 111.853633925 0 90 21.8555282921 90 48 c 2
 90 432 l 1
 67 432 l 2
 40.8536339246 432 19 453.855528292 19 480 c 0
EndSplineSet
EndChar

StartChar: u
Encoding: 117 117 85
Width: 464
VWidth: 0
Flags: HW
AnchorPoint: "above" 232 576 basechar 0
LayerCount: 2
Fore
SplineSet
349 528 m 0
 375.144471708 528 397 506.146366075 397 480 c 2
 397 48 l 2
 397 21.8555282921 375.146366075 0 349 0 c 0
 332.030668605 0 316.869512701 9.20593906781 308.317259121 22.8155367485 c 1
 282.619989111 4.86236859687 250.445147991 -8 211 -8 c 0
 121.257163899 -8 67 82.4741041646 67 176 c 2
 67 480 l 2
 67 506.146366075 88.8555282921 528 115 528 c 0
 141.144471708 528 163 506.146366075 163 480 c 2
 163 176 l 2
 163 109.525895835 198.742836101 88 211 88 c 0
 253.415080568 88 289.632528274 143.641752723 301 164.371730383 c 1
 301 480 l 2
 301 506.146366075 322.855528292 528 349 528 c 0
EndSplineSet
EndChar

StartChar: v
Encoding: 118 118 86
Width: 396
VWidth: 0
Flags: HW
AnchorPoint: "above" 198 576 basechar 0
LayerCount: 2
Fore
SplineSet
65.2569202542 526.541380277 m 0
 69.0662463132 527.502529676 72.9023944933 527.961507201 76.6929910014 527.961507201 c 0
 98.1277504198 527.961507201 118.105956363 513.285310305 123.541380277 491.743079746 c 2
 198.5 194.659375889 l 1
 273.458619723 491.743079746 l 2
 278.893683074 513.283881285 298.871049383 527.961552325 320.30677781 527.961552325 c 0
 324.097391368 527.961552325 327.933609448 527.50256607 331.743079746 526.541380277 c 0
 353.285310305 521.105956363 367.961507201 501.12775042 367.961507201 479.692991001 c 0
 367.961507201 475.902394493 367.502529676 472.066246313 366.541380277 468.256920254 c 2
 257.541380277 36.2569202542 l 2
 252.80207282 17.4736099649 233.754804496 0 211 0 c 2
 198 0 l 1
 186 0 l 2
 166.628015574 0 145.025525635 14.1935867299 139.458619723 36.2569202542 c 2
 30.458619723 468.256920254 l 2
 29.4974339304 472.066390552 29.0384476747 475.902608632 29.0384476747 479.69322219 c 0
 29.0384476747 501.128950617 43.7161187151 521.106316926 65.2569202542 526.541380277 c 0
EndSplineSet
EndChar

StartChar: w
Encoding: 119 119 87
Width: 556
VWidth: 0
Flags: HW
AnchorPoint: "above" 278 576 basechar 0
LayerCount: 2
Fore
SplineSet
67.3145186929 527.012673311 m 0
 70.4664641093 527.662032436 73.6215749714 527.973978734 76.7411552552 527.973978734 c 0
 98.9653356889 527.973978734 119.38624324 512.141860978 124.012673311 489.685481307 c 2
 175.343823814 240.527537294 l 1
 225.296368393 451.080198315 l 2
 230.544221356 473.200180698 251.72672054 488 272 488 c 2
 285 488 l 2
 307.733974165 488 327.023799171 470.805943635 331.703631607 451.080198315 c 2
 381.349023131 241.822203934 l 1
 433.008939853 489.789804197 l 2
 437.677598079 512.199363684 458.07616951 527.973436452 480.261207576 527.973436452 c 0
 483.414659784 527.973436452 486.604206993 527.654726232 489.789804197 526.991060147 c 0
 512.200885754 522.322084823 527.97340132 501.922509722 527.97340132 479.738547844 c 0
 527.97340132 476.58513366 527.654699328 473.395663869 526.991060147 470.210195803 c 2
 436.991060147 38.2101958026 l 2
 432.489795125 16.6041236933 412.641116818 0 390 0 c 2
 378 0 l 2
 357.72672054 0 336.544221356 14.799819302 331.296368393 36.919801685 c 2
 278.5 259.459332975 l 1
 225.703631607 36.919801685 l 2
 221.023799171 17.1940563647 201.733974165 0 179 0 c 2
 166 0 l 2
 143.782304986 0 123.553734696 16.1494820721 118.987326689 38.3145186929 c 2
 29.987326689 470.314518693 l 2
 29.3379411406 473.466592366 29.0259866765 476.621780855 29.0259866765 479.741400065 c 0
 29.0259866765 501.966662866 44.859665922 522.38655781 67.3145186929 527.012673311 c 0
EndSplineSet
EndChar

StartChar: x
Encoding: 120 120 88
Width: 396
VWidth: 0
Flags: HW
AnchorPoint: "above" 198 576 basechar 0
LayerCount: 2
Fore
SplineSet
323.095223894 522.61221751 m 0
 339.412109097 514.151610367 348.875443737 497.078361815 348.875443737 479.618709701 c 0
 348.875443737 472.242965404 347.186618424 464.798263583 343.61221751 457.904776106 c 2
 252.569000269 282.321428571 l 1
 362.61221751 70.0952238938 l 2
 366.186512525 63.2019406498 367.875372601 55.7571760809 367.875372601 48.3812453776 c 0
 367.875372601 30.9222156527 358.412996143 13.8488495826 342.095223894 5.38778249045 c 0
 335.201736417 1.81338157629 327.757034596 0.124556262833 320.381290299 0.124556262833 c 0
 302.921638185 0.124556262833 285.848389633 9.58789090259 277.38778249 25.9047761062 c 2
 198.5 178.045499481 l 1
 119.61221751 25.9047761062 l 2
 111.151610367 9.58789090259 94.0783618146 0.124556262832 76.6187097006 0.124556262832 c 0
 69.2429654035 0.124556262832 61.7982635835 1.81338157629 54.9047761062 5.38778249045 c 0
 38.5870038571 13.8488495826 29.1246273987 30.9222156527 29.1246273987 48.3812453776 c 0
 29.1246273987 55.7571760809 30.813487475 63.2019406498 34.3877824905 70.0952238938 c 2
 144.430999731 282.321428571 l 1
 53.3877824905 457.904776106 l 2
 49.8133815763 464.798263583 48.1245562628 472.242965404 48.1245562628 479.618709701 c 0
 48.1245562628 497.078361815 57.5878909026 514.151610367 73.9047761062 522.61221751 c 0
 80.7980593502 526.186512525 88.2428239191 527.875372601 95.6187546224 527.875372601 c 0
 113.077784347 527.875372601 130.151150417 518.412996143 138.61221751 502.095223894 c 2
 198.5 386.597357662 l 1
 258.38778249 502.095223894 l 2
 266.848849583 518.412996143 283.922215653 527.875372601 301.381245378 527.875372601 c 0
 308.757176081 527.875372601 316.20194065 526.186512525 323.095223894 522.61221751 c 0
EndSplineSet
EndChar

StartChar: y
Encoding: 121 121 89
Width: 396
VWidth: 0
Flags: HW
AnchorPoint: "above" 198 576 basechar 0
LayerCount: 2
Fore
SplineSet
63.8958230924 526.176623389 m 0
 68.1347713516 527.379568165 72.4259877252 527.952081914 76.665618739 527.952081914 c 0
 97.5813601007 527.952081914 117.241601025 514.018065238 123.176623389 493.104176908 c 2
 201.832799549 215.934794248 l 1
 273.541013269 492.064930663 l 2
 279.097165061 513.460261444 299.00197456 527.959358479 320.313839802 527.959358479 c 0
 324.21020091 527.959358479 328.153593297 527.474721629 332.064930663 526.458986731 c 0
 353.458848201 520.903201944 367.959405191 500.999205694 367.959405191 479.686387606 c 0
 367.959405191 475.790013608 367.474759672 471.846553199 366.458986731 467.935069337 c 2
 232.396183438 -48.3067702118 l 2
 220.479444189 -92.3070382056 190.845366985 -194 96 -194 c 0
 79.0192342445 -194 68.3142647079 -191.280708136 65.0048821918 -190.483799972 c 0
 42.8812636803 -184.384036337 29.0011184054 -164.91281373 29.0011184054 -143.953544382 c 0
 29.0011184054 -140.247880682 29.4350025106 -136.495701631 30.3339231819 -132.762683843 c 0
 35.5384981111 -111.149240735 54.9753988155 -96.0909450778 77.2061113861 -96.0909450778 c 0
 80.5409698307 -96.0909450778 83.9386985269 -96.4298078511 87.3606837527 -97.1362380184 c 0
 88.837920075 -97.4327442336 91.5220385954 -98 96 -98 c 0
 103.154633015 -98 125.520555811 -75.6929617944 139.603816562 -23.6932297882 c 2
 154.14943878 32.31827069 l 1
 30.8233766114 466.895823092 l 2
 29.6203883007 471.134924758 29.0478664321 475.426201914 29.0478664321 479.665831126 c 0
 29.0478664321 500.582475898 42.9832962972 520.241987406 63.8958230924 526.176623389 c 0
EndSplineSet
EndChar

StartChar: z
Encoding: 122 122 90
Width: 403
VWidth: 0
Flags: HW
AnchorPoint: "above" 202 576 basechar 0
LayerCount: 2
Fore
SplineSet
365 48 m 0
 365 21.8555282921 343.146366075 0 317 0 c 2
 86 0 l 2
 59.6451520917 0 38.0033362114 22.1344177733 38.0033362114 48.0898351674 c 0
 38.0033362114 55.5167791331 42.6064015378 68.5882749137 43.3877824905 70.0952238938 c 2
 231.042110842 432 l 1
 93 432 l 2
 66.8555282921 432 45 453.853633925 45 480 c 0
 45 506.146366075 66.8555282921 528 93 528 c 2
 310 528 l 2
 312.670300224 528 322.939850392 526.641675675 328.683884798 524.214391875 c 0
 346.940772022 516.499492649 357.86949187 498.290859106 357.86949187 479.56625501 c 0
 357.86949187 472.22461054 356.189408999 464.803645407 352.61221751 457.904776106 c 2
 164.957889158 96 l 1
 317 96 l 2
 343.146366075 96 365 74.1444717079 365 48 c 0
EndSplineSet
EndChar

StartChar: braceleft
Encoding: 123 123 91
Width: 345
VWidth: 0
Flags: HW
LayerCount: 2
Fore
SplineSet
70.2842742647 350.549960689 m 0
 68.0608075446 356.247594159 67.036794755 362.16135252 67.0845570865 368 c 0
 67.036794755 373.83864748 68.0608075446 379.752405841 70.2842742647 385.450039311 c 0
 72.7584711779 391.790168901 76.5065714708 397.321183344 81.1273426513 401.867028874 c 0
 85.6741443156 406.490302844 91.2070572368 410.240443632 97.5499606887 412.715725735 c 0
 136.86809747 428.05938887 147.510194179 456.985599467 147.510194179 493.055051331 c 0
 147.510194179 535.625285388 132.686372157 588.145639247 132.686372157 640.029950243 c 0
 132.686372157 705.802625883 156.508420585 770.5531735 264.549960689 812.715725735 c 0
 270.120808215 814.889715014 275.898269061 815.917037856 281.610120106 815.917037856 c 0
 300.870337596 815.917037856 319.384557622 804.236157601 326.715725735 785.450039311 c 0
 328.889784531 779.879013647 329.917105344 774.101540002 329.917105344 768.389769815 c 0
 329.917105344 749.128814126 318.235021998 730.614999216 299.450039311 723.284274265 c 0
 260.137360962 707.94274125 249.498137131 679.013986833 249.498137131 642.940195859 c 0
 249.498137131 600.377012183 264.309485173 547.866897706 264.309485173 495.991666928 c 0
 264.309485173 450.452224163 252.895168218 405.402052445 210.026078548 368 c 1
 252.895168218 330.597947555 264.309485173 285.547775837 264.309485173 240.008333072 c 0
 264.309485173 188.133102294 249.498137131 135.622987817 249.498137131 93.0598041414 c 0
 249.498137131 56.9860131667 260.137360962 28.0572587496 299.450039311 12.7157257353 c 0
 318.235021998 5.38500078441 329.917105344 -13.1288141259 329.917105344 -32.389769815 c 0
 329.917105344 -38.1015400022 328.889784531 -43.8790136473 326.715725735 -49.4500393113 c 0
 319.384557622 -68.2361576006 300.870337596 -79.9170378557 281.610120106 -79.9170378557 c 0
 275.898269061 -79.9170378557 270.120808215 -78.889715014 264.549960689 -76.7157257353 c 0
 156.508420585 -34.5531734997 132.686372157 30.1973741165 132.686372157 95.9700497571 c 0
 132.686372157 147.854360753 147.510194179 200.374714612 147.510194179 242.944948669 c 0
 147.510194179 279.014400533 136.86809747 307.94061113 97.5499606887 323.284274265 c 0
 91.2070569805 325.759553761 85.6741453358 329.509693191 81.1273463357 334.132967441 c 0
 76.5065714937 338.678811716 72.7584698667 344.209827414 70.2842742647 350.549960689 c 0
EndSplineSet
EndChar

StartChar: bar
Encoding: 124 124 92
Width: 230
VWidth: 0
Flags: HW
LayerCount: 2
Fore
SplineSet
115 816 m 0
 141.144471708 816 163 794.146366075 163 768 c 2
 163 -32 l 2
 163 -58.1444717079 141.146366075 -80 115 -80 c 0
 88.8536339246 -80 67 -58.1444717079 67 -32 c 2
 67 768 l 2
 67 794.146366075 88.8555282921 816 115 816 c 0
EndSplineSet
EndChar

StartChar: braceright
Encoding: 125 125 93
Width: 345
VWidth: 0
Flags: HW
LayerCount: 2
Fore
SplineSet
274.715725735 385.450039311 m 0
 276.939192455 379.752405841 277.963205245 373.83864748 277.915442913 368 c 0
 277.963205245 362.16135252 276.939192455 356.247594159 274.715725735 350.549960689 c 0
 272.241528822 344.209831099 268.493428529 338.678816656 263.872657349 334.132971126 c 0
 259.325855684 329.509697156 253.792942763 325.759556367 247.450039311 323.284274265 c 0
 208.368480994 308.032934434 197.716875893 279.34593891 197.716875893 243.556861338 c 0
 197.716875893 200.671986011 213.010920434 147.589627943 213.010920434 95.2068577494 c 0
 213.010920434 29.7024871528 189.095061496 -34.7079121999 81.4500393113 -76.7157257353 c 0
 75.8791917845 -78.889715014 70.1017309387 -79.9170378557 64.3898798944 -79.9170378557 c 0
 45.1296624041 -79.9170378557 26.6154423776 -68.2361576006 19.2842742647 -49.4500393113 c 0
 17.110215469 -43.8790136473 16.0828946561 -38.1015400022 16.0828946561 -32.389769815 c 0
 16.0828946561 -13.1288141259 27.7649780021 5.38500078441 46.5499606887 12.7157257353 c 0
 85.6246683154 27.9643921262 96.2727355512 56.6543921015 96.2727355512 92.4486810264 c 0
 96.2727355512 135.325012193 80.9943122116 188.394961759 80.9943122116 240.766761325 c 0
 80.9943122116 286.045987976 92.4147182929 330.803357343 135.003072442 368 c 1
 92.4147182929 405.196642657 80.9943122116 449.954012024 80.9943122116 495.233238675 c 0
 80.9943122116 547.605038241 96.2727355512 600.674987807 96.2727355512 643.551318974 c 0
 96.2727355512 679.345607898 85.6246683154 708.035607874 46.5499606887 723.284274265 c 0
 27.7649780021 730.614999216 16.0828946561 749.128814126 16.0828946561 768.389769815 c 0
 16.0828946561 774.101540002 17.110215469 779.879013647 19.2842742647 785.450039311 c 0
 26.6154423776 804.236157601 45.1296624041 815.917037856 64.3898798944 815.917037856 c 0
 70.1017309387 815.917037856 75.8791917845 814.889715014 81.4500393113 812.715725735 c 0
 189.095061496 770.7079122 213.010920434 706.297512847 213.010920434 640.793142251 c 0
 213.010920434 588.410372057 197.716875893 535.328013989 197.716875893 492.443138662 c 0
 197.716875893 456.65406109 208.368480994 427.967065566 247.450039311 412.715725735 c 0
 253.792943019 410.240446239 259.325854664 406.490306809 263.872653664 401.867032559 c 0
 268.493428506 397.321188284 272.241530133 391.790172586 274.715725735 385.450039311 c 0
EndSplineSet
EndChar

StartChar: asciitilde
Encoding: 126 126 94
Width: 518
VWidth: 0
Flags: HW
LayerCount: 2
Fore
SplineSet
69.3637601748 169.97769059 m 0
 48.7018553396 176.099736467 35.0517791165 195.629628347 35.0517791165 216.343732287 c 0
 35.0517791165 220.760227057 35.6723025904 225.230555327 36.97769059 229.636239825 c 0
 61.8362957049 313.534032088 110.448886828 338.275104159 161.485099212 338.275104159 c 0
 227.514013412 338.275104159 297.599658444 296.862746743 325.550175323 288.566657357 c 0
 337.983708128 284.876217571 346.864922622 281.606669473 353.916219836 281.606669473 c 0
 366.105924268 281.606669473 372.826983256 291.377602572 382.97769059 325.636239825 c 0
 389.099736467 346.29814466 408.629628347 359.948220884 429.343732287 359.948220884 c 0
 433.760227057 359.948220884 438.230555327 359.32769741 442.636239825 358.02230941 c 0
 463.299479305 351.899868083 476.948166831 332.369288857 476.948166831 311.656064598 c 0
 476.948166831 307.2395598 476.327650967 302.769287928 475.02230941 298.363760175 c 0
 451.248769168 218.128061857 397.865708309 189.571549276 344.749267631 189.571549276 c 0
 328.958968036 189.571549276 313.192230641 192.095192622 298.233945293 196.535012925 c 0
 224.122186215 218.532379933 186.536675067 245.929658259 163.052387947 245.929658259 c 0
 147.814067609 245.929658259 138.512873021 234.394412361 129.02230941 202.363760175 c 0
 122.899868083 181.700520695 103.369288857 168.051833169 82.6560645979 168.051833169 c 0
 78.2395598005 168.051833169 73.7692879281 168.672349033 69.3637601748 169.97769059 c 0
EndSplineSet
EndChar

StartChar: tildecomb
Encoding: 771 771 95
Width: 0
VWidth: 0
Flags: HW
AnchorPoint: "above" 0 728 mark 0
LayerCount: 2
Fore
SplineSet
-124.721358526 776.994732333 m 0
 -148.042047328 781.817782774 -162.851506771 803.105079361 -162.851506771 824.898225628 c 0
 -162.851506771 827.585349652 -162.626355314 830.28016422 -162.16424588 832.952754084 c 1
 -162.16424588 832.952754084 -148.18139139 936 -51 936 c 0
 -39.3405786477 936 -27.8401159415 934.026496885 -17.4684610547 930.291845939 c 0
 35.3414422387 911.275926354 50.0103529192 872.049976832 50.0103529192 872.049976832 c 2
 50.2419172973 872.022580602 50.4950068317 872 51 872 c 0
 54.765150525 872 65.1874733331 886.03874005 68.1863424872 898.587130103 c 0
 73.6605101375 921.28421275 93.4910581532 935.996925011 115.057813019 935.996925011 c 0
 118.254548839 935.996925011 121.489430338 935.673676426 124.721358526 935.005267667 c 0
 146.990275109 930.399738695 162.915622736 910.748617791 162.915622736 887.733233501 c 0
 162.915622736 884.882129524 162.671235471 881.97939822 162.16424588 879.047245916 c 1
 162.16424588 879.047245916 149.19690318 776 51 776 c 0
 38.6499792231 776 26.4887846333 778.228123221 15.6575171091 782.381316848 c 0
 -34.632946624 801.664935596 -50.0103529192 839.950023168 -50.0103529192 839.950023168 c 2
 -50.0597445736 839.955866662 -50.4540758712 840 -51 840 c 0
 -54.6011289624 840 -65.0245344273 826.643057268 -68.1863424872 813.412869897 c 0
 -73.2390681616 792.463176802 -92.83352297 776.024869051 -115.293140685 776.024869051 c 0
 -118.391570008 776.024869051 -121.544528364 776.33771863 -124.721358526 776.994732333 c 0
EndSplineSet
EndChar

StartChar: dotlessi
Encoding: 305 305 96
Width: 230
VWidth: 0
Flags: HW
AnchorPoint: "above" 115 576 basechar 0
LayerCount: 2
Fore
SplineSet
115 0 m 0
 88.8555282921 0 67 21.8536339246 67 48 c 2
 67 480 l 2
 67 506.144471708 88.8536339246 528 115 528 c 0
 141.146366075 528 163 506.144471708 163 480 c 2
 163 48 l 2
 163 21.8536339246 141.144471708 0 115 0 c 0
EndSplineSet
EndChar

StartChar: uni0237
Encoding: 567 567 97
Width: 230
VWidth: 0
Flags: HW
AnchorPoint: "above" 115 576 basechar 0
LayerCount: 2
Fore
SplineSet
115 528 m 0
 141.144471708 528 163 506.146366075 163 480 c 2
 163 -64 l 2
 163 -114.465637702 134.435433087 -192 51 -192 c 0
 35.1276278754 -192 27.1237285199 -188.792969735 24.4897018823 -188.066341697 c 0
 3.11497713054 -181.410018011 -9.99739528689 -162.30712755 -9.99739528689 -141.938002581 c 0
 -9.99739528689 -137.724998165 -9.4364501868 -133.457824449 -8.27164567389 -129.23540809 c 0
 -2.46191854464 -108.175147246 17.2208499733 -94.0509091163 38.3111965825 -94.0509091163 c 0
 42.4617604839 -94.0509091163 46.6668397942 -94.5979399493 50.8314224856 -95.7467903469 c 0
 50.9490140152 -95.7750123141 51.3070488922 -95.8649794047 51.9320145035 -95.9840204735 c 0
 57.1929960604 -95.7714903964 67 -93.2027939635 67 -64 c 2
 67 480 l 2
 67 506.146366075 88.8555282921 528 115 528 c 0
EndSplineSet
EndChar

StartChar: gravecomb
Encoding: 768 768 98
Width: 0
VWidth: 0
Flags: HW
AnchorPoint: "above" 0 720 mark 0
LayerCount: 2
Fore
SplineSet
-117.733610363 937.392380486 m 0
 -108.724360381 951.844719 -92.808680623 959.847222133 -76.6741897022 959.847222133 c 0
 -68.0396688435 959.847222133 -59.3424814867 957.555342502 -51.6076195137 952.733610363 c 2
 102.392380486 856.733610363 l 2
 116.844719 847.724360381 124.847222133 831.808680623 124.847222133 815.674189702 c 0
 124.847222133 807.039668843 122.555342502 798.342481487 117.733610363 790.607619514 c 0
 108.723914656 776.154565982 92.8082749242 768.152840786 76.6743507235 768.152840786 c 0
 68.0395639202 768.152840786 59.3422532182 770.444799795 51.6076195137 775.266389637 c 2
 -102.392380486 871.266389637 l 2
 -116.845434018 880.276085344 -124.847159214 896.191725076 -124.847159214 912.325649276 c 0
 -124.847159214 920.96043608 -122.555200205 929.657746782 -117.733610363 937.392380486 c 0
EndSplineSet
EndChar

StartChar: acutecomb
Encoding: 769 769 99
Width: 0
VWidth: 0
Flags: H
AnchorPoint: "above" 0 720 mark 0
LayerCount: 2
Fore
SplineSet
-117.733610363 790.607619514 m 0
 -122.555200205 798.342253218 -124.847159214 807.03956392 -124.847159214 815.674350724 c 0
 -124.847159214 831.808274924 -116.845434018 847.723914656 -102.392380486 856.733610363 c 2
 51.6076195137 952.733610363 l 2
 59.3422532182 957.555200205 68.0395639202 959.847159214 76.6743507235 959.847159214 c 0
 92.8082749242 959.847159214 108.723914656 951.845434018 117.733610363 937.392380486 c 0
 122.555342502 929.657518513 124.847222133 920.960331157 124.847222133 912.325810298 c 0
 124.847222133 896.191319377 116.844719 880.275639619 102.392380486 871.266389637 c 2
 -51.6076195137 775.266389637 l 2
 -59.3424814867 770.444657498 -68.0396688435 768.152777867 -76.6741897022 768.152777867 c 0
 -92.808680623 768.152777867 -108.724360381 776.155281 -117.733610363 790.607619514 c 0
EndSplineSet
EndChar

StartChar: uni0302
Encoding: 770 770 100
Width: 0
VWidth: 0
Flags: H
AnchorPoint: "above" 0 736 mark 0
LayerCount: 2
Fore
SplineSet
-125.875647297 800.110535736 m 0
 -133.879121309 809.114444 -137.809706657 820.52033342 -137.809706657 831.902352657 c 0
 -137.809706657 845.222021459 -132.426941252 858.509001085 -121.889464264 867.875647297 c 2
 -31.8894642638 947.875647297 l 2
 -22.828206754 955.930098417 -11.4747353518 959.53808835 -0.342697250942 959.53808835 c 0
 11.7307710465 959.53808835 23.5437693744 955.294042754 31.8894642638 947.875647297 c 2
 121.889464264 867.875647297 l 2
 132.426527387 858.509368965 137.809726229 845.222176853 137.809726229 831.902028176 c 0
 137.809726229 820.520418461 133.879390444 809.114746776 125.875647297 800.110535736 c 0
 116.509001085 789.573058748 103.222021459 784.190293343 89.9023526567 784.190293343 c 0
 78.5203334201 784.190293343 67.1144440002 788.120878691 58.1105357362 796.124352703 c 2
 -4.26242760223e-14 847.778162246 l 1
 -58.1105357362 796.124352703 l 2
 -67.1147467764 788.120609556 -78.5204184607 784.190273771 -89.9020281761 784.190273771 c 0
 -103.222176853 784.190273771 -116.509368965 789.573472613 -125.875647297 800.110535736 c 0
EndSplineSet
EndChar

StartChar: uni0308
Encoding: 776 776 101
Width: 0
VWidth: 0
Flags: H
AnchorPoint: "above" 0 720 mark 0
LayerCount: 2
Fore
SplineSet
-77 768 m 0
 -103.144471708 768 -125 789.853633925 -125 816 c 2
 -125 864 l 2
 -125 890.144471708 -103.146366075 912 -77 912 c 0
 -50.8536339246 912 -29 890.144471708 -29 864 c 2
 -29 816 l 2
 -29 789.853633925 -50.8555282921 768 -77 768 c 0
77 768 m 0
 50.8555282921 768 29 789.853633925 29 816 c 2
 29 864 l 2
 29 890.144471708 50.8536339246 912 77 912 c 0
 103.146366075 912 125 890.144471708 125 864 c 2
 125 816 l 2
 125 789.853633925 103.144471708 768 77 768 c 0
EndSplineSet
EndChar

StartChar: uni030A
Encoding: 778 778 102
Width: 0
VWidth: 0
Flags: H
HStem: 816 160<-44.1492 44.1492>
VStem: -64 128<840.814 951.186>
AnchorPoint: "above" 0 720 mark 0
LayerCount: 2
Fore
SplineSet
112 896 m 0
 112 834.482281163 70.6193876928 768 0 768 c 0
 -70.6200814409 768 -112 834.481201371 -112 896 c 0
 -112 957.517718837 -70.6193876928 1024 0 1024 c 0
 70.6200814409 1024 112 957.518798629 112 896 c 0
16 896 m 0
 16 922.481201371 0 928 0 928 c 1
 0 928 -16 922.482281163 -16 896 c 0
 -16 869.518798629 0 864 0 864 c 1
 0 864 16 869.517718837 16 896 c 0
EndSplineSet
EndChar

StartChar: uni0327
Encoding: 807 807 103
Width: 0
VWidth: 0
Flags: H
AnchorPoint: "bottom" 0 40 mark 0
LayerCount: 2
Fore
SplineSet
-99 -200 m 0
 -99 -173.855528292 -77.1463660754 -152 -51 -152 c 0
 -12.3899964318 -152 1.95803945975 -143.113366031 2.0711381397 -142.995015592 c 0
 2.12117497176 -142.893536368 3 -141.271528619 3 -136 c 0
 3 -130.590227422 2.07586170495 -129.014564226 2.0711381397 -129.004984408 c 0
 1.75554346584 -128.674735036 -12.8350990308 -120 -51 -120 c 0
 -77.3548479083 -120 -98.9966637886 -97.8655822267 -98.9966637886 -71.9101648326 c 0
 -98.9966637886 -65.0709119883 -95.9969899034 -54.9910145677 -94.6842235813 -52.1080767621 c 2
 -43.6842235813 59.8919232379 l 2
 -35.7101961842 77.4035128157 -17.9260355998 87.8953364567 0.39503527714 87.8953364567 c 0
 6.96761211229 87.8953364567 13.609287884 86.5450664656 19.8919232379 83.6842235813 c 0
 37.4045177049 75.7097386008 47.8952650017 57.925332778 47.8952650017 39.6049326245 c 0
 47.8952650017 33.0322212099 46.5449793779 26.3905208646 43.6842235813 20.1080767621 c 2
 19.7167960992 -32.5262737867 l 1
 41.7373371967 -39.1868230478 65.3976325811 -51.7349241438 81.0946880332 -74.4904239525 c 0
 93.730943418 -92.8087835881 99 -114.671190348 99 -136 c 0
 99 -157.786012525 93.4749244761 -180.130093907 80.2933918721 -198.653199543 c 0
 48.9778617155 -242.658770865 -4.02659768081 -248 -51 -248 c 0
 -77.1463660754 -248 -99 -226.144471708 -99 -200 c 0
EndSplineSet
EndChar

StartChar: dieresis
Encoding: 168 168 104
Width: 384
VWidth: 0
Flags: HW
AnchorPoint: "above" 192 544 mark 0
LayerCount: 2
Fore
SplineSet
115 592 m 0
 88.8555282921 592 67 613.853633925 67 640 c 2
 67 688 l 2
 67 714.144471708 88.8536339246 736 115 736 c 0
 141.146366075 736 163 714.144471708 163 688 c 2
 163 640 l 2
 163 613.853633925 141.144471708 592 115 592 c 0
269 592 m 0
 242.855528292 592 221 613.853633925 221 640 c 2
 221 688 l 2
 221 714.144471708 242.853633925 736 269 736 c 0
 295.146366075 736 317 714.144471708 317 688 c 2
 317 640 l 2
 317 613.853633925 295.144471708 592 269 592 c 0
EndSplineSet
EndChar

StartChar: cedilla
Encoding: 184 184 106
Width: 256
VWidth: 0
Flags: HW
AnchorPoint: "bottom" 128 40 mark 0
LayerCount: 2
Fore
SplineSet
29 -200 m 0
 29 -173.855528292 50.8536339246 -152 77 -152 c 0
 115.610003568 -152 129.95803946 -143.113366031 130.07113814 -142.995015592 c 0
 130.121174972 -142.893536368 131 -141.271528619 131 -136 c 0
 131 -130.590227422 130.075861705 -129.014564226 130.07113814 -129.004984408 c 0
 129.755543466 -128.674735036 115.164900969 -120 77 -120 c 0
 50.6451520917 -120 29.0033362114 -97.8655822267 29.0033362114 -71.9101648326 c 0
 29.0033362114 -65.0709119883 32.0030100966 -54.9910145677 33.3157764187 -52.1080767621 c 2
 84.3157764187 59.8919232379 l 2
 92.2898038158 77.4035128157 110.0739644 87.8953364567 128.395035277 87.8953364567 c 0
 134.967612112 87.8953364567 141.609287884 86.5450664656 147.891923238 83.6842235813 c 0
 165.404517705 75.7097386008 175.895265002 57.925332778 175.895265002 39.6049326245 c 0
 175.895265002 33.0322212099 174.544979378 26.3905208646 171.684223581 20.1080767621 c 2
 147.716796099 -32.5262737867 l 1
 169.737337197 -39.1868230478 193.397632581 -51.7349241438 209.094688033 -74.4904239525 c 0
 221.730943418 -92.8087835881 227 -114.671190348 227 -136 c 0
 227 -157.786012525 221.474924476 -180.130093907 208.293391872 -198.653199543 c 0
 176.977861715 -242.658770865 123.973402319 -248 77 -248 c 0
 50.8536339246 -248 29 -226.144471708 29 -200 c 0
EndSplineSet
EndChar

StartChar: minus
Encoding: 8722 8722 161
Width: 512
VWidth: 0
Flags: HW
LayerCount: 2
Fore
SplineSet
35 368 m 0
 35 394.144471708 56.8536339246 416 83 416 c 2
 429 416 l 2
 455.144471708 416 477 394.146366075 477 368 c 0
 477 341.853633925 455.144471708 320 429 320 c 2
 83 320 l 2
 56.8536339246 320 35 341.855528292 35 368 c 0
EndSplineSet
EndChar

StartChar: degree
Encoding: 176 176 164
Width: 384
VWidth: 32
Flags: HW
HStem: 432 256<134.76 249.24>
VStem: 90 205<488.45 631.55>
AnchorPoint: "above" 192 336 mark 0
LayerCount: 2
Fore
SplineSet
342 560 m 0
 342 472.052240094 284.617852966 384 192 384 c 0
 99.3829436021 384 42 472.052913814 42 560 c 0
 42 647.947759906 99.3821470342 736 192 736 c 0
 284.617056398 736 342 647.947086186 342 560 c 0
246 560 m 0
 246 614.052913814 213.382943602 640 192 640 c 0
 170.617852966 640 138 614.052240094 138 560 c 0
 138 505.947086186 170.617056398 480 192 480 c 0
 213.382147034 480 246 505.947759906 246 560 c 0
EndSplineSet
EndChar

StartChar: uni00B2
Encoding: 178 178 165
Width: 422
VWidth: 516
Flags: HW
LayerCount: 2
Fore
SplineSet
86 846 m 0
 59.8555282921 846 38 867.853633925 38 894 c 0
 38 1000.40951576 115.573747747 1062 203 1062 c 0
 299.227349669 1062 367 982.242172953 367 888 c 0
 367 824.979847268 335.241473496 782.197065699 278.801981094 739.601222377 c 0
 180.737973433 666.49896212 151.491284627 648.264589091 141.79072612 576 c 1
 336 576 l 2
 362.144471708 576 384 554.146366075 384 528 c 0
 384 501.853633925 362.144471708 480 336 480 c 2
 91 480 l 2
 70.3985836813 480 43 498.945527317 43 528 c 0
 43 684.748467063 113.960826674 736.458325233 221.198018906 816.398777623 c 0
 270.758526504 853.802934301 271 859.020152732 271 888 c 0
 271 937.757827047 240.772650331 966 203 966 c 0
 160.426252253 966 134 947.590484242 134 894 c 0
 134 867.853633925 112.144471708 846 86 846 c 0
EndSplineSet
EndChar

StartChar: uni00B3
Encoding: 179 179 166
Width: 422
VWidth: 516
Flags: HW
LayerCount: 2
Fore
SplineSet
72.412840751 651.255141069 m 0
 78.3190497385 653.735748844 84.4959082045 654.906999364 90.6051364323 654.906999364 c 0
 109.42921623 654.906999364 127.611206291 643.78700396 135.255141069 625.587159249 c 0
 150.113184208 590.210866061 179.379439511 570 210 570 c 0
 251.656778854 570 295 610.707581953 295 672 c 0
 295 739.113302504 260.138750477 777 216 777 c 0
 210.890316125 777 190.525375867 771.197934352 176.438257744 764.568702294 c 0
 170.00129566 761.539543667 163.162692202 760.109680389 156.393330964 760.109680389 c 0
 151.087032287 760.109680389 145.823279635 760.988262821 140.828874318 762.663820646 c 0
 129.457300562 766.459487172 119.455928901 774.390790735 113.538214301 785.617043197 c 0
 113.368726164 785.938572163 113.203360912 786.261337388 113.042097823 786.585274623 c 0
 112.880890605 786.908213114 112.723071657 787.233709963 112.568702294 787.561742256 c 0
 109.539452502 793.998898065 108.109608912 800.837467137 108.109608912 807.606680468 c 0
 108.109608912 812.912349332 108.988009087 818.175410672 110.663163246 823.169184238 c 0
 114.458395498 834.541282278 122.38964943 844.543470772 133.617043197 850.461785699 c 0
 190.191281126 880.283864607 219.913162266 924.756283658 235.754390459 960 c 1
 79 960 l 2
 52.8555282921 960 31 981.853633925 31 1008 c 0
 31 1034.14636608 52.8555282921 1056 79 1056 c 2
 300 1056 l 2
 323.709049622 1056 347.992466604 1035.08548899 347.992466604 1007.83774926 c 0
 347.992466604 1006.08326925 347.891786031 1004.30253127 347.683788733 1002.49942802 c 0
 347.335712864 999.482000694 339.411543299 928.224248625 286.835323223 857.730077103 c 1
 355.011463623 825.636365216 391 747.868532911 391 672 c 1
 391 567.292418047 314.343221146 474 210 474 c 0
 134.620560489 474 73.8868157921 523.789133939 46.7448589308 588.412840751 c 0
 44.2641738039 594.31923391 43.092930776 600.496088547 43.092930776 606.605211526 c 0
 43.092930776 625.429996097 54.2140709025 643.611657733 72.412840751 651.255141069 c 0
EndSplineSet
EndChar

StartChar: uni00B9
Encoding: 185 185 167
Width: 230
VWidth: 492
Flags: HW
LayerCount: 2
Fore
SplineSet
115 1056 m 0
 141.144471708 1056 163 1034.14636608 163 1008 c 2
 163 528 l 2
 163 501.855528292 141.146366075 480 115 480 c 0
 88.8536339246 480 67 501.855528292 67 528 c 2
 67 1008 l 2
 67 1034.14636608 88.8555282921 1056 115 1056 c 0
EndSplineSet
EndChar

StartChar: minute
Encoding: 8242 8242 168
Width: 204
VWidth: 0
Flags: HW
LayerCount: 2
Fore
SplineSet
120.728005195 735.657003226 m 0
 144.815957742 732.761816622 162.991245163 711.623010019 162.991245163 687.848450012 c 0
 162.991245163 686.00307853 162.881742692 684.14182716 162.657003226 682.271994805 c 2
 137.657003226 474.271994805 l 2
 134.761816622 450.184042258 113.623010019 432.008754837 89.8484500123 432.008754837 c 0
 88.0030785297 432.008754837 86.14182716 432.118257308 84.2719948046 432.342996774 c 0
 60.1823443973 435.238387448 42.0087697363 456.378556482 42.0087697363 480.15176262 c 0
 42.0087697363 481.997079525 42.1182678829 483.858260822 42.342996774 485.728005195 c 2
 67.342996774 693.728005195 l 2
 70.238387448 717.817655603 91.3785564815 735.991230264 115.15176262 735.991230264 c 0
 116.997079525 735.991230264 118.858260822 735.881732117 120.728005195 735.657003226 c 0
EndSplineSet
EndChar

StartChar: second
Encoding: 8243 8243 169
Width: 332
VWidth: 0
Flags: HW
LayerCount: 2
Fore
SplineSet
248.728005195 735.657003226 m 0
 272.815957742 732.761816622 290.991245163 711.623010019 290.991245163 687.848450012 c 0
 290.991245163 686.00307853 290.881742692 684.14182716 290.657003226 682.271994805 c 2
 265.657003226 474.271994805 l 2
 262.761816622 450.184042258 241.623010019 432.008754837 217.848450012 432.008754837 c 0
 216.00307853 432.008754837 214.14182716 432.118257308 212.271994805 432.342996774 c 0
 188.182344397 435.238387448 170.008769736 456.378556482 170.008769736 480.15176262 c 0
 170.008769736 481.997079525 170.118267883 483.858260822 170.342996774 485.728005195 c 2
 195.342996774 693.728005195 l 2
 198.238387448 717.817655603 219.378556482 735.991230264 243.15176262 735.991230264 c 0
 244.997079525 735.991230264 246.858260822 735.881732117 248.728005195 735.657003226 c 0
120.728005195 735.657003226 m 0
 144.815957742 732.761816622 162.991245163 711.623010019 162.991245163 687.848450012 c 0
 162.991245163 686.00307853 162.881742692 684.14182716 162.657003226 682.271994805 c 2
 137.657003226 474.271994805 l 2
 134.761816622 450.184042258 113.623010019 432.008754837 89.8484500123 432.008754837 c 0
 88.0030785297 432.008754837 86.14182716 432.118257308 84.2719948046 432.342996774 c 0
 60.1823443973 435.238387448 42.0087697363 456.378556482 42.0087697363 480.15176262 c 0
 42.0087697363 481.997079525 42.1182678829 483.858260822 42.342996774 485.728005195 c 2
 67.342996774 693.728005195 l 2
 70.238387448 717.817655603 91.3785564815 735.991230264 115.15176262 735.991230264 c 0
 116.997079525 735.991230264 118.858260822 735.881732117 120.728005195 735.657003226 c 0
EndSplineSet
EndChar

StartChar: uni2034
Encoding: 8244 8244 170
Width: 460
VWidth: 0
Flags: HW
LayerCount: 2
Fore
SplineSet
376.728005195 735.657003226 m 0
 400.815957742 732.761816622 418.991245163 711.623010019 418.991245163 687.848450012 c 0
 418.991245163 686.00307853 418.881742692 684.14182716 418.657003226 682.271994805 c 2
 393.657003226 474.271994805 l 2
 390.761816622 450.184042258 369.623010019 432.008754837 345.848450012 432.008754837 c 0
 344.00307853 432.008754837 342.14182716 432.118257308 340.271994805 432.342996774 c 0
 316.182344397 435.238387448 298.008769736 456.378556482 298.008769736 480.15176262 c 0
 298.008769736 481.997079525 298.118267883 483.858260822 298.342996774 485.728005195 c 2
 323.342996774 693.728005195 l 2
 326.238387448 717.817655603 347.378556482 735.991230264 371.15176262 735.991230264 c 0
 372.997079525 735.991230264 374.858260822 735.881732117 376.728005195 735.657003226 c 0
248.728005195 735.657003226 m 0
 272.815957742 732.761816622 290.991245163 711.623010019 290.991245163 687.848450012 c 0
 290.991245163 686.00307853 290.881742692 684.14182716 290.657003226 682.271994805 c 2
 265.657003226 474.271994805 l 2
 262.761816622 450.184042258 241.623010019 432.008754837 217.848450012 432.008754837 c 0
 216.00307853 432.008754837 214.14182716 432.118257308 212.271994805 432.342996774 c 0
 188.182344397 435.238387448 170.008769736 456.378556482 170.008769736 480.15176262 c 0
 170.008769736 481.997079525 170.118267883 483.858260822 170.342996774 485.728005195 c 2
 195.342996774 693.728005195 l 2
 198.238387448 717.817655603 219.378556482 735.991230264 243.15176262 735.991230264 c 0
 244.997079525 735.991230264 246.858260822 735.881732117 248.728005195 735.657003226 c 0
120.728005195 735.657003226 m 0
 144.815957742 732.761816622 162.991245163 711.623010019 162.991245163 687.848450012 c 0
 162.991245163 686.00307853 162.881742692 684.14182716 162.657003226 682.271994805 c 2
 137.657003226 474.271994805 l 2
 134.761816622 450.184042258 113.623010019 432.008754837 89.8484500123 432.008754837 c 0
 88.0030785297 432.008754837 86.14182716 432.118257308 84.2719948046 432.342996774 c 0
 60.1823443973 435.238387448 42.0087697363 456.378556482 42.0087697363 480.15176262 c 0
 42.0087697363 481.997079525 42.1182678829 483.858260822 42.342996774 485.728005195 c 2
 67.342996774 693.728005195 l 2
 70.238387448 717.817655603 91.3785564815 735.991230264 115.15176262 735.991230264 c 0
 116.997079525 735.991230264 118.858260822 735.881732117 120.728005195 735.657003226 c 0
EndSplineSet
EndChar

StartChar: uni00AD
Encoding: 173 173 171
Width: 332
VWidth: 32
Flags: HW
LayerCount: 2
Fore
SplineSet
16 264 m 0
 16 290.144471708 37.8536339246 312 64 312 c 2
 269 312 l 2
 295.144471708 312 317 290.146366075 317 264 c 0
 317 237.853633925 295.144471708 216 269 216 c 2
 64 216 l 2
 37.8536339246 216 16 237.855528292 16 264 c 0
EndSplineSet
EndChar

StartChar: endash
Encoding: 8211 8211 173
Width: 409
VWidth: 0
Flags: HW
LayerCount: 2
Fore
SplineSet
-10 264 m 0
 -10 290.144471708 11.8536339246 312 38 312 c 2
 371 312 l 2
 397.144471708 312 419 290.146366075 419 264 c 0
 419 237.853633925 397.144471708 216 371 216 c 2
 38 216 l 2
 11.8536339246 216 -10 237.855528292 -10 264 c 0
EndSplineSet
EndChar

StartChar: emdash
Encoding: 8212 8212 174
Width: 819
VWidth: 0
Flags: H
LayerCount: 2
Fore
SplineSet
-10 264 m 0
 -10 290.144471708 11.8536339246 312 38 312 c 2
 781 312 l 2
 807.144471708 312 829 290.146366075 829 264 c 0
 829 237.853633925 807.144471708 216 781 216 c 2
 38 216 l 2
 11.8536339246 216 -10 237.855528292 -10 264 c 0
EndSplineSet
EndChar

StartChar: figuredash
Encoding: 8210 8210 190
Width: 537
VWidth: 0
Flags: HW
LayerCount: 2
Fore
SplineSet
-10 368 m 0
 -10 394.144471708 11.8536339246 416 38 416 c 2
 499 416 l 2
 525.144471708 416 547 394.146366075 547 368 c 0
 547 341.853633925 525.144471708 320 499 320 c 2
 38 320 l 2
 11.8536339246 320 -10 341.855528292 -10 368 c 0
EndSplineSet
EndChar

StartChar: uni2057
Encoding: 8279 8279 191
Width: 588
VWidth: 0
Flags: HW
LayerCount: 2
Fore
SplineSet
504.728005195 735.657003226 m 0
 528.815957742 732.761816622 546.991245163 711.623010019 546.991245163 687.848450012 c 0
 546.991245163 686.00307853 546.881742692 684.14182716 546.657003226 682.271994805 c 2
 521.657003226 474.271994805 l 2
 518.761816622 450.184042258 497.623010019 432.008754837 473.848450012 432.008754837 c 0
 472.00307853 432.008754837 470.14182716 432.118257308 468.271994805 432.342996774 c 0
 444.182344397 435.238387448 426.008769736 456.378556482 426.008769736 480.15176262 c 0
 426.008769736 481.997079525 426.118267883 483.858260822 426.342996774 485.728005195 c 2
 451.342996774 693.728005195 l 2
 454.238387448 717.817655603 475.378556482 735.991230264 499.15176262 735.991230264 c 0
 500.997079525 735.991230264 502.858260822 735.881732117 504.728005195 735.657003226 c 0
376.728005195 735.657003226 m 0
 400.815957742 732.761816622 418.991245163 711.623010019 418.991245163 687.848450012 c 0
 418.991245163 686.00307853 418.881742692 684.14182716 418.657003226 682.271994805 c 2
 393.657003226 474.271994805 l 2
 390.761816622 450.184042258 369.623010019 432.008754837 345.848450012 432.008754837 c 0
 344.00307853 432.008754837 342.14182716 432.118257308 340.271994805 432.342996774 c 0
 316.182344397 435.238387448 298.008769736 456.378556482 298.008769736 480.15176262 c 0
 298.008769736 481.997079525 298.118267883 483.858260822 298.342996774 485.728005195 c 2
 323.342996774 693.728005195 l 2
 326.238387448 717.817655603 347.378556482 735.991230264 371.15176262 735.991230264 c 0
 372.997079525 735.991230264 374.858260822 735.881732117 376.728005195 735.657003226 c 0
248.728005195 735.657003226 m 0
 272.815957742 732.761816622 290.991245163 711.623010019 290.991245163 687.848450012 c 0
 290.991245163 686.00307853 290.881742692 684.14182716 290.657003226 682.271994805 c 2
 265.657003226 474.271994805 l 2
 262.761816622 450.184042258 241.623010019 432.008754837 217.848450012 432.008754837 c 0
 216.00307853 432.008754837 214.14182716 432.118257308 212.271994805 432.342996774 c 0
 188.182344397 435.238387448 170.008769736 456.378556482 170.008769736 480.15176262 c 0
 170.008769736 481.997079525 170.118267883 483.858260822 170.342996774 485.728005195 c 2
 195.342996774 693.728005195 l 2
 198.238387448 717.817655603 219.378556482 735.991230264 243.15176262 735.991230264 c 0
 244.997079525 735.991230264 246.858260822 735.881732117 248.728005195 735.657003226 c 0
120.728005195 735.657003226 m 0
 144.815957742 732.761816622 162.991245163 711.623010019 162.991245163 687.848450012 c 0
 162.991245163 686.00307853 162.881742692 684.14182716 162.657003226 682.271994805 c 2
 137.657003226 474.271994805 l 2
 134.761816622 450.184042258 113.623010019 432.008754837 89.8484500123 432.008754837 c 0
 88.0030785297 432.008754837 86.14182716 432.118257308 84.2719948046 432.342996774 c 0
 60.1823443973 435.238387448 42.0087697363 456.378556482 42.0087697363 480.15176262 c 0
 42.0087697363 481.997079525 42.1182678829 483.858260822 42.342996774 485.728005195 c 2
 67.342996774 693.728005195 l 2
 70.238387448 717.817655603 91.3785564815 735.991230264 115.15176262 735.991230264 c 0
 116.997079525 735.991230264 118.858260822 735.881732117 120.728005195 735.657003226 c 0
EndSplineSet
EndChar

StartChar: copyright
Encoding: 169 169 192
Width: 588
VWidth: 0
Flags: HW
HStem: 48 640<200.562 388.238>
VStem: 38 512<250.702 485.298>
LayerCount: 2
Fore
SplineSet
598 368 m 0
 598 173.596588995 470.504671274 0 294 0 c 0
 117.502765599 0 -10 173.605950955 -10 368 c 0
 -10 562.403411005 117.495328726 736 294 736 c 0
 470.497234401 736 598 562.394049045 598 368 c 0
502 368 m 0
 502 527.605950955 399.502765599 640 294 640 c 0
 188.504671274 640 86 527.596588996 86 368 c 0
 86 208.394049045 188.497234401 96 294 96 c 0
 399.495328726 96 502 208.403411004 502 368 c 0
373 332 m 0
 399.144471708 332 421 310.146366075 421 284 c 0
 421 254.62518987 390.175578865 156 294 156 c 0
 193.800266589 156 147 270.793863306 147 368 c 0
 147 464.973386922 192.78428255 580 294 580 c 0
 388.84959692 580 412.151543632 485.215631711 412.151543632 485.215631711 c 1
 413.335470987 480.809770654 413.898397842 476.416499323 413.898397842 472.121496508 c 0
 413.898397842 451.000865853 400.285868584 432.256535118 379.966536491 426.076848339 c 0
 375.38306825 424.682885292 370.726424718 424.01409609 366.128364355 424.01409609 c 0
 346.190673539 424.01409609 327.354454164 436.588564358 320.361556111 457.140639454 c 0
 317.201822067 466.299288855 306.084794549 484 294 484 c 0
 285.21571745 484 243 453.026613078 243 368 c 0
 243 283.206136694 286.199733411 252 294 252 c 0
 302.226055322 252 320.144033511 271.236734631 325.187476331 288.570110329 c 0
 328.405890122 313.016390118 348.059217455 332 373 332 c 0
EndSplineSet
EndChar

StartChar: registered
Encoding: 174 174 193
Width: 588
VWidth: 0
Flags: HW
HStem: 48 640<200.562 388.238>
VStem: 38 512<250.702 485.298>
LayerCount: 2
Fore
SplineSet
259 424 m 1
 317 424 l 2
 319.398749711 424 321.559566767 423.949304291 323.501697557 423.949304291 c 0
 335.25627134 423.949304291 339 425.806373223 339 452 c 0
 339 478.204862673 335.257753008 480.04952769 323.464607228 480.04952769 c 0
 321.532216482 480.04952769 319.383665935 480 317 480 c 2
 259 480 l 1
 259 424 l 1
259 328 m 1
 259 208 l 2
 259 181.853633925 237.144471708 160 211 160 c 0
 184.855528292 160 163 181.853633925 163 208 c 2
 163 376 l 1
 163 528 l 2
 163 557.054472683 190.398583681 576 211 576 c 2
 317 576 l 2
 376.069110678 576 435 533.501284347 435 452 c 0
 435 403.58865234 414.200738557 368.930216157 384.925482463 348.772315524 c 1
 427.454977615 223.422224548 l 2
 429.137251094 218.463944821 429.934248901 213.387086398 429.934248901 208.370517955 c 0
 429.934248901 188.335959565 417.222561898 169.262993986 397.422224548 162.545022385 c 0
 392.464112001 160.862805628 387.387292092 160.065812367 382.370682842 160.065812367 c 0
 362.336931882 160.065812367 343.263415587 172.776195488 336.545022385 192.577775452 c 2
 290.598196199 328 l 1
 259 328 l 1
598 368 m 0
 598 173.596588995 470.504671274 0 294 0 c 0
 117.502765599 0 -10 173.605950955 -10 368 c 0
 -10 562.403411005 117.495328726 736 294 736 c 0
 470.497234401 736 598 562.394049045 598 368 c 0
502 368 m 0
 502 527.605950955 399.502765599 640 294 640 c 0
 188.504671274 640 86 527.596588996 86 368 c 0
 86 208.394049045 188.497234401 96 294 96 c 0
 399.495328726 96 502 208.403411004 502 368 c 0
EndSplineSet
EndChar

StartChar: brokenbar
Encoding: 166 166 194
Width: 230
VWidth: 0
Flags: HW
LayerCount: 2
Fore
SplineSet
115 320 m 0
 141.144471708 320 163 298.146366075 163 272 c 2
 163 -32 l 2
 163 -58.1444717079 141.146366075 -80 115 -80 c 0
 88.8536339246 -80 67 -58.1444717079 67 -32 c 2
 67 272 l 2
 67 298.146366075 88.8555282921 320 115 320 c 0
115 816 m 0
 141.144471708 816 163 794.146366075 163 768 c 2
 163 464 l 2
 163 437.855528292 141.146366075 416 115 416 c 0
 88.8536339246 416 67 437.855528292 67 464 c 2
 67 768 l 2
 67 794.146366075 88.8555282921 816 115 816 c 0
EndSplineSet
EndChar

StartChar: plusminus
Encoding: 177 177 195
Width: 512
VWidth: 0
Flags: HW
LayerCount: 2
Fore
SplineSet
477 56 m 0
 477 29.8555282921 455.146366075 8 429 8 c 2
 83 8 l 2
 56.8555282921 8 35 29.8536339246 35 56 c 0
 35 82.1463660754 56.8555282921 104 83 104 c 2
 429 104 l 2
 455.146366075 104 477 82.1444717079 477 56 c 0
477 464 m 0
 477 437.855528292 455.146366075 416 429 416 c 2
 304 416 l 1
 304 248 l 2
 304 221.855528292 282.146366075 200 256 200 c 0
 229.853633925 200 208 221.855528292 208 248 c 2
 208 416 l 1
 83 416 l 2
 56.8555282921 416 35 437.853633925 35 464 c 0
 35 490.146366075 56.8555282921 512 83 512 c 2
 208 512 l 1
 208 680 l 2
 208 706.146366075 229.855528292 728 256 728 c 0
 282.144471708 728 304 706.146366075 304 680 c 2
 304 512 l 1
 429 512 l 2
 455.146366075 512 477 490.144471708 477 464 c 0
EndSplineSet
EndChar

StartChar: divide
Encoding: 247 247 196
Width: 512
VWidth: 0
Flags: HW
HStem: 128 48<238.325 273.675> 560 48<238.325 273.675>
VStem: 237 38<129.906 174.094 561.906 606.094>
LayerCount: 2
Fore
SplineSet
323 160 m 0
 323 127.022015709 301.658103102 80 250 80 c 0
 207.116278251 80 189 115.12415994 189 144 c 0
 189 176.977984291 210.341896898 224 262 224 c 0
 304.883721749 224 323 188.87584006 323 160 c 0
323 592 m 0
 323 559.022015709 301.658103102 512 250 512 c 0
 207.116278251 512 189 547.12415994 189 576 c 0
 189 608.977984291 210.341896898 656 262 656 c 0
 304.883721749 656 323 620.87584006 323 592 c 0
35 368 m 0
 35 394.144471708 56.8536339246 416 83 416 c 2
 429 416 l 2
 455.144471708 416 477 394.146366075 477 368 c 0
 477 341.853633925 455.144471708 320 429 320 c 2
 83 320 l 2
 56.8536339246 320 35 341.855528292 35 368 c 0
EndSplineSet
EndChar

StartChar: uni2070
Encoding: 8304 8304 197
Width: 422
VWidth: 516
Flags: HW
HStem: 522 492<160.037 262.363>
VStem: 62 298<666.762 869.238>
LayerCount: 2
Fore
SplineSet
408 768 m 0
 408 625.754153166 339.171387846 474 211 474 c 0
 82.8364151509 474 14 625.789434392 14 768 c 0
 14 910.245846834 82.8286121539 1062 211 1062 c 0
 339.163584849 1062 408 910.210565608 408 768 c 0
312 768 m 0
 312 897.789434392 246.836415151 966 211 966 c 0
 175.171387846 966 110 897.754153166 110 768 c 0
 110 638.210565608 175.163584849 570 211 570 c 0
 246.828612154 570 312 638.245846834 312 768 c 0
EndSplineSet
EndChar

StartChar: uni2074
Encoding: 8308 8308 198
Width: 422
VWidth: 516
Flags: HW
LayerCount: 2
Fore
SplineSet
250 742 m 1
 250 907.047891458 l 1
 136.023531559 742 l 1
 250 742 l 1
413 694 m 0
 413 667.855528292 391.146366075 646 365 646 c 2
 346 646 l 1
 346 526 l 2
 346 499.855528292 324.146366075 478 298 478 c 0
 271.853633925 478 250 499.855528292 250 526 c 2
 250 646 l 1
 77 646 l 2
 47.9455273174 646 29 673.398583681 29 694 c 2
 29 741 l 2
 29 750.783482874 32.926548888 761.649023598 37.502608098 768.275557427 c 2
 220.502608098 1033.27555743 l 2
 229.610345633 1046.46435768 245.867962901 1054 260 1054 c 2
 283 1054 l 1
 298 1054 l 2
 327.054472683 1054 346 1026.60141632 346 1006 c 2
 346 742 l 1
 365 742 l 2
 391.146366075 742 413 720.144471708 413 694 c 0
EndSplineSet
EndChar

StartChar: uni2075
Encoding: 8309 8309 199
Width: 422
VWidth: 492
Flags: HW
LayerCount: 2
Fore
SplineSet
66.5837112907 652.897696212 m 0
 72.7301398193 655.616308831 79.2015302893 656.899560117 85.6043053644 656.899560117 c 0
 104.108779815 656.899560117 122.040143473 646.181190555 129.897696212 628.416288709 c 0
 147.405499125 588.83342995 176.894352099 570 203 570 c 0
 241.083601199 570 288 613.74799116 288 690 c 0
 288 766.238242896 241.071619952 810 203 810 c 0
 178.904784113 810 152.814962551 797.046441288 130.499051229 764.72684558 c 0
 121.243667036 751.322496059 106.053139747 744.204157309 90.7568171699 744.204157309 c 0
 80.1437658022 744.204157309 69.4797845378 747.630928575 60.7119348611 754.762477121 c 0
 47.8007755817 765.264089555 42.0792354734 783.639404334 43.1846288547 796.205981721 c 2
 62.1846288547 1012.20598172 l 2
 64.3724177046 1037.07768654 86.2603386249 1056 110 1056 c 2
 302 1056 l 2
 328.144471708 1056 350 1034.14636608 350 1008 c 0
 350 981.853633925 328.144471708 960 302 960 c 2
 153.963119537 960 l 1
 148.387250864 896.611177181 l 1
 163.76191877 902.016069956 184.394909954 906 203 906 c 0
 312.928380048 906 384 799.761757104 384 690 c 0
 384 580.25200884 312.916398801 474 203 474 c 0
 129.105647901 474 70.5945008746 525.16657005 42.1023037876 589.583711291 c 0
 39.3836077334 595.730328457 38.1003688636 602.201702103 38.1003688636 608.604353437 c 0
 38.1003688636 627.109510517 48.8198398556 645.040599231 66.5837112907 652.897696212 c 0
EndSplineSet
EndChar

StartChar: uni2076
Encoding: 8310 8310 200
Width: 422
VWidth: 492
Flags: HW
LayerCount: 2
Fore
SplineSet
146.888395609 641.725888736 m 0
 171.072201178 578.378344578 207.826498195 570 224 570 c 0
 268.646563523 570 299 608.307503991 299 658 c 0
 299 707.486431499 261.130527226 747 220 747 c 0
 177.413329873 747 147 729.340169335 147 645 c 0
 147 643.953551477 146.959930889 642.817306196 146.888395609 641.725888736 c 0
130.774130445 819.231212148 m 1
 157.689314837 835.670561808 188.838555771 843 220 843 c 0
 322.869472774 843 395 752.513568501 395 658 c 0
 395 571.692496009 335.353436477 474 224 474 c 0
 148.88702161 474 51.9180179225 537.221570311 34.8520501828 707.877250619 c 0
 32.9812005473 726.585308796 32 746.587728723 32 768 c 0
 32 975.6394689 140.845813302 1062 224 1062 c 0
 319.155535136 1062 359.248453049 988.316736856 362.571368437 982.187751918 c 0
 365.971666705 975.394539621 367.642513477 967.897697007 367.642513477 960.401476959 c 0
 367.642513477 943.515529094 359.164329063 926.632740237 342.87781704 917.802778676 c 0
 335.68141027 913.901145529 328.031936068 912.081294319 320.501653201 912.081294319 c 0
 303.417434685 912.081294319 286.946713015 921.448359369 277.77206462 937.123782083 c 0
 275.70446736 940.50759342 258.081464387 966 224 966 c 0
 211.740565503 966 145.783615606 948.600499703 130.774130445 819.231212148 c 1
EndSplineSet
EndChar

StartChar: uni2077
Encoding: 8311 8311 201
Width: 422
VWidth: 492
Flags: HW
LayerCount: 2
Fore
SplineSet
24 1008 m 0
 24 1034.14447171 45.8536339246 1056 72 1056 c 2
 341 1056 l 2
 370.054472683 1056 389 1028.60141632 389 1008 c 2
 389 964 l 2
 389 947.887126537 379.339109207 932.452726816 368.749514837 924.835622171 c 0
 365.44248373 922.451324149 226 822.680698434 226 552 c 2
 226 528 l 2
 226 501.855528292 204.146366075 480 178 480 c 0
 151.853633925 480 130 501.855528292 130 528 c 2
 130 552 l 2
 130 769.379251928 211.488853618 898.519297579 266.634635116 960 c 1
 72 960 l 2
 45.8536339246 960 24 981.855528292 24 1008 c 0
EndSplineSet
EndChar

StartChar: uni2078
Encoding: 8312 8312 202
Width: 422
VWidth: 492
Flags: HW
LayerCount: 2
Fore
SplineSet
336.971698363 784.489677285 m 1
 374.582898312 748.646914898 391 699.545387569 391 654 c 0
 391 563.897656547 324.825599646 474 211 474 c 0
 99.8359575198 474 31 572.783072133 31 663 c 0
 31 721.682701897 55.8298389461 765.711413956 80.5778548501 793.138439817 c 1
 55.6250592889 822.237044393 41 860.157487138 41 900 c 0
 41 990.97598796 116.006682171 1062 211 1062 c 0
 300.212715062 1062 382 993.29031431 382 900 c 0
 382 850.260592552 357.788622362 810.751117724 336.971698363 784.489677285 c 1
247.01042384 827.778468923 m 1
 265.656986 846.363491275 286 876.425684794 286 900 c 0
 286 932.70968569 253.787284938 966 211 966 c 0
 163.993317829 966 137 935.02401204 137 900 c 0
 137 875.347057231 148.581177342 855.319103604 168.882541476 842.698861657 c 0
 181.183664405 835.051929828 197.210016778 830 217 830 c 0
 226.997633436 830 237.311245058 829.210983614 247.01042384 827.778468923 c 1
164.904507641 740.868774315 m 1
 148.751487265 728.219638317 127 704.956708897 127 663 c 0
 127 615.216927867 164.16404248 570 211 570 c 0
 267.174400354 570 295 608.102343453 295 654 c 0
 295 684.915016263 279.96332245 713.934359184 254.331823345 726.304055214 c 0
 244.87719254 730.866835903 232.977238508 734 217 734 c 0
 199.211358258 734 181.435805129 736.413472735 164.904507641 740.868774315 c 1
EndSplineSet
EndChar

StartChar: uni2079
Encoding: 8313 8313 203
Width: 422
VWidth: 492
Flags: HW
LayerCount: 2
Fore
SplineSet
276 891.88239696 m 1
 251.864506252 957.491256289 214.306553117 966 198 966 c 0
 153.70887466 966 124 928.249690467 124 878 c 0
 124 828.513568501 161.869472774 789 203 789 c 0
 245.586670127 789 276 807.059036104 276 891.88239696 c 1
291.150858236 716.112041063 m 1
 264.49343014 700.09674495 233.800184641 693 203 693 c 0
 100.130527226 693 28 783.486431499 28 878 c 0
 28 963.750309533 86.2911253404 1062 198 1062 c 0
 273.652443849 1062 371.197086163 997.960405391 387.451494612 824.99274645 c 0
 389.124691798 807.187792116 390 788.222744403 390 768 c 0
 390 560.3605311 281.154186698 474 198 474 c 0
 102.844464864 474 62.7515469507 547.683263144 59.4286315632 553.812248082 c 0
 56.0283332953 560.605460379 54.3574865232 568.102302993 54.3574865232 575.598523041 c 0
 54.3574865232 592.484470906 62.8356709371 609.367259763 79.1221829598 618.197221324 c 0
 86.3185897304 622.098854471 93.9680639316 623.918705681 101.498346799 623.918705681 c 0
 118.582565315 623.918705681 135.053286985 614.551640631 144.22793538 598.876217917 c 0
 146.29553264 595.49240658 163.918535613 570 198 570 c 0
 210.23910142 570 275.80110526 587.48048394 291.150858236 716.112041063 c 1
EndSplineSet
EndChar

StartChar: uni2080
Encoding: 8320 8320 204
Width: 422
VWidth: -284
Flags: HW
HStem: -278 492<160.037 262.363>
VStem: 62 298<-133.238 69.238>
LayerCount: 2
Fore
SplineSet
408 -32 m 0
 408 -174.245846834 339.171387846 -326 211 -326 c 0
 82.8364151509 -326 14 -174.210565608 14 -32 c 0
 14 110.245846834 82.8286121539 262 211 262 c 0
 339.163584849 262 408 110.210565608 408 -32 c 0
312 -32 m 0
 312 97.7894343919 246.836415151 166 211 166 c 0
 175.171387846 166 110 97.7541531659 110 -32 c 0
 110 -161.789434392 175.163584849 -230 211 -230 c 0
 246.828612154 -230 312 -161.754153166 312 -32 c 0
EndSplineSet
EndChar

StartChar: uni2081
Encoding: 8321 8321 205
Width: 230
VWidth: -308
Flags: HW
LayerCount: 2
Fore
SplineSet
115 256 m 0
 141.144471708 256 163 234.146366075 163 208 c 2
 163 -272 l 2
 163 -298.144471708 141.146366075 -320 115 -320 c 0
 88.8536339246 -320 67 -298.144471708 67 -272 c 2
 67 208 l 2
 67 234.146366075 88.8555282921 256 115 256 c 0
EndSplineSet
EndChar

StartChar: uni2082
Encoding: 8322 8322 206
Width: 422
VWidth: -284
Flags: HW
LayerCount: 2
Fore
SplineSet
86 46 m 0
 59.8555282921 46 38 67.8536339246 38 94 c 0
 38 200.409515758 115.573747747 262 203 262 c 0
 299.227349669 262 367 182.242172953 367 88 c 0
 367 24.9798472684 335.241473496 -17.8029343008 278.801981094 -60.3987776235 c 0
 180.737973433 -133.50103788 151.491284627 -151.735410909 141.79072612 -224 c 1
 336 -224 l 2
 362.144471708 -224 384 -245.853633925 384 -272 c 0
 384 -298.146366075 362.144471708 -320 336 -320 c 2
 91 -320 l 2
 70.3985836813 -320 43 -301.054472683 43 -272 c 0
 43 -115.251532937 113.960826674 -63.5416747675 221.198018906 16.3987776235 c 0
 270.758526504 53.8029343008 271 59.0201527317 271 88 c 0
 271 137.757827047 240.772650331 166 203 166 c 0
 160.426252253 166 134 147.590484242 134 94 c 0
 134 67.8536339246 112.144471708 46 86 46 c 0
EndSplineSet
EndChar

StartChar: uni2083
Encoding: 8323 8323 207
Width: 422
VWidth: -284
Flags: HW
LayerCount: 2
Fore
SplineSet
72.412840751 -148.744858931 m 0
 78.3190497385 -146.264251156 84.4959082045 -145.093000636 90.6051364323 -145.093000636 c 0
 109.42921623 -145.093000636 127.611206291 -156.21299604 135.255141069 -174.412840751 c 0
 150.113184208 -209.789133939 179.379439511 -230 210 -230 c 0
 251.656778854 -230 295 -189.292418047 295 -128 c 0
 295 -60.8866974962 260.138750477 -23 216 -23 c 0
 210.890316125 -23 190.525375867 -28.8020656475 176.438257744 -35.4312977056 c 0
 170.00129566 -38.4604563333 163.162692202 -39.8903196113 156.393330964 -39.8903196113 c 0
 151.087032287 -39.8903196113 145.823279635 -39.0117371789 140.828874318 -37.336179354 c 0
 129.457300562 -33.5405128282 119.455928901 -25.6092092653 113.538214301 -14.3829568027 c 0
 113.368726164 -14.0614278373 113.203360912 -13.7386626117 113.042097823 -13.414725377 c 0
 112.880890605 -13.0917868862 112.723071657 -12.7662900372 112.568702294 -12.4382577438 c 0
 109.539452502 -6.00110193489 108.109608912 0.837467137391 108.109608912 7.60668046829 c 0
 108.109608912 12.9123493323 108.988009087 18.175410672 110.663163246 23.1691842379 c 0
 114.458395498 34.5412822778 122.38964943 44.5434707723 133.617043197 50.4617856992 c 0
 190.191281126 80.2838646073 219.913162266 124.756283658 235.754390459 160 c 1
 79 160 l 2
 52.8555282921 160 31 181.853633925 31 208 c 0
 31 234.146366075 52.8555282921 256 79 256 c 2
 300 256 l 2
 323.709049622 256 347.992466604 235.085488988 347.992466604 207.837749257 c 0
 347.992466604 206.083269247 347.891786031 204.302531273 347.683788733 202.499428022 c 0
 347.335712864 199.482000694 339.411543299 128.224248625 286.835323223 57.7300771029 c 1
 355.011463623 25.636365216 391 -52.1314670887 391 -128 c 0
 391 -232.707581953 314.343221146 -326 210 -326 c 0
 134.620560489 -326 73.8868157921 -276.210866061 46.7448589308 -211.587159249 c 0
 44.2641738039 -205.68076609 43.092930776 -199.503911453 43.092930776 -193.394788474 c 0
 43.092930776 -174.570003903 54.2140709025 -156.388342267 72.412840751 -148.744858931 c 0
EndSplineSet
EndChar

StartChar: uni2084
Encoding: 8324 8324 208
Width: 422
VWidth: -284
Flags: HW
LayerCount: 2
Fore
SplineSet
250 -58 m 1
 250 107.047891458 l 1
 136.023531559 -58 l 1
 250 -58 l 1
413 -106 m 0
 413 -132.144471708 391.146366075 -154 365 -154 c 2
 346 -154 l 1
 346 -274 l 2
 346 -300.144471708 324.146366075 -322 298 -322 c 0
 271.853633925 -322 250 -300.144471708 250 -274 c 2
 250 -154 l 1
 77 -154 l 2
 47.9455273174 -154 29 -126.601416319 29 -106 c 2
 29 -59 l 2
 29 -49.2165171261 32.926548888 -38.3509764019 37.502608098 -31.7244425733 c 2
 220.502608098 233.275557427 l 2
 229.610345633 246.464357683 245.867962901 254 260 254 c 2
 283 254 l 1
 298 254 l 2
 327.054472683 254 346 226.601416319 346 206 c 2
 346 -58 l 1
 365 -58 l 2
 391.146366075 -58 413 -79.8555282921 413 -106 c 0
EndSplineSet
EndChar

StartChar: uni2085
Encoding: 8325 8325 209
Width: 422
VWidth: -308
Flags: HW
LayerCount: 2
Fore
SplineSet
66.5837112907 -147.102303788 m 0
 72.7301398193 -144.383691169 79.2015302893 -143.100439883 85.6043053644 -143.100439883 c 0
 104.108779815 -143.100439883 122.040143473 -153.818809445 129.897696212 -171.583711291 c 0
 147.405499125 -211.16657005 176.894352099 -230 203 -230 c 0
 241.083601199 -230 288 -186.25200884 288 -110 c 0
 288 -33.7617571043 241.071619952 10 203 10 c 0
 178.904784113 10 152.814962551 -2.95355871192 130.499051229 -35.27315442 c 0
 121.243667036 -48.6775039413 106.053139747 -55.7958426906 90.7568171699 -55.7958426906 c 0
 80.1437658022 -55.7958426906 69.4797845378 -52.3690714246 60.7119348611 -45.2375228787 c 0
 47.8007755817 -34.7359104447 42.0792354734 -16.3605956664 43.1846288547 -3.79401827889 c 2
 62.1846288547 212.205981721 l 2
 64.3724177046 237.077686541 86.2603386249 256 110 256 c 2
 302 256 l 2
 328.144471708 256 350 234.146366075 350 208 c 0
 350 181.853633925 328.144471708 160 302 160 c 2
 153.963119537 160 l 1
 148.387250864 96.6111771811 l 1
 163.76191877 102.016069956 184.394909954 106 203 106 c 0
 312.928380048 106 384 -0.238242895704 384 -110 c 0
 384 -219.74799116 312.916398801 -326 203 -326 c 0
 129.105647901 -326 70.5945008746 -274.83342995 42.1023037876 -210.416288709 c 0
 39.3836077334 -204.269671543 38.1003688636 -197.798297897 38.1003688636 -191.395646563 c 0
 38.1003688636 -172.890489483 48.8198398556 -154.959400769 66.5837112907 -147.102303788 c 0
EndSplineSet
EndChar

StartChar: uni2086
Encoding: 8326 8326 210
Width: 422
VWidth: -308
Flags: HW
LayerCount: 2
Fore
SplineSet
146.888395609 -158.274111264 m 0
 171.072201178 -221.621655422 207.826498195 -230 224 -230 c 0
 268.646563523 -230 299 -191.692496009 299 -142 c 0
 299 -92.513568501 261.130527226 -53 220 -53 c 0
 177.413329873 -53 147 -70.6598306651 147 -155 c 0
 147 -156.046448523 146.959930889 -157.182693804 146.888395609 -158.274111264 c 0
130.774130445 19.2312121483 m 1
 157.689314837 35.6705618082 188.838555771 43 220 43 c 0
 322.869472774 43 395 -47.486431499 395 -142 c 0
 395 -228.307503991 335.353436477 -326 224 -326 c 0
 148.88702161 -326 51.9180179225 -262.778429689 34.8520501828 -92.1227493805 c 0
 32.9812005473 -73.4146912043 32 -53.4122712766 32 -32 c 0
 32 175.6394689 140.845813302 262 224 262 c 0
 319.155535136 262 359.248453049 188.316736856 362.571368437 182.187751918 c 0
 365.971666705 175.394539621 367.642513477 167.897697007 367.642513477 160.401476959 c 0
 367.642513477 143.515529094 359.164329063 126.632740237 342.87781704 117.802778676 c 0
 335.68141027 113.901145529 328.031936068 112.081294319 320.501653201 112.081294319 c 0
 303.417434685 112.081294319 286.946713015 121.448359369 277.77206462 137.123782083 c 0
 275.70446736 140.50759342 258.081464387 166 224 166 c 0
 211.740565503 166 145.783615606 148.600499703 130.774130445 19.2312121483 c 1
EndSplineSet
EndChar

StartChar: uni2087
Encoding: 8327 8327 211
Width: 422
VWidth: -308
Flags: HW
LayerCount: 2
Fore
SplineSet
24 208 m 0
 24 234.144471708 45.8536339246 256 72 256 c 2
 341 256 l 2
 370.054472683 256 389 228.601416319 389 208 c 2
 389 164 l 2
 389 147.887126537 379.339109207 132.452726816 368.749514837 124.835622171 c 0
 365.44248373 122.451324149 226 22.6806984337 226 -248 c 2
 226 -272 l 2
 226 -298.144471708 204.146366075 -320 178 -320 c 0
 151.853633925 -320 130 -298.144471708 130 -272 c 2
 130 -248 l 2
 130 -30.6207480717 211.488853618 98.519297579 266.634635116 160 c 1
 72 160 l 2
 45.8536339246 160 24 181.855528292 24 208 c 0
EndSplineSet
EndChar

StartChar: uni2088
Encoding: 8328 8328 212
Width: 422
VWidth: -308
Flags: HW
LayerCount: 2
Fore
SplineSet
336.971698363 -15.5103227152 m 1
 374.582898312 -51.3530851022 391 -100.454612431 391 -146 c 0
 391 -236.102343453 324.825599646 -326 211 -326 c 0
 99.8359575198 -326 31 -227.216927867 31 -137 c 0
 31 -78.3172981035 55.8298389461 -34.2885860439 80.5778548501 -6.8615601826 c 1
 55.6250592889 22.2370443935 41 60.1574871378 41 100 c 0
 41 190.97598796 116.006682171 262 211 262 c 0
 300.212715062 262 382 193.29031431 382 100 c 0
 382 50.260592552 357.788622362 10.7511177241 336.971698363 -15.5103227152 c 1
247.01042384 27.7784689233 m 1
 265.656986 46.3634912749 286 76.425684794 286 100 c 0
 286 132.70968569 253.787284938 166 211 166 c 0
 163.993317829 166 137 135.02401204 137 100 c 0
 137 75.3470572314 148.581177342 55.3191036038 168.882541476 42.6988616574 c 0
 181.183664405 35.0519298277 197.210016778 30 217 30 c 0
 226.997633436 30 237.311245058 29.2109836143 247.01042384 27.7784689233 c 1
164.904507641 -59.1312256849 m 1
 148.751487265 -71.7803616828 127 -95.0432911028 127 -137 c 0
 127 -184.783072133 164.16404248 -230 211 -230 c 0
 267.174400354 -230 295 -191.897656547 295 -146 c 0
 295 -115.084983737 279.96332245 -86.065640816 254.331823345 -73.695944786 c 0
 244.87719254 -69.1331640971 232.977238508 -66 217 -66 c 0
 199.211358258 -66 181.435805129 -63.5865272645 164.904507641 -59.1312256849 c 1
EndSplineSet
EndChar

StartChar: uni2089
Encoding: 8329 8329 213
Width: 422
VWidth: -308
Flags: HW
LayerCount: 2
Fore
SplineSet
276 91.8823969603 m 1
 251.864506252 157.491256289 214.306553117 166 198 166 c 0
 153.70887466 166 124 128.249690467 124 78 c 0
 124 28.513568501 161.869472774 -11 203 -11 c 0
 245.586670127 -11 276 7.05903610436 276 91.8823969603 c 1
291.150858236 -83.8879589365 m 1
 264.49343014 -99.90325505 233.800184641 -107 203 -107 c 0
 100.130527226 -107 28 -16.513568501 28 78 c 0
 28 163.750309533 86.2911253404 262 198 262 c 0
 273.652443849 262 371.197086163 197.960405391 387.451494612 24.9927464504 c 0
 389.124691798 7.18779211625 390 -11.7772555967 390 -32 c 0
 390 -239.6394689 281.154186698 -326 198 -326 c 0
 102.844464864 -326 62.7515469507 -252.316736856 59.4286315632 -246.187751918 c 0
 56.0283332953 -239.394539621 54.3574865232 -231.897697007 54.3574865232 -224.401476959 c 0
 54.3574865232 -207.515529094 62.8356709371 -190.632740237 79.1221829598 -181.802778676 c 0
 86.3185897304 -177.901145529 93.9680639316 -176.081294319 101.498346799 -176.081294319 c 0
 118.582565315 -176.081294319 135.053286985 -185.448359369 144.22793538 -201.123782083 c 0
 146.29553264 -204.50759342 163.918535613 -230 198 -230 c 0
 210.23910142 -230 275.80110526 -212.51951606 291.150858236 -83.8879589365 c 1
EndSplineSet
EndChar

StartChar: uni00B5
Encoding: 181 181 214
Width: 464
VWidth: 0
Flags: HW
LayerCount: 2
Fore
SplineSet
349 528 m 0
 375.144471708 528 397 506.146366075 397 480 c 2
 397 48 l 2
 397 21.8555282921 375.146366075 0 349 0 c 0
 332.030668605 0 316.869512701 9.20593906781 308.317259121 22.8155367485 c 1
 282.619989111 4.86236859687 250.445147991 -8 211 -8 c 0
 193.624323444 -8 177.578908024 -4.6083724171 163 1.54035869411 c 1
 163 -144 l 2
 163 -170.144471708 141.146366075 -192 115 -192 c 0
 88.8536339246 -192 67 -170.144471708 67 -144 c 2
 67 176 l 1
 67 464 l 1
 67 480 l 2
 67 506.146366075 88.8555282921 528 115 528 c 0
 141.144471708 528 163 506.146366075 163 480 c 2
 163 464 l 1
 163 176 l 2
 163 109.525895835 198.742836101 88 211 88 c 0
 253.415080568 88 289.632528274 143.641752723 301 164.371730383 c 1
 301 480 l 2
 301 506.146366075 322.855528292 528 349 528 c 0
EndSplineSet
EndChar

StartChar: paragraph
Encoding: 182 182 215
Width: 524
VWidth: 0
Flags: HW
LayerCount: 2
Fore
SplineSet
256 -192 m 0
 229.855528292 -192 208 -170.146366075 208 -144 c 2
 208 304.252404603 l 1
 107.517689777 309.349435452 29 391.311813612 29 520 c 0
 29 652.927842451 112.776706881 736 218 736 c 2
 410 736 l 2
 430.601416319 736 458 717.054472683 458 688 c 2
 458 -144 l 2
 458 -170.146366075 436.144471708 -192 410 -192 c 0
 383.855528292 -192 362 -170.146366075 362 -144 c 2
 362 640 l 1
 304 640 l 1
 304 -144 l 2
 304 -170.146366075 282.144471708 -192 256 -192 c 0
EndSplineSet
EndChar

StartChar: periodcentered
Encoding: 183 183 216
Width: 230
VWidth: 0
Flags: HW
HStem: 344 48<97.5248 132.875>
VStem: 96 38<345.906 390.094>
LayerCount: 2
Fore
SplineSet
182 376 m 0
 182 343.022015709 160.658103102 296 109 296 c 0
 66.116278251 296 48 331.12415994 48 360 c 0
 48 395.412768916 72.0005421191 440 122 440 c 0
 168.256509748 440 182 400.005199221 182 376 c 0
EndSplineSet
EndChar

StartChar: ordmasculine
Encoding: 186 186 217
Width: 345
VWidth: 0
Flags: HW
HStem: 468 224<130.678 214.922>
VStem: 102 141<506.704 653.296>
LayerCount: 2
Fore
SplineSet
291 580 m 0
 291 510.742663171 256.977164022 420 173 420 c 0
 89.5509854622 420 54 509.924063417 54 580 c 0
 54 650.084557466 89.5472900254 740 173 740 c 0
 256.972772628 740 291 649.24834449 291 580 c 0
195 580 m 0
 195 618.568354728 177.602194176 641.156588969 172.944771031 643.801094456 c 1
 168.622152171 641.517125505 150 619.224067584 150 580 c 0
 150 541.197374246 168.20276182 518.704470377 172.944771031 516.198905544 c 1
 177.188281134 518.608389373 195 541.011118433 195 580 c 0
EndSplineSet
EndChar

StartChar: uniE000
Encoding: 57344 57344 218
Width: 499
VWidth: 0
Flags: HW
LayerCount: 2
Fore
SplineSet
29 368 m 0
 29 394.144471708 50.8536339246 416 77 416 c 2
 422 416 l 2
 448.144471708 416 470 394.146366075 470 368 c 0
 470 341.853633925 448.144471708 320 422 320 c 2
 77 320 l 2
 50.8536339246 320 29 341.855528292 29 368 c 0
EndSplineSet
EndChar

StartChar: macron
Encoding: 175 175 222
Width: 256
VWidth: 0
Flags: HW
AnchorPoint: "above" 128 592 mark 0
LayerCount: 2
Fore
SplineSet
3 688 m 0
 3 714.144471708 24.8536339246 736 51 736 c 2
 205 736 l 2
 231.144471708 736 253 714.146366075 253 688 c 0
 253 661.853633925 231.144471708 640 205 640 c 2
 51 640 l 2
 24.8536339246 640 3 661.855528292 3 688 c 0
EndSplineSet
EndChar

StartChar: sterling
Encoding: 163 163 224
Width: 563
VWidth: 0
Flags: HW
LayerCount: 2
Fore
SplineSet
54 368 m 0
 54 394.144471708 75.8536339246 416 102 416 c 2
 128.215285267 416 l 1
 116.453273493 445.563284194 106 478.777602552 106 528 c 0
 106 646.200394354 189.836044905 744 309 744 c 0
 417.57357202 744 512 669.209560329 512 536 c 0
 512 509.853633925 490.144471708 488 464 488 c 0
 437.855528292 488 416 509.853633925 416 536 c 0
 416 616.790439671 372.42642798 648 309 648 c 0
 248.163955095 648 202 601.799605646 202 528 c 0
 202 496.736785704 220.985625325 463.451452993 236.085438301 416 c 1
 333 416 l 2
 359.144471708 416 381 394.146366075 381 368 c 0
 381 341.853633925 359.144471708 320 333 320 c 2
 253.823621683 320 l 1
 254.1541973 313.530732955 254.329643938 306.867254383 254.329643938 299.998776259 c 0
 254.329643938 246.266659843 243.592422602 179.988702706 212.390642879 96 c 1
 461 96 l 2
 487.144471708 96 509 74.1463660754 509 48 c 0
 509 21.8536339246 487.144471708 0 461 0 c 2
 141 0 l 2
 138.135900054 0 130.089791467 0.964495733511 125.151436264 2.69190991097 c 0
 105.434234716 9.58889728799 93.1028398623 28.6334255806 93.1028398623 48.4353615344 c 0
 93.1028398623 54.7891706775 94.372434945 61.2209597291 97.0750045828 67.3544511057 c 0
 145.017974563 176.161191487 160.637857064 244.102608212 160.637857064 293.749805175 c 0
 160.637857064 303.098283067 160.084035188 311.798117212 159.087907731 320 c 1
 102 320 l 2
 75.8536339246 320 54 341.855528292 54 368 c 0
EndSplineSet
EndChar

StartChar: currency
Encoding: 164 164 225
Width: 460
VWidth: 0
Flags: HW
HStem: 240 256<173.16 287.64>
VStem: 128 205<296.45 439.55>
LayerCount: 2
Fore
SplineSet
400.913777843 581.538858469 m 0
 412.672317329 572.168772316 418.81729986 558.030303272 418.81729986 543.817719443 c 0
 418.81729986 533.316513246 415.462605593 522.774845999 408.538858469 514.086222157 c 2
 361.415879195 454.951503068 l 1
 374.13434966 428.394586315 381 398.262485697 381 368 c 0
 381 337.737314666 374.13444099 307.605163362 361.416066318 281.048262111 c 1
 408.538858469 221.913777843 l 2
 415.462385926 213.225429662 418.817263646 202.683565283 418.817263646 192.181989798 c 0
 418.817263646 177.969912719 412.67281545 163.831624624 400.913777843 154.461141531 c 0
 392.225154001 147.537394407 381.683486754 144.18270014 371.182280557 144.18270014 c 0
 356.969696728 144.18270014 342.831227684 150.327682671 333.461141531 162.086222157 c 2
 296.091656276 208.981262476 l 1
 276.751722963 198.204256779 254.5612836 192 230 192 c 0
 205.647385423 192 183.730744479 198.087696251 164.652715084 208.660473595 c 1
 127.538858469 162.086222157 l 2
 118.168772316 150.327682671 104.030303272 144.18270014 89.817719443 144.18270014 c 0
 79.3165132458 144.18270014 68.7748459994 147.537394407 60.0862221573 154.461141531 c 0
 48.3271845504 163.831624624 42.1827363542 177.969912719 42.1827363542 192.181989798 c 0
 42.1827363542 202.683565283 45.5376140744 213.225429662 52.4611415307 221.913777843 c 2
 99.4354911774 280.861981321 l 1
 86.7782265213 307.534468594 80 337.773484618 80 368 c 0
 80 398.226731134 86.7781253429 428.465803733 99.4352860681 455.138276071 c 1
 52.4611415307 514.086222157 l 2
 45.5373944065 522.774845999 42.1827001397 533.316513246 42.1827001397 543.817719443 c 0
 42.1827001397 558.030303272 48.327682671 572.168772316 60.0862221573 581.538858469 c 0
 68.7745703377 588.462385926 79.3164347167 591.817263646 89.8180102021 591.817263646 c 0
 104.030087281 591.817263646 118.168375376 585.67281545 127.538858469 573.913777843 c 2
 164.652553584 527.339729071 l 1
 183.73057347 537.912388588 205.647252501 544 230 544 c 0
 254.561160692 544 276.751565126 537.795664457 296.091507346 527.018550631 c 1
 333.461141531 573.913777843 l 2
 342.831624624 585.67281545 356.969912719 591.817263646 371.181989798 591.817263646 c 0
 381.683565283 591.817263646 392.225429662 588.462385926 400.913777843 581.538858469 c 0
285 368 m 0
 285 421.441726531 251.79369689 448 230 448 c 0
 208.617852966 448 176 422.052240094 176 368 c 0
 176 313.947086186 208.617056398 288 230 288 c 0
 251.792986808 288 285 314.558911915 285 368 c 0
EndSplineSet
EndChar

StartChar: section
Encoding: 167 167 227
Width: 499
VWidth: 0
Flags: HW
LayerCount: 2
Fore
SplineSet
94.1092061564 -0.763353991855 m 0
 97.9952800929 0.320084845113 101.898759029 0.81720874315 105.745672103 0.81720874315 c 0
 127.380366464 0.81720874315 147.225974919 -14.9060088159 152.124922472 -30.4875780184 c 0
 156.257324449 -43.8498939326 176.61549698 -104 250 -104 c 0
 309.477814097 -104 344 -73.6875748205 344 -19 c 0
 344 10.9931528017 336.991092969 53.9798592642 229.304203385 73.7942469477 c 0
 93.6967421353 98.7745687569 48 190.336678906 48 268 c 0
 48 332.310311625 78.415888498 390.013351469 127.540653827 427.310303445 c 1
 78.6346325975 465.202605401 59 515.835314021 59 563 c 0
 59 676.755858644 149.798321988 744 250 744 c 0
 400.071996228 744 437.28697789 607.424799308 438.553214646 602.722433935 c 0
 439.392233563 599.144116402 439.799276955 595.499331418 439.799276955 591.86413574 c 0
 439.799276955 571.060982732 426.468868757 550.571873275 404.48070549 544.650976381 c 0
 400.726335215 543.64001248 396.960170562 543.17516983 393.247990272 543.17516983 c 0
 371.447305052 543.17516983 351.508493202 559.207185762 346.754762192 574.808578098 c 0
 342.712578139 588.294477636 323.180876156 648 250 648 c 0
 190.201678012 648 155 617.244141356 155 563 c 0
 155 533.006847198 162.008907031 490.020140736 269.695796615 470.205753052 c 0
 405.303257865 445.225431243 451 353.663321094 451 276 c 0
 451 211.689688375 420.584111502 153.986648531 371.459346173 116.689696555 c 1
 420.365367403 78.7973945987 440 28.1646859791 440 -19 c 0
 440 -132.31242518 350.522185903 -200 250 -200 c 0
 100.145027687 -200 61.8647205986 -63.8411935328 60.5524537997 -59.1343604093 c 0
 59.6472940895 -55.4222286468 59.2083414851 -51.634128681 59.2083414851 -47.8557591466 c 0
 59.2083414851 -27.2007286338 72.3261247264 -6.83648507371 94.1092061564 -0.763353991855 c 0
256.758317013 374.941598731 m 1
 186.963365446 373.010526224 144 323.469186758 144 268 c 1
 144 228.320994497 153.970015892 186.608738271 242.241682987 169.058401269 c 1
 312.036634554 170.989473776 355 220.530813242 355 276 c 1
 355 315.679005503 345.029984108 357.391261729 256.758317013 374.941598731 c 1
EndSplineSet
EndChar

StartChar: ordfeminine
Encoding: 170 170 228
Width: 352
VWidth: 0
Flags: HW
LayerCount: 2
Fore
SplineSet
237 736 m 0
 263.144471708 736 285 714.146366075 285 688 c 2
 285 472 l 2
 285 445.855528292 263.146366075 424 237 424 c 0
 229.123917021 424 221.637355764 425.983166602 215.020318875 429.469341845 c 2
 215.020318773 429.46934186 l 1
 202.687107208 423.48895597 188.70476805 420.000000007 173 420 c 0
 89.5472900254 420 54 509.915442534 54 580 c 0
 54 650.075936583 89.5509854622 740 173 740 c 0
 188.707972789 740 202.691548903 736.512094905 215.024912578 730.532998022 c 1
 221.64098752 734.017755963 229.125978456 736 237 736 c 0
189 542.444252958 m 1
 189 617.552034776 l 1
 183.558069655 634.190561289 175.29848169 642.317153054 172.898594168 643.776790595 c 0
 167.851914179 641.024780782 150 618.422851908 150 580 c 0
 150 541.159251726 168.276426614 518.743727942 172.898594168 516.223209405 c 0
 175.644128349 517.893072981 183.641112513 526.020394573 189 542.444252958 c 1
EndSplineSet
EndChar

StartChar: guillemotleft
Encoding: 171 171 229
Width: 614
VWidth: 0
Flags: HW
LayerCount: 2
Fore
SplineSet
529.006509707 517.464775125 m 0
 540.708282598 508.092521838 546.816853695 493.992936137 546.816853695 479.821415454 c 0
 546.816853695 469.279874442 543.436867485 458.698530464 536.464775125 449.993490293 c 2
 387.497766696 264 l 1
 536.464775125 78.006509707 l 2
 543.436645752 69.3017463809 546.816818202 58.7202040786 546.816818202 48.1782918096 c 0
 546.816818202 34.0072766697 540.708776599 19.9078738205 529.006509707 10.5352248745 c 0
 520.301469536 3.56313251524 509.720125558 0.18314630461 499.178584546 0.18314630461 c 0
 485.007063863 0.18314630461 470.907478162 6.29171740223 461.535224875 17.993490293 c 2
 288.535224875 233.993490293 l 2
 281.820491216 242.377203994 278.264745396 253.187959078 278.264745396 264.119468988 c 0
 278.264745396 274.658466481 281.569726683 285.309702717 288.535224875 294.006509707 c 2
 461.535224875 510.006509707 l 2
 470.90787382 521.708776599 485.00727667 527.816818202 499.17829181 527.816818202 c 0
 509.720204079 527.816818202 520.301746381 524.436645752 529.006509707 517.464775125 c 0
305.006509707 517.464775125 m 0
 316.708282598 508.092521838 322.816853695 493.992936137 322.816853695 479.821415454 c 0
 322.816853695 469.279874442 319.436867485 458.698530464 312.464775125 449.993490293 c 2
 163.497766696 264 l 1
 312.464775125 78.006509707 l 2
 319.436645752 69.3017463809 322.816818202 58.7202040786 322.816818202 48.1782918096 c 0
 322.816818202 34.0072766697 316.708776599 19.9078738205 305.006509707 10.5352248745 c 0
 296.301469536 3.56313251524 285.720125558 0.18314630461 275.178584546 0.18314630461 c 0
 261.007063863 0.18314630461 246.907478162 6.29171740223 237.535224875 17.993490293 c 2
 64.5352248745 233.993490293 l 2
 57.8204912158 242.377203994 54.2647453965 253.187959078 54.2647453965 264.119468988 c 0
 54.2647453965 274.658466481 57.5697266831 285.309702717 64.5352248745 294.006509707 c 2
 237.535224875 510.006509707 l 2
 246.90787382 521.708776599 261.00727667 527.816818202 275.17829181 527.816818202 c 0
 285.720204079 527.816818202 296.301746381 524.436645752 305.006509707 517.464775125 c 0
EndSplineSet
EndChar

StartChar: logicalnot
Encoding: 172 172 230
Width: 512
VWidth: 0
Flags: HW
LayerCount: 2
Fore
SplineSet
35 460 m 0
 35 486.144471708 56.8536339246 508 83 508 c 2
 429 508 l 2
 458.054472683 508 477 480.601416319 477 460 c 2
 477 276 l 2
 477 249.855528292 455.146366075 228 429 228 c 0
 402.853633925 228 381 249.855528292 381 276 c 2
 381 412 l 1
 83 412 l 2
 56.8536339246 412 35 433.855528292 35 460 c 0
EndSplineSet
EndChar

StartChar: guillemotright
Encoding: 187 187 231
Width: 614
VWidth: 0
Flags: HW
LayerCount: 2
Fore
SplineSet
84.993490293 517.464775125 m 0
 93.6982536191 524.436645752 104.279795921 527.816818202 114.82170819 527.816818202 c 0
 128.99272333 527.816818202 143.09212618 521.708776599 152.464775125 510.006509707 c 2
 325.464775125 294.006509707 l 2
 332.430273317 285.309702717 335.735254604 274.658466481 335.735254604 264.119468988 c 0
 335.735254604 253.187959078 332.179508784 242.377203994 325.464775125 233.993490293 c 2
 152.464775125 17.993490293 l 2
 143.092521838 6.29171740223 128.992936137 0.18314630461 114.821415454 0.18314630461 c 0
 104.279874442 0.18314630461 93.6985304641 3.56313251524 84.993490293 10.5352248745 c 0
 73.2912234009 19.9078738205 67.1831817976 34.0072766697 67.1831817976 48.1782918096 c 0
 67.1831817976 58.7202040786 70.5633542475 69.3017463809 77.5352248745 78.006509707 c 2
 226.502233304 264 l 1
 77.5352248745 449.993490293 l 2
 70.5631325152 458.698530464 67.1831463046 469.279874442 67.1831463046 479.821415454 c 0
 67.1831463046 493.992936137 73.2917174022 508.092521838 84.993490293 517.464775125 c 0
308.993490293 517.464775125 m 0
 317.698253619 524.436645752 328.279795921 527.816818202 338.82170819 527.816818202 c 0
 352.99272333 527.816818202 367.09212618 521.708776599 376.464775125 510.006509707 c 2
 549.464775125 294.006509707 l 2
 556.430273317 285.309702717 559.735254604 274.658466481 559.735254604 264.119468988 c 0
 559.735254604 253.187959078 556.179508784 242.377203994 549.464775125 233.993490293 c 2
 376.464775125 17.993490293 l 2
 367.092521838 6.29171740223 352.992936137 0.18314630461 338.821415454 0.18314630461 c 0
 328.279874442 0.18314630461 317.698530464 3.56313251524 308.993490293 10.5352248745 c 0
 297.291223401 19.9078738205 291.183181798 34.0072766697 291.183181798 48.1782918096 c 0
 291.183181798 58.7202040786 294.563354248 69.3017463809 301.535224875 78.006509707 c 2
 450.502233304 264 l 1
 301.535224875 449.993490293 l 2
 294.563132515 458.698530464 291.183146305 469.279874442 291.183146305 479.821415454 c 0
 291.183146305 493.992936137 297.291717402 508.092521838 308.993490293 517.464775125 c 0
EndSplineSet
EndChar

StartChar: AE
Encoding: 198 198 232
Width: 729
VWidth: 0
Flags: HW
LayerCount: 2
Fore
SplineSet
672 688 m 0
 672 661.855528292 650.146366075 640 624 640 c 2
 422 640 l 1
 422 436 l 1
 547 436 l 2
 573.144471708 436 595 414.146366075 595 388 c 0
 595 361.853633925 573.144471708 340 547 340 c 2
 422 340 l 1
 422 96 l 1
 634 96 l 2
 660.144471708 96 682 74.1463660754 682 48 c 0
 682 21.8536339246 660.144471708 0 634 0 c 2
 374 0 l 2
 347.853633925 0 326 21.8555282921 326 48 c 2
 326 144 l 1
 166.56444202 144 l 1
 121.638669137 30.3537761068 l 2
 114.251929567 11.6679526888 95.7940776081 0.0846767779788 76.6089515622 0.0846767779788 c 0
 70.8289520562 0.0846767779788 64.9829403204 1.13605188493 59.3537761068 3.36133086312 c 0
 40.6690778392 10.7476256471 29.0846088192 29.2050859875 29.0846088192 48.3909442019 c 0
 29.0846088192 54.1708587312 30.1359810541 60.0168805028 32.3613308631 65.6462238932 c 2
 285.361330863 705.646223893 l 2
 292.670055333 724.134696861 311.543963872 736 330 736 c 2
 353 736 l 1
 373.999999346 736 l 1
 374 736 l 1
 624 736 l 2
 650.146366075 736 672 714.144471708 672 688 c 0
204.51444202 240 m 1
 326 240 l 1
 326 547.315245484 l 1
 204.51444202 240 l 1
EndSplineSet
EndChar

StartChar: Eth
Encoding: 208 208 233
Width: 556
VWidth: 0
Flags: HW
HStem: 48 21G<115.2 307.2> 668 20G<115.2 307.2>
VStem: 115 346<226.215 509.777>
LayerCount: 2
Fore
SplineSet
-10 388 m 0
 -10 414.144471708 11.8536339246 436 38 436 c 2
 67 436 l 1
 67 688 l 2
 67 717.054472683 94.3985836813 736 115 736 c 2
 282 736 l 2
 368.652938509 736 509 639.590936298 509 368 c 0
 509 96.4090817445 368.653156099 0 282 0 c 2
 115 0 l 2
 85.9455273174 0 67 27.3985836813 67 48 c 2
 67 340 l 1
 38 340 l 2
 11.8536339246 340 -10 361.855528292 -10 388 c 0
163 96 m 1
 282 96 l 2
 297.346843901 96 413 127.590918255 413 368 c 0
 413 608.409063702 297.347061491 640 282 640 c 2
 163 640 l 1
 163 436 l 1
 230 436 l 2
 256.144471708 436 278 414.146366075 278 388 c 0
 278 361.853633925 256.144471708 340 230 340 c 2
 163 340 l 1
 163 96 l 1
EndSplineSet
EndChar

StartChar: multiply
Encoding: 215 215 234
Width: 512
VWidth: 0
Flags: HW
LayerCount: 2
Fore
SplineSet
427.011311944 581.460928384 m 0
 438.710143543 572.088568978 444.816830816 557.990999699 444.816830816 543.821607603 c 0
 444.816830816 533.277975286 441.435530472 522.69457435 434.460928384 513.988688056 c 2
 317.504081703 368 l 1
 434.460928384 222.011311944 l 2
 441.435308632 213.305702556 444.81679536 202.722103235 444.81679536 192.178099559 c 0
 444.81679536 178.009212944 438.710637332 163.911826614 427.011311944 154.539071616 c 0
 418.30542565 147.564469528 407.722024714 144.183169184 397.178392397 144.183169184 c 0
 383.009000301 144.183169184 368.911431022 150.289856457 359.539071616 161.988688056 c 2
 256 291.228947662 l 1
 152.460928384 161.988688056 l 2
 143.088568978 150.289856457 128.990999699 144.183169184 114.821607603 144.183169184 c 0
 104.277975286 144.183169184 93.6945743501 147.564469528 84.9886880559 154.539071616 c 0
 73.2893626682 163.911826614 67.1832046399 178.009212944 67.1832046399 192.178099559 c 0
 67.1832046399 202.722103235 70.5646913679 213.305702556 77.5390716159 222.011311944 c 2
 194.495918297 368 l 1
 77.5390716159 513.988688056 l 2
 70.564469528 522.69457435 67.1831691844 533.277975286 67.1831691844 543.821607603 c 0
 67.1831691844 557.990999699 73.2898564566 572.088568978 84.9886880559 581.460928384 c 0
 93.6942974436 588.435308632 104.277896765 591.81679536 114.821900441 591.81679536 c 0
 128.990787056 591.81679536 143.088173386 585.710637332 152.460928384 574.011311944 c 2
 256 444.771052338 l 1
 359.539071616 574.011311944 l 2
 368.911826614 585.710637332 383.009212944 591.81679536 397.178099559 591.81679536 c 0
 407.722103235 591.81679536 418.305702556 588.435308632 427.011311944 581.460928384 c 0
EndSplineSet
EndChar

StartChar: uniE001
Encoding: 57345 57345 235
Width: 588
VWidth: 0
Flags: HW
AnchorPoint: "middle" 294 368 basechar 0
LayerCount: 2
Fore
SplineSet
77.3042037395 6.8403395658 m 0
 62.4505690128 15.7525204018 54.1471030331 31.9222214838 54.1471030331 48.341072936 c 0
 54.1471030331 56.703314072 56.300971792 65.1301833042 60.8403395658 72.6957962605 c 2
 444.840339566 712.695796261 l 2
 453.752520402 727.549430987 469.922221484 735.852896967 486.341072936 735.852896967 c 0
 494.703314072 735.852896967 503.130183304 733.699028208 510.695796261 729.159660434 c 0
 525.550181658 720.247029196 533.85283151 704.077338462 533.85283151 687.659064195 c 0
 533.85283151 679.296573874 531.698894659 670.869594114 527.159660434 663.304203739 c 2
 143.159660434 23.3042037395 l 2
 134.247029196 8.44981834192 118.077338462 0.147168490015 101.659064195 0.147168490015 c 0
 93.2965738742 0.147168490015 84.8695941141 2.30110534103 77.3042037395 6.8403395658 c 0
EndSplineSet
EndChar

StartChar: Thorn
Encoding: 222 222 237
Width: 544
VWidth: 0
Flags: HW
LayerCount: 2
Fore
SplineSet
115 736 m 0
 141.144471708 736 163 714.146366075 163 688 c 2
 163 604 l 1
 307 604 l 2
 412.223293119 604 496 520.927842451 496 388 c 0
 496 255.072461906 412.223912345 172 307 172 c 2
 163 172 l 1
 163 48 l 2
 163 21.8555282921 141.146366075 0 115 0 c 0
 88.8536339246 0 67 21.8555282921 67 48 c 2
 67 556 l 1
 67 688 l 2
 67 714.146366075 88.8555282921 736 115 736 c 0
163 508 m 1
 163 268 l 1
 307 268 l 2
 355.776087655 268 400 296.927538094 400 388 c 0
 400 479.072157549 355.776706881 508 307 508 c 2
 163 508 l 1
EndSplineSet
EndChar

StartChar: germandbls
Encoding: 223 223 238
Width: 505
VWidth: 0
Flags: HW
LayerCount: 2
Fore
SplineSet
115 0 m 0
 88.8555282921 0 67 21.8536339246 67 48 c 2
 67 528 l 2
 67 620.457246003 125.133158146 744 243 744 c 2
 269 744 l 2
 381.682145854 744 445 638.516898991 445 542 c 0
 445 488.618098801 425.631069572 432.49349105 389.253915581 392.989625436 c 1
 437.369796198 346.402305474 458 271.097960822 458 214 c 0
 458 125.036431161 407.991475856 -8 282 -8 c 2
 269 -8 l 2
 242.855528292 -8 221 13.8536339246 221 40 c 0
 221 66.1463660754 242.855528292 88 269 88 c 2
 282 88 l 2
 322.008524144 88 362 142.963568839 362 214 c 0
 362 285.078381041 322.035361747 340 282 340 c 2
 269 340 l 2
 242.855528292 340 221 361.853633925 221 388 c 0
 221 414.146366075 242.855528292 436 269 436 c 0
 310.317707143 436 349 478.516998449 349 542 c 0
 349 605.483101009 310.317854146 648 269 648 c 2
 243 648 l 2
 206.866841854 648 163 595.542753997 163 528 c 2
 163 48 l 2
 163 21.8536339246 141.144471708 0 115 0 c 0
EndSplineSet
EndChar

StartChar: ae
Encoding: 230 230 239
Width: 640
VWidth: 0
Flags: HW
LayerCount: 2
Fore
SplineSet
67.4187004446 391.384767475 m 0
 52.7636481691 400.615178307 45.3775519086 416.423646812 45.3775519086 432.211217257 c 0
 45.3775519086 440.80781611 47.567519478 449.398218716 51.9663667366 456.917033411 c 0
 55.5090234429 462.541682212 100.993858015 536 198 536 c 0
 244.793908574 536 286.659600183 515.808720701 314.884879239 484.157071178 c 1
 343.630893922 516.013878242 380.796912904 536 426 536 c 0
 487.869190765 536 538.96432621 498.167373731 569.952180947 437.431178447 c 0
 593.857814473 388.42462972 602 340.842714683 602 288 c 0
 602 258.945527317 574.601416319 240 554 240 c 2
 339.828942938 240 l 1
 347.47489655 132.889705494 399.723530646 88 426 88 c 0
 478.308807635 88 506.146423068 138.862648245 510.889515218 149.115251104 c 0
 518.094056862 164.307461926 536.066453024 175.759844991 555.025444725 175.759844991 c 0
 561.068064908 175.759844991 567.210906215 174.596480009 573.137285509 172.020044336 c 0
 591.588158646 163.998706956 601.687318429 145.718252189 601.687318429 127.375677003 c 0
 601.687318429 121.32976147 600.590110902 115.277096961 598.33311965 109.582838762 c 0
 596.819431431 106.101016719 550.108129817 -8 426 -8 c 0
 381.187378713 -8 344.250466353 11.3459368533 315.58402437 42.6166457378 c 1
 289.97415063 17.8610206036 250.634753734 -8 198 -8 c 1
 94.124731323 -8 38 76.8360778508 38 160 c 0
 38 226.331860239 72.0032588562 309.731605162 192.478992666 323.681426971 c 0
 249.665466474 330.331016949 256 360.958754071 256 388 c 0
 256 412.876151756 232.838551171 440 198 440 c 0
 159.253686466 440 135.209599913 408.729516701 135.209599913 408.729516701 c 1
 123.936594984 392.066561625 108.475987451 383.75379795 92.8449579393 383.75379795 c 0
 84.1947903036 383.75379795 75.492431203 386.299568838 67.4187004446 391.384767475 c 0
346.944532214 336 m 1
 502.607543995 336 l 1
 499.439914098 355.7235145 494.092155776 373.789960525 484.045470094 394.573667282 c 0
 464.809381887 431.781938556 446.301320251 440 426 440 c 0
 404.240388455 440 364.785607903 412.285913051 346.944532214 336 c 1
243.851834798 236.997430782 m 1
 231.680268536 233.003175578 218.270213042 230.033596948 203.521007334 228.318573029 c 0
 133.970670294 220.265376108 134 197.668139761 134 160 c 0
 134 115.163922149 155.875268677 88 198 88 c 0
 224.256208392 88 252.634081099 117.067960821 264.646205145 131.554764408 c 1
 253.141000456 164.340847304 246.159096585 200.436763243 243.851834798 236.997430782 c 1
EndSplineSet
EndChar

StartChar: eth
Encoding: 240 240 240
Width: 454
VWidth: 0
Flags: HW
HStem: 40 448<166.158 288.242>
VStem: 86 282<157.228 370.772>
LayerCount: 2
Fore
SplineSet
162.046412628 725.507100709 m 0
 170.741825819 732.451354299 181.300713724 735.817071406 191.819594379 735.817071406 c 0
 206.014053022 735.817071406 220.135660365 729.688260497 229.507100709 717.953587372 c 0
 232.607374962 714.071504828 235.674988173 710.211642325 238.709475761 706.371888022 c 1
 268.502676396 722.896584083 303.829197642 736 346 736 c 0
 372.144471708 736 394 714.146366075 394 688 c 0
 394 661.853633925 372.144471708 640 346 640 c 0
 334.120816488 640 320.096777738 631.471567916 303.239352008 619.498617475 c 1
 374.75146843 514.599612685 416 412.74486968 416 264 c 0
 416 132.33091792 349.713885756 -8 227 -8 c 0
 104.285688876 -8 38 132.329694897 38 264 c 0
 38 395.66908208 104.286114244 536 227 536 c 0
 233.062429219 536 238.987136737 535.657506356 244.772934418 534.990483545 c 1
 238.076038145 545.62983917 230.913431543 556.374000108 223.277750893 567.323662511 c 1
 196.111950496 553.891188546 164.639363197 544 128 544 c 0
 101.853633925 544 80 565.855528292 80 592 c 0
 80 618.144471708 101.853633925 640 128 640 c 0
 136.989913497 640 147.208445284 644.884615503 158.953967585 652.450210023 c 1
 157.477688196 654.305646647 155.990673368 656.170939002 154.492899291 658.046412628 c 0
 147.54842515 666.742101988 144.182892688 677.300792246 144.182892688 687.819302766 c 0
 144.182892688 702.014267641 150.312235853 716.136056756 162.046412628 725.507100709 c 0
320 264 m 0
 320 380.329694897 260.285688876 440 227 440 c 0
 193.713885756 440 134 380.33091792 134 264 c 0
 134 147.670305103 193.714311124 88 227 88 c 0
 260.286114244 88 320 147.66908208 320 264 c 0
EndSplineSet
EndChar

StartChar: uniE002
Encoding: 57346 57346 242
Width: 454
VWidth: 0
Flags: HW
AnchorPoint: "middle" 227 264 basechar 0
LayerCount: 2
Fore
SplineSet
67.6279118381 7.25374689244 m 0
 53.1638287998 16.2603171177 45.152615465 32.1834693779 45.152615465 48.3262816869 c 0
 45.152615465 56.9528189667 47.4403883549 65.64208486 52.2537468924 73.3720881619 c 2
 321.253746892 505.372088162 l 2
 330.260317118 519.8361712 346.183469378 527.847384535 362.326281687 527.847384535 c 0
 370.952818967 527.847384535 379.64208486 525.559611645 387.372088162 520.746253108 c 0
 401.83688725 511.739237009 409.847321535 495.816123939 409.847321535 479.673878647 c 0
 409.847321535 471.04707591 407.559469612 462.357687043 402.746253108 454.627911838 c 2
 133.746253108 22.6279118381 l 2
 124.739237009 8.1631127501 108.816123939 0.152678464736 92.6738786473 0.152678464736 c 0
 84.0470759096 0.152678464736 75.3576870426 2.44053038781 67.6279118381 7.25374689244 c 0
EndSplineSet
EndChar

StartChar: thorn
Encoding: 254 254 243
Width: 470
VWidth: 0
Flags: HW
LayerCount: 2
Fore
SplineSet
115 736 m 0
 141.144471708 736 163 714.146366075 163 688 c 2
 163 511.748583919 l 1
 186.122464502 526.974874092 212.83619952 536 243 536 c 0
 365.714311124 536 432 395.670305103 432 264 c 0
 432 132.33091792 365.713885756 -8 243 -8 c 0
 212.836088768 -8 186.122386676 1.02498484724 163 16.2511057375 c 1
 163 -144 l 2
 163 -170.144471708 141.146366075 -192 115 -192 c 0
 88.8536339246 -192 67 -170.144471708 67 -144 c 2
 67 688 l 2
 67 714.146366075 88.8555282921 736 115 736 c 0
163 349.508806971 m 1
 163 178.491196309 l 1
 183.71892125 113.218406491 220.019053359 88 243 88 c 0
 276.286114244 88 336 147.66908208 336 264 c 0
 336 380.329694897 276.285688876 440 243 440 c 0
 220.018456748 440 183.719102441 414.782290147 163 349.508806971 c 1
EndSplineSet
EndChar

StartChar: uni203D
Encoding: 8253 8253 244
Width: 486
VWidth: 0
Flags: HW
HStem: 48 48<225.525 260.875>
VStem: 224 38<49.9059 94.0941>
LayerCount: 2
Fore
SplineSet
310 80 m 0
 310 47.0220157093 288.658103102 0 237 0 c 0
 194.116278251 0 176 35.1241599403 176 64 c 0
 176 99.412768916 200.000542119 144 250 144 c 0
 296.256509748 144 310 104.005199221 310 80 c 0
90 488 m 0
 63.8555282921 488 42 509.853633925 42 536 c 0
 42 668.407161856 133.851141827 744 243 744 c 0
 350.772404693 744 445 678.829511402 445 560 c 0
 445 472.811234525 401.295773698 423.218440604 348.09622092 385.08069146 c 0
 299.147323677 349.012161098 291 337.805863195 291 240 c 0
 291 213.855528292 269.146366075 192 243 192 c 0
 216.853633925 192 195 213.855528292 195 240 c 2
 195 640.185128379 l 1
 159.627682867 626.629801874 138 594.44725638 138 536 c 0
 138 509.853633925 116.144471708 488 90 488 c 0
291 642.010680906 m 1
 291 462.254765651 l 2
 291.284745801 462.464918761 291.570230751 462.674943311 291.856456195 462.884841971 c 0
 336.708736763 494.922185233 349 507.094774829 349 560 c 0
 349 602.530789715 330.309321352 630.483679381 291 642.010680906 c 1
EndSplineSet
EndChar

StartChar: afii00208
Encoding: 8213 8213 245
Width: 819
VWidth: 0
Flags: HW
LayerCount: 2
Fore
SplineSet
-10 368 m 0
 -10 394.144471708 11.8536339246 416 38 416 c 2
 781 416 l 2
 807.144471708 416 829 394.146366075 829 368 c 0
 829 341.853633925 807.144471708 320 781 320 c 2
 38 320 l 2
 11.8536339246 320 -10 341.855528292 -10 368 c 0
EndSplineSet
EndChar

StartChar: bullet
Encoding: 8226 8226 246
Width: 281
VWidth: 0
Flags: HW
HStem: 304 128<102.09 179.51> 336 64<126.669 154.931>
VStem: 90 102<319.613 416.387> 115 51<350.336 385.664>
LayerCount: 2
Fore
SplineSet
240 368 m 0
 240 315.764719514 204.926176019 256 141 256 c 0
 77.0760604868 256 42 315.768012037 42 368 c 0
 42 420.235280486 77.0738239806 480 141 480 c 0
 204.923939513 480 240 420.231987963 240 368 c 0
EndSplineSet
EndChar

StartChar: uni2016
Encoding: 8214 8214 247
Width: 358
VWidth: 0
Flags: HW
LayerCount: 2
Fore
SplineSet
243 816 m 0
 269.144471708 816 291 794.146366075 291 768 c 2
 291 -32 l 2
 291 -58.1444717079 269.146366075 -80 243 -80 c 0
 216.853633925 -80 195 -58.1444717079 195 -32 c 2
 195 768 l 2
 195 794.146366075 216.855528292 816 243 816 c 0
115 816 m 0
 141.144471708 816 163 794.146366075 163 768 c 2
 163 -32 l 2
 163 -58.1444717079 141.146366075 -80 115 -80 c 0
 88.8536339246 -80 67 -58.1444717079 67 -32 c 2
 67 768 l 2
 67 794.146366075 88.8555282921 816 115 816 c 0
EndSplineSet
EndChar

StartChar: underscoredbl
Encoding: 8215 8215 248
Width: 460
VWidth: 0
Flags: HW
LayerCount: 2
Fore
SplineSet
-10 -96 m 0
 -10 -69.8555282921 11.8536339246 -48 38 -48 c 2
 422 -48 l 2
 448.144471708 -48 470 -69.8536339246 470 -96 c 0
 470 -122.146366075 448.144471708 -144 422 -144 c 2
 38 -144 l 2
 11.8536339246 -144 -10 -122.144471708 -10 -96 c 0
-10 -240 m 0
 -10 -213.855528292 11.8536339246 -192 38 -192 c 2
 422 -192 l 2
 448.144471708 -192 470 -213.853633925 470 -240 c 0
 470 -266.146366075 448.144471708 -288 422 -288 c 2
 38 -288 l 2
 11.8536339246 -288 -10 -266.144471708 -10 -240 c 0
EndSplineSet
EndChar

StartChar: quoteleft
Encoding: 8216 8216 249
Width: 236
VWidth: 0
Flags: HW
LayerCount: 2
Fore
SplineSet
154.478388511 625.370213873 m 1
 174.868011166 613.923408172 189 594.023712851 189 568 c 0
 189 532.587231084 164.999457881 488 115 488 c 0
 72.4047222819 488 48 527.857456733 48 568 c 0
 48 624.261691968 76.5900259155 700.587189042 77.7615444791 704.065468202 c 0
 85.252180716 724.111784078 103.702905393 735.992241602 123.095381567 735.992241602 c 0
 128.165961161 735.992241602 133.300925799 735.180006337 138.321186589 733.489133224 c 0
 158.172338976 726.803070242 170.935009866 707.702804338 170.935009866 687.630597099 c 0
 170.935009866 682.648221809 170.148644858 677.605960883 168.489133224 672.678813411 c 2
 168.489133224 672.678813411 161.40861093 651.657264428 154.478388511 625.370213873 c 1
EndSplineSet
EndChar

StartChar: quoteright
Encoding: 8217 8217 250
Width: 236
VWidth: 0
Flags: HW
LayerCount: 2
Fore
SplineSet
82.5216114893 598.629786127 m 1
 62.1319888339 610.076591828 48 629.976287149 48 656 c 0
 48 691.412768916 72.0005421191 736 122 736 c 0
 164.595277718 736 189 696.142543267 189 656 c 0
 189 599.738308032 160.409974084 523.412810958 159.238455521 519.934531798 c 0
 151.747819284 499.888215922 133.297094607 488.007758398 113.904618433 488.007758398 c 0
 108.834038839 488.007758398 103.699074201 488.819993663 98.6788134109 490.510866776 c 0
 78.8276610236 497.196929758 66.0649901344 516.297195662 66.0649901344 536.369402901 c 0
 66.0649901344 541.351778191 66.8513551423 546.394039117 68.5108667756 551.321186589 c 2
 68.5108667756 551.321186589 75.5913890703 572.342735572 82.5216114893 598.629786127 c 1
EndSplineSet
EndChar

StartChar: quotesinglbase
Encoding: 8218 8218 251
Width: 236
VWidth: 0
Flags: HW
LayerCount: 2
Fore
SplineSet
82.5216114893 6.62978612676 m 1
 62.1319888339 18.0765918281 48 37.9762871488 48 64 c 0
 48 99.412768916 72.0005421191 144 122 144 c 0
 164.595277718 144 189 104.142543267 189 64 c 0
 189 7.73830803211 160.409974084 -68.5871890424 159.238455521 -72.0654682018 c 0
 151.747819284 -92.1117840785 133.297094607 -103.992241602 113.904618433 -103.992241602 c 0
 108.834038839 -103.992241602 103.699074201 -103.180006337 98.6788134109 -101.489133224 c 0
 78.8276610236 -94.8030702424 66.0649901344 -75.7028043381 66.0649901344 -55.6305970991 c 0
 66.0649901344 -50.648221809 66.8513551423 -45.6059608834 68.5108667756 -40.6788134109 c 2
 68.5108667756 -40.6788134109 75.5913890703 -19.657264428 82.5216114893 6.62978612676 c 1
EndSplineSet
EndChar

StartChar: quotereversed
Encoding: 8219 8219 252
Width: 236
VWidth: 0
Flags: HW
LayerCount: 2
Fore
SplineSet
151.2895892 602.841551231 m 1
 158.565375363 578.780084347 168.612289866 556.053202978 168.731672261 555.787408211 c 0
 171.560889609 549.525551679 172.89598301 542.917820718 172.89598301 536.38227221 c 0
 172.89598301 518.005226717 162.339993615 500.198895755 144.763601576 492.257571481 c 0
 138.429882976 489.395885581 131.749471254 488.019566074 125.139723369 488.019566074 c 0
 107.444184243 488.019566074 90.255116626 497.884111421 81.5808949518 515.520776739 c 0
 80.1765600768 518.628966188 48 581.46601619 48 640 c 0
 48 677.855489734 70.0002283211 736 128 736 c 0
 170.883721749 736 189 700.87584006 189 672 c 0
 189 642.790527167 174.482103232 617.758104059 151.2895892 602.841551231 c 1
EndSplineSet
EndChar

StartChar: quotedblleft
Encoding: 8220 8220 253
Width: 409
VWidth: 0
Flags: HW
LayerCount: 2
Fore
SplineSet
327.478388511 625.370213873 m 1
 347.868011166 613.923408172 362 594.023712851 362 568 c 0
 362 532.587231084 337.999457881 488 288 488 c 0
 245.404722282 488 221 527.857456733 221 568 c 0
 221 624.261691968 249.590025916 700.587189042 250.761544479 704.065468202 c 0
 258.252180716 724.111784078 276.702905393 735.992241602 296.095381567 735.992241602 c 0
 301.165961161 735.992241602 306.300925799 735.180006337 311.321186589 733.489133224 c 0
 331.172338976 726.803070242 343.935009866 707.702804338 343.935009866 687.630597099 c 0
 343.935009866 682.648221809 343.148644858 677.605960883 341.489133224 672.678813411 c 2
 341.489133224 672.678813411 334.40861093 651.657264428 327.478388511 625.370213873 c 1
154.478388511 625.370213873 m 1
 174.868011166 613.923408172 189 594.023712851 189 568 c 0
 189 532.587231084 164.999457881 488 115 488 c 0
 72.4047222819 488 48 527.857456733 48 568 c 0
 48 624.261691968 76.5900259155 700.587189042 77.7615444791 704.065468202 c 0
 85.252180716 724.111784078 103.702905393 735.992241602 123.095381567 735.992241602 c 0
 128.165961161 735.992241602 133.300925799 735.180006337 138.321186589 733.489133224 c 0
 158.172338976 726.803070242 170.935009866 707.702804338 170.935009866 687.630597099 c 0
 170.935009866 682.648221809 170.148644858 677.605960883 168.489133224 672.678813411 c 2
 168.489133224 672.678813411 161.40861093 651.657264428 154.478388511 625.370213873 c 1
EndSplineSet
EndChar

StartChar: quotedblright
Encoding: 8221 8221 254
Width: 409
VWidth: 0
Flags: HW
LayerCount: 2
Fore
SplineSet
255.131973418 598.848530307 m 1
 234.860491746 610.229011246 221 629.976287149 221 656 c 0
 221 688.977984291 242.341896898 736 294 736 c 0
 334.528776163 736 362 698.677566591 362 656 c 0
 362 599.222541491 332.264740867 522.890254329 331.056250792 519.430407596 c 0
 323.4125839 499.650990618 305.097983501 488.008854987 285.898976443 488.008854987 c 0
 280.656119344 488.008854987 275.34730986 488.87703775 270.171842965 490.684776897 c 0
 250.570414172 497.531361153 238.069149832 516.496334505 238.069149832 536.375526906 c 0
 238.069149832 541.530045284 238.909640022 546.746028817 240.684776897 551.828157035 c 2
 240.684776897 551.828157035 248.028105593 572.777685333 255.131973418 598.848530307 c 1
82.5216114893 598.629786127 m 1
 62.1319888339 610.076591828 48 629.976287149 48 656 c 0
 48 691.412768916 72.0005421191 736 122 736 c 0
 164.595277718 736 189 696.142543267 189 656 c 0
 189 599.738308032 160.409974084 523.412810958 159.238455521 519.934531798 c 0
 151.747819284 499.888215922 133.297094607 488.007758398 113.904618433 488.007758398 c 0
 108.834038839 488.007758398 103.699074201 488.819993663 98.6788134109 490.510866776 c 0
 78.8276610236 497.196929758 66.0649901344 516.297195662 66.0649901344 536.369402901 c 0
 66.0649901344 541.351778191 66.8513551423 546.394039117 68.5108667756 551.321186589 c 2
 68.5108667756 551.321186589 75.5913890703 572.342735572 82.5216114893 598.629786127 c 1
EndSplineSet
EndChar

StartChar: quotedblbase
Encoding: 8222 8222 255
Width: 409
VWidth: 0
Flags: HW
LayerCount: 2
Fore
SplineSet
255.131973418 6.84853030691 m 1
 234.860491746 18.2290112458 221 37.9762871488 221 64 c 0
 221 96.9779842907 242.341896898 144 294 144 c 0
 334.528776163 144 362 106.677566591 362 64 c 0
 362 7.2225414909 332.264740867 -69.1097456712 331.056250792 -72.5695924041 c 0
 323.4125839 -92.349009382 305.097983501 -103.991145013 285.898976443 -103.991145013 c 0
 280.656119344 -103.991145013 275.34730986 -103.12296225 270.171842965 -101.315223103 c 0
 250.570414172 -94.468638847 238.069149832 -75.5036654948 238.069149832 -55.624473094 c 0
 238.069149832 -50.4699547158 238.909640022 -45.2539711832 240.684776897 -40.1718429648 c 2
 240.684776897 -40.1718429648 248.028105593 -19.2223146665 255.131973418 6.84853030691 c 1
82.5216114893 6.62978612676 m 1
 62.1319888339 18.0765918281 48 37.9762871488 48 64 c 0
 48 99.412768916 72.0005421191 144 122 144 c 0
 164.595277718 144 189 104.142543267 189 64 c 0
 189 7.73830803211 160.409974084 -68.5871890424 159.238455521 -72.0654682018 c 0
 151.747819284 -92.1117840785 133.297094607 -103.992241602 113.904618433 -103.992241602 c 0
 108.834038839 -103.992241602 103.699074201 -103.180006337 98.6788134109 -101.489133224 c 0
 78.8276610236 -94.8030702424 66.0649901344 -75.7028043381 66.0649901344 -55.6305970991 c 0
 66.0649901344 -50.648221809 66.8513551423 -45.6059608834 68.5108667756 -40.6788134109 c 2
 68.5108667756 -40.6788134109 75.5913890703 -19.657264428 82.5216114893 6.62978612676 c 1
EndSplineSet
EndChar

StartChar: uni201F
Encoding: 8223 8223 256
Width: 409
VWidth: 0
Flags: HW
LayerCount: 2
Fore
SplineSet
324.2895892 602.841551231 m 1
 331.565375363 578.780084347 341.612289866 556.053202977 341.731672261 555.787408211 c 0
 344.560889609 549.525551679 345.89598301 542.917820718 345.89598301 536.38227221 c 0
 345.89598301 518.005226717 335.339993615 500.198895755 317.763601576 492.257571481 c 0
 311.429882976 489.395885581 304.749471254 488.019566074 298.139723369 488.019566074 c 0
 280.444184243 488.019566074 263.255116626 497.884111421 254.580894952 515.520776739 c 0
 253.176560077 518.628966188 221 581.46601619 221 640 c 0
 221 677.855489734 243.000228321 736 301 736 c 0
 343.883721749 736 362 700.87584006 362 672 c 0
 362 642.790527167 347.482103232 617.758104059 324.2895892 602.841551231 c 1
151.2895892 602.841551231 m 1
 158.565375363 578.780084347 168.612289866 556.053202978 168.731672261 555.787408211 c 0
 171.560889609 549.525551679 172.89598301 542.917820718 172.89598301 536.38227221 c 0
 172.89598301 518.005226717 162.339993615 500.198895755 144.763601576 492.257571481 c 0
 138.429882976 489.395885581 131.749471254 488.019566074 125.139723369 488.019566074 c 0
 107.444184243 488.019566074 90.255116626 497.884111421 81.5808949518 515.520776739 c 0
 80.1765600768 518.628966188 48 581.46601619 48 640 c 0
 48 677.855489734 70.0002283211 736 128 736 c 0
 170.883721749 736 189 700.87584006 189 672 c 0
 189 642.790527167 174.482103232 617.758104059 151.2895892 602.841551231 c 1
EndSplineSet
EndChar

StartChar: dagger
Encoding: 8224 8224 257
Width: 499
VWidth: 0
Flags: HW
LayerCount: 2
Fore
SplineSet
42 568 m 0
 42 594.144471708 63.8536339246 616 90 616 c 2
 202 616 l 1
 202 768 l 2
 202 794.146366075 223.855528292 816 250 816 c 0
 276.144471708 816 298 794.146366075 298 768 c 2
 298 616 l 1
 410 616 l 2
 436.144471708 616 458 594.146366075 458 568 c 0
 458 541.853633925 436.144471708 520 410 520 c 2
 298 520 l 1
 298 -32 l 2
 298 -58.1444717079 276.146366075 -80 250 -80 c 0
 223.853633925 -80 202 -58.1444717079 202 -32 c 2
 202 520 l 1
 90 520 l 2
 63.8536339246 520 42 541.855528292 42 568 c 0
EndSplineSet
EndChar

StartChar: daggerdbl
Encoding: 8225 8225 258
Width: 499
VWidth: 0
Flags: HW
LayerCount: 2
Fore
SplineSet
42 168 m 0
 42 194.144471708 63.8536339246 216 90 216 c 2
 202 216 l 1
 202 520 l 1
 90 520 l 2
 63.8536339246 520 42 541.855528292 42 568 c 0
 42 594.144471708 63.8536339246 616 90 616 c 2
 202 616 l 1
 202 768 l 2
 202 794.146366075 223.855528292 816 250 816 c 0
 276.144471708 816 298 794.146366075 298 768 c 2
 298 616 l 1
 410 616 l 2
 436.144471708 616 458 594.146366075 458 568 c 0
 458 541.853633925 436.144471708 520 410 520 c 2
 298 520 l 1
 298 216 l 1
 410 216 l 2
 436.144471708 216 458 194.146366075 458 168 c 0
 458 141.853633925 436.144471708 120 410 120 c 2
 298 120 l 1
 298 -32 l 2
 298 -58.1444717079 276.146366075 -80 250 -80 c 0
 223.853633925 -80 202 -58.1444717079 202 -32 c 2
 202 120 l 1
 90 120 l 2
 63.8536339246 120 42 141.855528292 42 168 c 0
EndSplineSet
EndChar

StartChar: uni2023
Encoding: 8227 8227 259
Width: 281
VWidth: 0
Flags: HW
LayerCount: 2
Fore
SplineSet
232.50055231 328.658932111 m 2
 129.50055231 256.658932111 l 2
 121.277064313 250.910474482 111.775428348 248.182767412 102.340196203 248.182767412 c 0
 85.829355287 248.182767412 69.5218559831 256.53554534 60.6225880877 271.670803888 c 0
 56.2709545914 279.071760781 54 288.891179007 54 296 c 2
 54 440 l 2
 54 466.354847908 76.1344177733 487.996663789 102.089835167 487.996663789 c 0
 103.307425075 487.996663789 104.53342357 487.949038267 105.765940101 487.852039613 c 0
 114.324979105 487.178446001 123.67412295 483.413911713 129.50055231 479.341067889 c 2
 232.50055231 407.341067889 l 2
 245.768519322 398.066372502 252.79446511 382.965807537 252.79446511 367.765589738 c 0
 252.79446511 357.058603986 249.308366865 346.302172994 242.062185548 337.497632839 c 0
 239.314392034 334.158900716 233.428584809 329.307653858 232.50055231 328.658932111 c 2
EndSplineSet
EndChar

StartChar: perthousand
Encoding: 8240 8240 260
Width: 998
VWidth: 0
Flags: HW
HStem: 48 240<439.934 558.466 747.134 865.664> 448 240<132.734 251.266>
VStem: 90 205<500.922 635.078> 397 205<100.922 235.078> 704 205<100.922 235.078>
CounterMasks: 1 38
LayerCount: 2
Fore
SplineSet
957 168 m 0
 957 81.8487205715 895.829598267 0 806 0 c 0
 715.748099101 0 656 82.5292938636 656 168 c 0
 656 253.531614889 715.6864773 336 806 336 c 0
 895.829657118 336 957 254.151331778 957 168 c 0
861 168 m 0
 861 213.848668222 830.170342882 240 806 240 c 0
 782.3135227 240 752 214.468385111 752 168 c 0
 752 121.470706136 782.251900899 96 806 96 c 0
 830.170401733 96 861 122.151279429 861 168 c 0
650 168 m 0
 650 81.8487205715 588.829598267 0 499 0 c 0
 408.748099101 0 349 82.5292938636 349 168 c 0
 349 253.531614889 408.6864773 336 499 336 c 0
 588.829657118 336 650 254.151331778 650 168 c 0
554 168 m 0
 554 213.848668222 523.170342882 240 499 240 c 0
 475.3135227 240 445 214.468385111 445 168 c 0
 445 121.470706136 475.251900899 96 499 96 c 0
 523.170401733 96 554 122.151279429 554 168 c 0
342 568 m 0
 342 482.468385111 282.3135227 400 192 400 c 0
 101.748099101 400 42 482.529293864 42 568 c 0
 42 653.531614889 101.6864773 736 192 736 c 0
 282.251900899 736 342 653.470706136 342 568 c 0
246 568 m 0
 246 614.529293864 215.748099101 640 192 640 c 0
 168.3135227 640 138 614.468385111 138 568 c 0
 138 521.470706136 168.251900899 496 192 496 c 0
 215.6864773 496 246 521.531614889 246 568 c 0
185.70307276 4.04970308303 m 0
 167.876209733 11.8768101307 157.099293666 29.8444063316 157.099293666 48.395672526 c 0
 157.099293666 54.7558603118 158.36603302 61.1846537865 161.049703083 67.2969272401 c 2
 442.049703083 707.29692724 l 2
 449.876810131 725.123790267 467.844406332 735.900706334 486.395672526 735.900706334 c 0
 492.755860312 735.900706334 499.184653787 734.63396698 505.29692724 731.950296917 c 0
 523.124827081 724.122734643 533.900635451 706.154855931 533.900635451 687.604275443 c 0
 533.900635451 681.243966611 532.633884442 674.815158225 529.950296917 668.70307276 c 2
 248.950296917 28.7030727599 l 2
 241.122734643 10.8751729194 223.154855931 0.0993645493323 204.604275443 0.0993645493323 c 0
 198.243966611 0.0993645493323 191.815158225 1.36611555844 185.70307276 4.04970308303 c 0
EndSplineSet
EndChar

